{"glyphs":{"0":{"ha":569,"x_min":0,"x_max":0,"o":"m 554 388 b 538 519 556 432 549 476 b 249 954 493 676 385 858 b 219 972 240 961 229 967 b 200 978 213 975 207 978 b 175 965 192 978 183 974 b 108 899 153 943 132 921 b 89 851 94 886 86 871 b 71 808 90 833 83 821 b 14 646 25 769 14 703 b 129 199 15 488 54 339 b 307 60 161 135 229 60 b 383 86 333 60 358 68 b 410 107 393 92 401 100 b 424 108 414 110 418 113 b 449 111 433 100 440 103 b 511 174 469 132 490 153 b 517 203 521 182 525 192 b 519 231 511 213 515 222 b 554 388 546 281 557 332 z m 453 331 b 251 732 378 461 311 594 b 253 761 244 749 244 761 b 276 746 265 764 269 754 b 450 403 358 644 421 532 b 453 331 454 379 458 354 z m 115 735 b 125 718 121 726 124 722 b 372 204 196 542 282 372 b 392 165 379 192 386 179 b 382 154 394 160 389 153 b 108 701 210 169 111 544 b 115 735 108 711 107 721 z "},"1":{"ha":463,"x_min":0,"x_max":0,"o":"m 125 67 b 208 79 154 71 182 76 b 293 86 236 82 265 86 b 354 78 314 86 335 85 b 372 82 363 75 368 78 b 446 156 397 107 421 131 b 439 175 451 161 447 171 b 375 182 418 182 396 182 b 351 201 361 182 354 188 b 350 207 351 204 350 206 l 347 219 b 346 225 347 221 346 224 b 221 767 301 406 260 586 l 179 965 b 158 972 176 978 168 981 b 103 917 140 954 122 935 b 69 849 82 899 72 875 b 38 650 69 789 54 707 b 14 565 31 624 24 599 b 122 681 58 603 94 636 b 131 658 126 669 129 664 l 201 340 b 239 188 214 290 226 239 b 229 164 240 178 242 169 b 125 67 192 146 154 111 z "},"2":{"ha":689,"x_min":0,"x_max":0,"o":"m 246 43 b 264 47 253 40 258 42 b 465 140 325 99 383 133 b 571 125 501 144 538 140 b 594 125 579 122 588 119 b 638 167 610 139 624 153 b 675 210 650 181 667 192 b 554 513 597 296 588 407 b 488 451 528 494 510 469 b 469 389 467 433 464 414 l 503 271 b 510 233 506 258 513 247 b 501 228 506 231 504 228 b 354 149 446 211 399 185 b 340 149 350 144 346 144 b 342 167 340 154 340 161 b 538 929 385 426 432 686 b 546 957 542 938 544 947 b 533 974 547 965 542 972 b 499 972 521 974 510 974 b 267 967 421 968 344 963 b 144 976 226 969 185 971 b 86 957 121 978 103 975 b 28 897 68 936 47 917 b 21 854 13 885 13 871 b 49 794 31 835 39 815 l 104 676 b 132 617 114 657 122 636 b 160 611 140 599 146 597 b 175 626 165 617 169 621 l 204 656 b 219 669 210 660 214 665 b 225 708 232 682 233 693 l 163 843 b 160 869 158 851 150 860 b 174 871 164 871 169 871 b 410 879 253 869 332 869 b 435 881 418 881 426 881 b 449 861 447 879 453 872 b 439 833 446 851 442 842 b 383 686 419 785 400 736 b 243 51 314 479 276 267 b 246 43 243 49 244 46 z "},"3":{"ha":631,"x_min":0,"x_max":0,"o":"m 304 389 b 290 382 299 386 293 386 b 224 317 268 361 246 339 b 218 286 214 307 213 299 b 308 128 244 231 272 178 b 411 63 332 97 369 63 b 478 94 433 63 457 74 b 556 171 504 121 529 146 b 604 261 581 196 597 226 b 558 575 629 371 613 476 b 532 611 551 588 542 600 b 443 646 508 636 479 647 b 369 622 417 643 393 633 b 279 561 336 606 308 583 b 254 549 274 556 268 544 b 261 565 256 554 258 560 b 476 894 319 683 388 796 b 508 932 488 907 499 918 b 521 953 514 938 517 946 b 514 969 524 960 519 967 b 461 981 499 981 479 981 b 285 979 403 981 343 982 b 106 924 228 979 146 968 b 46 865 86 903 67 883 b 19 763 14 836 8 803 b 69 639 32 719 50 679 b 90 622 74 632 76 624 b 161 693 113 644 136 669 b 165 728 174 704 171 715 b 113 861 143 771 125 814 b 122 876 111 868 115 874 b 136 881 126 878 131 879 b 367 886 213 888 290 892 b 421 872 386 885 414 892 b 392 822 431 850 404 836 b 150 446 290 710 214 582 b 146 422 147 439 140 432 b 168 439 157 424 163 432 b 336 547 215 483 271 532 b 446 511 381 558 417 544 b 521 260 500 447 521 342 b 511 178 521 232 519 204 b 481 161 506 161 497 157 b 365 276 431 169 388 236 b 304 389 344 313 325 350 z "},"4":{"ha":481,"x_min":0,"x_max":0,"o":"m 14 351 b 24 351 21 351 22 350 b 54 367 35 356 44 361 b 272 422 122 401 196 418 b 307 392 300 424 304 414 b 368 82 322 288 343 183 b 382 63 371 69 375 63 b 397 72 386 63 390 65 b 411 86 403 76 407 82 l 440 114 b 454 128 444 118 450 124 b 464 168 467 140 468 153 b 404 467 440 267 422 367 b 406 500 401 478 397 490 b 413 571 422 522 417 547 b 367 947 393 696 379 822 b 353 963 365 954 365 961 b 292 903 333 943 314 922 b 269 846 275 888 268 869 b 283 600 274 764 275 682 b 289 532 286 578 288 554 b 268 506 289 513 288 510 b 129 456 219 494 172 479 b 115 456 125 453 121 451 b 121 489 113 468 119 478 b 129 522 124 500 126 511 b 147 914 156 651 160 783 b 133 986 144 939 139 963 b 111 993 131 999 119 1001 b 44 926 89 971 67 949 b 39 900 36 919 35 911 b 50 843 43 881 47 863 b 39 456 68 713 61 583 b 14 351 33 421 22 389 z "},"5":{"ha":606,"x_min":0,"x_max":0,"o":"m 97 997 b 28 928 72 972 50 950 b 31 889 10 911 10 910 b 36 871 35 883 38 878 b 39 822 33 854 36 839 b 99 399 58 681 78 540 b 122 390 103 382 111 379 b 232 522 164 431 208 467 b 322 579 247 561 282 579 b 478 435 397 579 456 499 b 465 190 507 351 503 269 b 419 158 457 171 442 161 b 344 194 388 154 363 168 b 311 286 325 222 315 253 b 299 383 306 318 303 351 b 285 389 299 390 289 393 b 268 374 279 383 274 379 l 238 342 b 221 326 232 338 226 332 b 206 282 207 314 203 300 b 224 161 210 242 214 200 b 321 63 236 117 268 63 b 415 108 356 63 390 85 b 499 192 443 135 471 163 b 586 476 578 271 604 367 b 410 674 571 560 507 674 b 285 610 361 674 318 643 b 215 540 261 588 239 564 b 192 528 208 535 204 524 b 183 549 183 531 185 542 b 182 560 183 553 182 556 l 178 582 b 176 593 178 586 178 589 b 144 817 167 668 156 742 b 164 835 142 833 149 839 b 296 829 208 825 251 828 b 365 861 324 831 347 839 b 411 907 379 876 396 892 b 419 928 415 911 424 917 b 340 921 392 922 365 921 b 97 997 254 921 175 946 z "},"6":{"ha":472,"x_min":0,"x_max":0,"o":"m 167 488 b 108 783 128 582 108 681 b 111 793 108 788 110 792 b 119 794 113 794 118 796 b 143 771 128 788 136 779 b 267 688 167 746 228 688 b 299 711 276 688 283 696 b 319 732 306 718 313 725 b 329 742 322 735 326 739 l 347 761 b 357 771 351 764 354 768 b 310 801 349 793 324 789 b 263 838 294 814 278 824 b 190 924 235 863 211 892 b 168 957 183 935 176 946 b 139 960 160 968 149 969 b 89 913 122 944 107 926 b 15 726 28 863 21 799 b 71 399 10 614 29 504 b 78 357 76 386 86 374 b 83 346 76 353 76 347 b 110 317 103 346 104 328 b 324 93 140 261 253 93 b 357 110 335 93 346 99 b 431 183 382 133 406 158 b 453 226 443 194 450 208 b 457 285 456 246 460 265 b 440 392 451 321 447 356 b 324 593 429 444 393 593 b 190 499 279 593 221 532 b 167 488 185 493 179 488 z m 353 225 b 331 239 342 222 338 232 b 192 435 272 296 226 361 b 203 486 181 456 185 471 b 235 499 211 494 222 499 b 257 493 242 499 250 497 b 285 467 269 488 279 478 b 357 239 325 396 346 319 b 353 225 358 233 358 229 z "},"7":{"ha":539,"x_min":0,"x_max":0,"o":"m 332 58 b 400 122 358 75 376 101 b 414 174 417 136 419 153 b 378 467 390 269 383 368 b 422 513 376 513 374 514 b 450 518 432 513 442 510 b 522 592 475 542 499 567 b 517 607 526 596 522 606 b 492 608 508 608 500 608 b 403 603 463 607 433 604 b 381 624 385 601 379 606 b 504 974 389 736 418 893 b 521 1001 513 981 524 986 b 501 997 514 1000 507 999 b 242 981 415 979 329 971 b 135 993 206 985 171 989 b 93 983 119 994 106 996 b 75 965 88 978 81 971 l 39 928 b 21 910 33 922 26 917 b 18 883 13 901 13 893 b 86 772 43 849 65 813 b 174 863 97 782 174 851 b 201 885 171 888 188 885 b 379 894 261 883 319 883 b 411 890 390 897 401 899 b 294 611 343 842 308 696 b 274 589 292 600 288 589 b 207 553 244 589 225 572 b 168 514 194 539 181 526 b 160 493 164 508 156 503 b 203 496 174 489 189 494 b 263 501 222 499 242 500 b 283 483 279 503 285 499 b 285 356 279 440 283 397 b 332 58 286 313 303 83 z m 411 893 b 411 893 411 896 414 893 z m 411 892 b 411 892 411 892 411 892 z "},"8":{"ha":613,"x_min":0,"x_max":0,"o":"m 389 58 b 457 58 411 58 435 57 b 518 85 481 61 501 67 b 535 103 524 92 529 97 l 569 140 b 586 158 575 146 581 153 b 586 211 603 176 601 189 b 563 238 579 221 572 229 b 399 367 511 285 456 328 b 361 432 375 383 361 403 b 358 674 361 513 356 593 b 364 860 361 735 363 797 b 353 953 365 890 364 922 b 290 993 342 982 321 994 b 175 938 247 988 207 968 b 58 813 133 899 94 857 b 18 653 22 768 8 714 b 108 464 26 583 69 519 b 113 428 118 451 119 442 b 74 325 97 394 83 361 b 65 214 64 289 60 251 b 221 78 76 129 146 94 b 389 58 276 64 332 57 z m 264 488 b 261 489 263 489 261 489 l 253 493 b 250 494 253 493 251 494 b 213 551 235 511 214 526 b 131 664 178 565 146 631 b 106 803 110 708 97 754 b 107 813 106 807 107 810 b 218 897 115 878 169 896 b 261 869 238 899 251 888 b 272 826 268 856 272 840 b 275 738 274 797 276 767 b 269 532 274 669 272 600 b 264 488 269 518 271 503 z m 417 154 b 271 182 368 157 318 165 b 154 368 175 214 139 271 b 158 388 156 375 156 381 b 169 392 160 392 165 394 b 182 383 175 389 179 386 b 258 315 208 361 233 338 b 279 288 268 308 278 301 b 297 278 281 278 288 276 b 315 271 303 278 310 275 b 444 172 358 239 401 206 b 451 161 447 169 451 165 b 436 154 451 151 443 154 b 417 154 431 153 424 154 z "},"9":{"ha":454,"x_min":0,"x_max":0,"o":"m 14 288 b 199 119 75 226 132 167 b 290 79 221 104 261 79 b 332 99 306 79 319 86 b 394 161 353 119 372 142 b 439 261 425 188 438 222 b 438 360 440 294 442 328 b 226 964 421 501 339 871 b 183 983 210 976 197 983 b 139 961 168 983 154 975 b 68 892 114 939 92 914 b 25 811 44 869 31 843 b 54 521 6 711 18 615 b 114 465 63 496 85 465 b 192 507 144 465 171 488 b 260 571 215 528 238 550 b 282 567 269 581 278 579 b 344 239 313 458 339 350 b 340 188 346 222 347 206 b 289 215 319 192 304 204 b 156 332 240 249 199 290 b 117 369 143 344 131 357 b 94 368 110 376 101 375 b 14 288 69 343 44 318 z m 111 804 b 114 863 113 819 113 840 b 122 872 115 867 117 872 b 135 868 126 872 132 871 b 265 618 190 829 244 679 b 254 583 269 603 267 593 b 253 582 254 583 253 582 l 249 579 b 204 560 231 567 217 560 b 117 735 143 560 122 692 b 111 804 113 756 113 776 z "},"\u0000":{"ha":0,"x_min":0,"x_max":0,"o":""},"\r":{"ha":347,"x_min":0,"x_max":0,"o":""}," ":{"ha":347,"x_min":0,"x_max":0,"o":""},"B":{"ha":632,"x_min":0,"x_max":0,"o":"m 238 164 b 143 283 194 200 175 244 b 69 207 117 256 93 232 b 65 172 57 194 56 189 b 336 -18 125 71 210 -18 b 618 160 458 -18 547 69 b 646 304 653 201 660 251 b 576 421 632 349 610 389 b 406 475 529 468 472 488 b 403 474 404 475 404 475 l 397 472 b 385 476 393 471 389 471 b 424 533 399 496 413 513 b 415 647 446 572 444 613 b 364 700 400 667 383 685 b 271 781 333 728 301 754 b 99 1032 197 844 118 935 b 83 1054 96 1039 94 1047 b 22 993 64 1033 43 1013 b 4 936 3 976 -4 960 b -4 901 8 922 8 911 b -21 847 -21 886 -21 867 b 147 353 -12 678 69 500 l 192 269 b 214 226 199 254 207 240 b 238 164 224 210 233 193 z m 117 736 b 119 736 118 739 118 739 b 117 736 117 736 117 736 z m 254 421 b 129 693 207 508 163 599 b 121 735 124 707 115 719 b 133 729 125 733 129 732 b 274 606 179 689 226 647 b 331 544 294 588 315 568 b 326 443 351 510 351 479 b 275 406 314 426 294 417 b 263 408 271 403 265 404 b 254 421 260 413 257 417 z m 371 83 b 346 231 369 136 363 185 b 285 367 329 278 306 319 b 356 383 310 378 333 383 b 413 374 375 383 394 379 b 557 158 496 344 561 246 b 551 124 556 147 554 135 b 426 76 539 88 458 76 b 371 83 408 76 390 78 z "},"A":{"ha":511,"x_min":0,"x_max":0,"o":"m 425 -18 b 481 36 446 3 461 21 b 526 121 507 60 519 89 b 522 243 535 163 533 203 b 493 326 514 272 497 297 b 469 357 492 338 476 346 b 338 558 429 426 383 492 b 158 960 256 679 181 814 b 150 1036 154 985 153 1011 b 139 1035 146 1036 142 1036 b 79 976 119 1015 100 996 b 57 929 65 964 58 949 b 58 742 51 867 53 804 b 99 519 67 667 83 593 b 124 374 110 471 119 422 b 100 344 124 351 122 347 b 14 290 60 338 40 318 l -3 275 b -10 267 -4 272 -7 269 b -19 246 -15 261 -24 256 b 14 249 -8 242 3 247 b 96 263 42 254 68 260 b 119 239 118 265 124 260 b 68 60 111 176 94 117 b 58 22 63 49 51 38 b 101 61 76 32 88 49 b 167 158 133 88 154 121 b 199 246 178 188 189 217 b 224 264 203 260 210 265 b 336 251 261 260 299 257 b 414 190 392 243 392 243 b 419 176 415 186 418 182 b 428 18 440 125 444 72 b 425 -18 425 8 418 0 z m 215 493 b 224 492 221 493 224 493 b 306 375 254 456 279 415 b 299 361 310 369 306 361 b 296 361 299 361 297 361 l 292 360 b 226 365 268 361 247 363 b 221 426 214 385 222 406 b 215 493 218 447 217 469 z "},"C":{"ha":493,"x_min":0,"x_max":0,"o":"m 411 161 b 385 172 399 158 392 167 b 307 256 354 196 329 225 b 76 828 208 394 76 650 b 86 858 76 839 72 853 b 115 846 99 864 107 853 b 254 617 178 800 229 686 b 268 579 258 604 263 592 b 285 576 271 572 279 572 b 304 596 292 583 297 589 l 343 633 b 363 651 350 639 356 646 b 369 692 375 663 376 675 b 346 840 351 739 346 790 b 347 960 344 881 346 919 b 347 989 347 969 347 979 b 342 996 347 992 344 994 b 247 906 324 996 260 922 b 197 947 231 919 214 935 b 151 963 183 957 168 963 b 99 939 133 963 115 956 b 36 876 78 918 58 896 b -19 749 -3 842 -17 799 b -4 632 -21 710 -14 671 b 292 79 38 464 154 196 b 376 40 314 61 346 40 b 418 60 392 40 406 46 b 471 111 435 78 451 96 b 513 221 506 140 517 178 b 507 256 511 232 510 244 b 450 489 493 335 472 413 b 435 507 447 496 446 506 l 431 507 b 365 443 407 485 386 463 b 354 399 350 429 350 417 b 400 228 371 342 386 285 b 411 161 406 206 413 183 z "},"D":{"ha":592,"x_min":0,"x_max":0,"o":"m 249 153 b 221 186 232 161 228 175 b 172 310 200 225 186 267 b 158 351 168 324 164 338 b 142 356 156 358 147 360 b 69 282 118 332 93 307 b 65 260 63 276 63 268 b 125 99 83 206 99 150 b 271 -18 156 42 199 -18 b 578 197 388 -18 507 117 b 586 210 581 201 583 206 b 601 344 614 251 619 297 b 483 507 575 407 532 461 b 356 629 442 549 399 589 b 221 761 310 672 264 715 b 74 1040 147 840 96 932 b 69 1053 74 1044 71 1049 b 53 1046 63 1054 57 1050 b -7 988 32 1026 13 1006 b -19 947 -19 975 -22 964 b 17 835 -11 908 1 871 b 26 797 21 822 31 811 b 35 740 19 776 28 758 b 107 553 58 678 82 615 b 236 201 154 436 200 321 b 249 153 240 186 244 171 z m 249 543 b 426 376 276 533 401 404 b 496 281 453 346 478 315 b 517 200 508 256 518 229 b 467 113 515 163 504 129 b 440 99 457 108 449 101 b 394 85 425 92 410 79 b 378 126 378 90 382 113 b 253 514 340 257 304 388 b 249 543 250 524 243 532 z "},"E":{"ha":546,"x_min":0,"x_max":0,"o":"m 463 129 b 121 492 332 164 172 365 b 131 504 118 500 122 504 b 175 492 146 506 160 499 b 268 449 206 479 238 464 b 294 450 278 444 288 442 b 358 524 317 474 338 499 b 354 540 364 529 360 536 b 322 567 344 550 333 558 b 147 765 258 619 186 692 b 175 750 163 767 167 756 b 251 686 200 729 225 707 b 286 686 267 674 275 675 b 344 753 306 708 324 731 b 349 793 354 764 356 776 b 340 822 346 801 343 813 b 299 1003 319 881 304 942 b 290 1015 299 1006 296 1007 b 221 935 267 988 242 963 b 215 913 217 929 218 919 b 206 892 214 906 219 896 b 136 961 183 914 160 939 b 88 1001 121 975 104 989 b 57 1000 76 1010 65 1008 b 4 940 39 981 24 958 b -15 853 -22 917 -25 888 b -7 824 -12 843 -10 833 b 100 618 18 751 54 683 b 100 569 117 596 124 596 b 88 556 96 565 92 560 l 63 528 b 50 514 58 524 54 518 b 33 415 25 486 21 453 b 438 21 72 289 286 21 b 489 40 458 21 475 26 b 544 103 507 61 524 85 b 556 192 571 128 569 158 b 546 215 553 200 550 208 b 444 407 513 279 479 344 b 415 415 435 426 428 428 b 385 381 406 403 394 392 b 378 289 344 332 346 347 b 463 129 404 239 431 189 z "},"F":{"ha":569,"x_min":0,"x_max":0,"o":"m 75 358 b 97 328 83 346 90 336 b 231 156 142 269 186 213 b 304 69 254 126 279 97 b 365 21 314 57 349 21 b 407 50 378 21 397 40 l 438 82 b 454 97 443 88 449 93 b 474 154 472 113 478 132 b 467 197 472 169 471 183 b 436 286 457 228 447 257 b 325 544 403 374 364 458 b 307 594 318 561 308 576 b 346 594 321 600 333 597 b 431 592 374 590 401 590 b 500 622 457 592 481 600 b 544 668 513 639 529 653 b 551 685 549 672 556 676 b 528 688 544 690 536 688 b 261 728 436 681 349 701 b 235 747 250 731 240 735 b 186 858 218 783 200 821 b 211 863 196 867 204 864 b 353 851 258 854 306 851 b 467 856 390 851 429 853 b 536 886 494 857 518 864 b 582 932 550 903 567 917 b 588 954 586 938 594 942 b 581 953 585 954 583 954 l 565 953 b 558 951 564 951 561 951 b 453 944 522 947 488 944 b 133 1004 385 944 193 965 b 76 1024 115 1017 94 1015 b 58 1019 69 1026 63 1025 b -21 940 31 994 3 968 b 1 924 -14 931 -7 926 b 43 881 24 917 35 903 b 97 754 60 838 78 796 b 90 710 104 736 106 724 b 67 685 82 703 74 694 b 69 669 61 679 63 672 l 94 658 b 119 650 103 656 111 653 b 158 615 139 644 150 633 b 192 539 169 590 181 564 l 261 386 b 294 310 272 361 283 335 b 294 286 299 303 304 296 b 279 306 290 293 285 299 l 250 344 b 176 438 225 375 200 407 b 156 439 169 444 163 444 b 75 358 129 413 104 388 z "},"G":{"ha":583,"x_min":0,"x_max":0,"o":"m 328 842 b 285 878 306 853 296 867 b 221 932 263 896 243 915 b 174 958 207 943 190 953 b 138 967 161 964 149 967 b 83 942 118 967 100 958 b 21 879 64 921 43 899 b -19 772 -11 850 -21 814 b 53 513 -10 682 19 597 b 75 454 61 493 63 469 b 114 386 92 432 101 408 b 428 32 174 275 297 74 b 460 26 439 28 450 26 b 510 49 478 26 494 32 b 575 115 531 72 553 94 b 599 182 594 133 603 157 b 543 333 593 236 569 286 b 492 418 526 361 508 389 b 500 449 478 439 478 442 b 542 474 517 453 531 461 b 594 526 558 492 576 508 b 601 546 599 531 607 535 b 397 515 533 531 465 521 b 197 536 329 508 263 517 b 168 558 185 540 174 544 b 79 829 128 646 94 733 b 82 863 76 839 74 851 b 192 783 113 860 172 804 b 326 639 238 736 282 686 b 363 599 338 625 350 611 b 392 597 375 588 382 586 b 458 663 415 619 436 642 b 469 699 469 674 472 685 b 467 707 469 701 468 704 l 463 724 b 460 732 461 726 461 729 b 422 994 435 817 418 904 b 411 1010 422 1000 424 1007 b 350 949 392 990 372 969 b 329 901 335 936 329 921 b 328 842 329 883 328 865 z m 492 142 b 250 415 410 179 275 333 b 258 419 253 417 256 419 b 372 363 347 419 321 436 b 461 221 406 317 435 269 b 492 142 472 197 486 175 z "},"H":{"ha":647,"x_min":0,"x_max":0,"o":"m 72 1025 b 4 957 49 1000 26 978 b -11 908 -12 943 -15 926 b -6 885 -10 900 -7 893 l 7 836 b 13 813 8 829 11 821 b 139 414 49 678 93 546 b 149 376 143 401 150 390 b 119 396 133 376 128 389 b 82 428 106 406 94 417 b 56 426 72 435 64 433 b -21 350 31 400 6 375 b 274 60 -18 347 272 61 b 324 106 293 72 307 90 b 344 206 374 157 369 142 b 325 257 339 222 332 239 l 288 357 b 268 408 281 375 275 392 b 257 442 264 419 260 431 b 268 457 254 450 260 458 b 382 456 307 457 344 456 b 419 428 410 456 411 456 b 422 419 421 425 421 422 l 428 403 b 431 394 429 400 429 397 b 564 35 468 272 515 153 b 586 0 569 24 571 8 b 653 65 608 22 629 44 b 663 117 671 81 671 96 b 547 415 621 215 581 314 b 571 521 524 486 519 467 b 575 525 572 522 574 524 l 586 535 b 606 561 593 542 601 550 b 519 554 575 564 547 556 b 500 565 511 554 504 557 b 493 589 497 574 494 581 b 418 944 461 706 432 825 l 413 994 b 410 1018 411 1001 411 1010 b 403 1035 408 1025 411 1033 b 386 1026 396 1036 390 1031 b 358 999 376 1017 368 1007 b 318 882 310 949 311 949 b 376 582 331 781 351 681 b 374 553 378 574 383 564 b 239 561 329 550 285 560 b 204 589 218 561 210 572 b 88 976 161 717 119 844 b 72 1025 85 990 85 1006 z "},"I":{"ha":375,"x_min":0,"x_max":0,"o":"m 65 39 b 89 35 79 36 83 35 b 192 44 122 38 157 46 b 292 51 225 42 258 53 b 335 72 310 51 324 60 b 388 125 351 90 369 107 b 393 143 392 129 397 133 b 342 144 378 149 360 144 b 285 181 304 143 301 135 b 140 635 231 329 182 481 b 131 682 136 650 133 667 b 144 693 128 693 133 697 b 167 696 153 689 160 689 b 222 751 186 714 204 732 b 243 781 231 758 242 765 b 108 943 182 821 143 879 b 75 1001 97 963 97 989 b 25 954 54 989 42 969 b -4 926 15 946 6 936 b -19 888 -15 917 -21 903 b -18 876 -19 883 -18 881 l -17 854 b -15 843 -17 850 -17 847 b 17 669 -4 785 4 726 b 164 164 54 497 106 329 b 171 136 167 156 171 144 b 149 121 169 124 154 128 b 65 39 122 96 97 71 z "},"J":{"ha":492,"x_min":0,"x_max":0,"o":"m -21 875 b 31 875 0 875 15 875 b 85 875 49 875 67 876 b 115 850 107 874 110 869 b 288 317 154 667 217 490 b 301 281 292 304 297 292 b 290 265 306 269 301 264 b 286 265 289 265 288 265 b 239 271 271 269 254 271 b 153 247 211 271 182 264 b 151 514 169 338 176 424 b 99 464 129 496 114 479 b 68 432 88 454 78 443 b 63 404 60 424 61 414 b 72 336 67 381 69 358 b 31 113 79 257 71 182 b 33 100 29 110 32 106 b 90 157 53 119 72 138 b 139 178 104 171 119 176 b 225 161 168 179 197 171 b 401 39 294 135 347 88 b 422 28 411 31 417 28 b 439 38 426 28 432 31 b 503 100 461 58 481 81 b 508 132 511 110 514 119 l 496 158 b 236 822 388 369 303 594 b 258 858 229 850 229 850 b 272 863 263 860 268 860 b 350 946 297 889 326 914 b 331 954 342 949 336 953 b 144 969 268 961 207 969 b 13 914 67 968 67 969 b -21 875 1 903 -12 893 z "},"K":{"ha":661,"x_min":0,"x_max":0,"o":"m -15 313 b -15 292 -22 307 -22 299 b -14 290 -15 292 -14 290 l -10 286 b -7 285 -8 286 -8 286 b 40 240 8 269 25 254 l 133 149 b 181 104 150 135 165 119 b 218 72 193 93 206 82 b 240 61 228 65 233 61 b 261 74 246 61 251 65 b 319 132 281 93 299 114 b 336 186 338 147 342 165 b 311 276 328 215 319 246 b 268 417 297 322 282 369 b 275 453 264 431 264 442 b 361 572 308 489 333 532 b 379 596 368 581 374 589 b 383 597 379 597 382 599 b 390 593 386 597 390 594 b 390 585 390 590 390 588 l 392 567 b 540 75 392 383 421 221 b 582 32 553 60 568 46 b 608 33 590 25 599 25 b 657 82 624 50 640 65 b 682 117 665 92 679 100 b 506 436 588 204 535 314 b 485 681 488 517 481 597 b 488 739 486 700 488 719 b 481 751 488 743 485 750 b 468 747 478 753 471 750 b 351 615 426 706 382 667 b 306 544 338 590 321 568 b 288 532 301 539 299 531 b 288 547 288 538 286 542 b 331 824 310 638 324 731 b 332 1011 336 886 336 949 b 325 1022 332 1015 329 1021 b 313 1018 322 1024 315 1021 b 257 964 294 1000 276 982 b 238 915 242 950 236 936 b 239 828 239 886 239 857 b 225 626 239 760 233 693 b 218 614 224 622 221 615 b 207 625 208 611 208 621 b 118 953 174 735 143 843 b 101 996 115 967 115 982 b 46 942 83 978 65 958 b 22 869 19 922 13 899 l 26 854 b 94 597 44 768 69 683 b 172 333 119 510 146 421 b 172 292 176 319 183 306 b 67 394 142 331 104 360 b -15 313 36 368 10 340 z m 174 290 b 172 292 174 290 172 292 b 174 290 174 292 174 290 z m 175 292 b 175 292 174 288 176 290 z "},"L":{"ha":568,"x_min":0,"x_max":0,"o":"m 503 43 b 554 94 522 63 539 78 b 568 181 600 142 596 126 b 449 542 510 294 460 411 b 436 549 449 550 440 553 b 379 494 417 531 399 511 b 357 428 357 476 353 454 b 396 265 364 372 378 318 b 407 222 400 253 408 239 b 296 213 369 218 332 215 b 278 225 286 211 281 218 b 258 286 271 246 264 265 b 108 826 211 468 160 647 b 78 946 97 867 88 907 b 67 978 75 956 82 969 b -14 899 38 953 13 925 b -19 871 -21 890 -22 881 b 3 779 -12 840 -6 810 b 119 363 42 640 81 501 b 163 201 135 310 149 256 b 150 175 167 185 165 179 b 99 139 128 168 113 154 b 53 93 83 124 68 108 b 50 78 49 89 42 85 b 88 88 63 78 75 83 b 158 107 110 94 133 101 b 186 108 167 110 182 113 b 204 100 193 101 199 100 b 228 113 213 100 219 106 b 254 122 235 121 244 121 b 411 115 307 126 360 125 b 490 61 467 104 460 118 b 503 43 492 57 496 53 z "},"M":{"ha":713,"x_min":0,"x_max":0,"o":"m 303 615 b 168 897 250 706 207 800 b 135 976 158 924 158 956 b 71 917 110 961 93 935 b 51 860 51 901 47 883 b 96 483 67 735 82 610 b 96 446 97 471 103 458 b 64 465 81 458 72 465 b -21 382 49 465 -12 394 b 126 81 33 283 79 182 b 143 50 132 69 136 60 b 163 46 147 42 157 40 b 224 104 183 65 203 86 b 247 165 243 121 250 140 b 239 240 244 190 242 215 l 226 319 b 215 399 224 346 219 372 l 204 478 b 199 517 203 490 200 504 b 221 496 214 515 215 504 b 283 385 242 460 261 422 b 314 381 293 368 300 368 b 374 439 333 400 353 421 b 396 492 389 454 396 469 b 396 619 394 533 396 576 b 396 625 396 621 396 622 l 397 633 b 397 639 397 636 397 638 b 401 640 397 640 400 640 b 406 640 403 640 406 640 b 414 622 408 635 413 629 b 619 86 465 438 538 260 b 647 43 633 57 639 43 b 685 75 654 43 664 54 b 706 193 746 139 743 113 b 451 947 592 435 504 685 b 432 1013 447 969 447 993 b 378 967 406 1007 396 982 b 372 963 376 965 374 964 l 361 951 b 356 947 360 950 358 949 b 332 900 342 935 335 919 b 315 749 328 849 321 799 b 303 615 311 708 308 668 z "},"N":{"ha":631,"x_min":0,"x_max":0,"o":"m 103 417 b 90 418 99 417 93 415 b 63 442 81 425 79 444 b 33 418 50 440 43 426 b -12 372 18 403 3 388 b -15 342 -22 363 -22 353 l 131 90 b 147 67 135 82 142 74 b 164 65 151 60 158 60 b 211 110 181 79 196 94 b 244 208 253 151 253 151 b 243 218 244 211 244 215 b 232 285 240 240 236 263 l 211 418 b 188 572 203 469 194 521 b 207 554 201 569 204 561 b 538 58 304 381 419 218 b 556 35 543 50 549 43 b 574 35 561 29 568 29 b 643 104 596 57 619 81 b 649 131 651 111 653 121 b 642 143 646 135 643 139 b 450 897 524 381 461 632 b 450 1000 449 931 450 965 b 444 1011 450 1004 451 1011 b 432 1007 440 1011 435 1010 b 418 994 428 1003 424 999 l 393 968 b 354 899 369 950 356 929 b 379 575 350 790 361 682 b 389 513 382 556 386 535 b 361 544 371 521 368 533 b 144 986 275 685 203 832 b 126 1013 138 1004 132 1013 b 103 996 121 1013 114 1007 b 61 954 89 982 75 967 b 38 889 39 938 33 915 b 43 846 40 875 42 860 l 54 758 b 60 714 56 743 58 729 b 103 417 74 614 89 515 z "},"O":{"ha":492,"x_min":0,"x_max":0,"o":"m -21 613 b -10 510 -17 578 -14 543 b 203 106 11 361 81 199 b 321 56 233 81 281 56 b 400 96 350 56 375 68 b 463 171 421 121 442 146 b 506 264 486 199 499 229 b 499 440 518 324 511 382 b 289 876 464 603 392 747 b 164 985 261 910 207 971 b 143 989 157 988 150 989 b 111 972 131 989 119 983 l 86 940 b 60 911 78 931 69 921 b 32 817 33 885 25 853 b 19 772 36 799 32 785 b -12 696 0 750 -8 725 b -21 613 -17 668 -19 640 z m 72 654 b 94 615 88 644 89 629 b 222 354 133 526 176 440 b 240 325 226 344 233 335 b 253 325 243 322 250 321 b 322 408 276 353 300 381 b 322 426 326 414 325 421 b 161 764 261 533 206 649 b 139 833 153 786 143 810 b 163 822 151 835 157 828 b 408 363 282 692 367 535 b 425 221 419 317 426 269 b 422 186 424 210 424 199 b 383 158 419 160 410 153 b 110 468 254 185 150 353 b 71 640 89 524 78 582 b 71 643 71 642 71 643 l 72 651 b 72 654 72 651 72 653 z "},"P":{"ha":401,"x_min":0,"x_max":0,"o":"m 169 267 b 144 281 157 265 151 275 b 97 324 129 294 113 310 b 72 324 89 332 81 332 b 3 253 49 300 25 276 b 4 232 -4 246 -3 239 b 22 215 10 226 15 221 b 263 -18 104 140 185 63 b 283 -39 268 -25 275 -32 b 310 -37 292 -46 301 -46 b 379 32 333 -15 356 8 b 385 63 389 40 390 51 l 356 136 b 296 286 336 186 317 236 b 303 336 288 306 289 319 b 361 403 324 357 343 379 b 401 458 376 419 389 439 b 403 590 426 501 428 546 b 368 643 393 608 381 626 b 288 743 342 676 315 710 b 76 1096 203 850 117 964 b 67 1115 75 1103 76 1113 b 40 1094 54 1113 49 1101 b -12 1042 22 1076 6 1060 b -18 1010 -21 1033 -21 1022 b 14 922 -11 979 1 950 b 11 894 18 913 19 903 b 0 844 -3 881 -3 864 b 31 696 6 794 17 744 b 157 313 65 565 110 439 b 169 267 161 297 171 283 z m 156 693 b 172 678 163 688 168 683 b 263 567 203 642 233 604 b 303 511 276 549 290 531 b 296 356 338 458 332 406 b 281 343 292 350 289 344 b 269 357 272 343 271 351 b 156 676 228 461 190 568 b 156 693 154 681 156 686 z "},"Q":{"ha":682,"x_min":0,"x_max":0,"o":"m 703 121 b 669 135 693 132 681 133 b 503 143 614 142 560 143 b 486 151 496 143 489 144 b 464 211 476 169 465 188 b 518 208 483 215 501 213 b 589 231 547 203 571 208 b 624 267 600 244 613 254 b 632 356 661 304 671 303 b 354 846 515 503 411 665 b 321 1014 336 900 321 956 b 315 1024 321 1019 319 1025 b 225 938 285 994 254 967 b 203 986 210 951 213 971 b 183 992 197 996 190 999 b 121 929 163 971 143 949 b 94 878 106 915 97 899 b 82 794 90 850 86 822 b 17 407 63 665 43 535 b -18 232 4 349 -8 290 b 25 190 -26 189 -17 181 b 244 221 97 206 169 217 b 351 150 340 224 315 235 b 351 149 351 150 351 150 l 353 147 b 353 146 353 147 353 146 b 342 128 356 135 350 129 b 335 126 339 128 338 128 l 319 126 b 313 125 318 125 315 125 b 117 96 247 115 182 106 b 85 85 106 94 94 93 b 71 72 81 81 76 76 l 46 46 b 32 33 40 42 36 38 b 8 3 24 24 11 17 b 17 0 11 1 14 0 b 364 44 132 17 247 33 b 392 43 374 46 389 47 b 413 29 399 33 406 29 b 440 43 421 29 431 38 b 469 47 447 49 460 47 b 592 38 510 46 551 47 b 625 40 603 35 615 31 b 703 121 651 65 681 90 z m 158 717 b 285 318 201 583 243 450 b 258 310 278 308 268 311 b 118 285 213 301 165 293 b 89 282 108 283 99 282 b 74 299 79 282 74 289 b 76 328 74 308 75 318 b 147 689 103 447 126 568 b 158 717 149 697 147 708 z m 328 582 b 328 582 326 583 331 585 z m 329 582 b 329 581 329 582 329 581 b 329 582 329 581 329 582 z m 488 318 b 450 315 476 311 463 317 b 404 347 425 313 411 322 b 336 542 383 413 360 478 b 331 579 332 554 329 567 b 407 450 354 536 379 493 l 451 383 b 474 349 458 371 467 360 b 488 318 479 339 490 332 z "},"R":{"ha":679,"x_min":0,"x_max":0,"o":"m 396 314 b 410 338 393 326 404 331 b 463 403 428 360 446 381 b 457 538 497 454 496 490 b 408 593 442 557 425 575 b 299 707 372 631 335 668 b 96 1029 222 792 129 917 b 82 1090 90 1050 88 1071 b 71 1088 76 1089 74 1090 b 14 1033 53 1069 35 1050 b -4 963 -10 1014 -14 990 b 25 879 4 935 14 907 b 18 844 31 865 29 854 b 0 783 -6 829 -6 808 b 36 640 13 736 22 688 b 160 267 69 514 114 389 b 168 222 165 253 174 240 b 64 300 132 246 103 278 b -12 222 38 274 13 247 b -11 197 -22 213 -22 207 b 4 185 -7 193 -1 189 b 242 -22 86 119 167 51 b 247 -26 243 -24 244 -25 l 256 -35 b 261 -39 258 -36 260 -37 b 283 -53 272 -49 278 -53 b 306 -39 290 -53 296 -49 b 361 17 324 -19 342 0 b 372 65 376 32 381 46 b 335 157 360 96 347 126 b 331 168 333 161 332 165 l 321 192 b 317 203 319 196 318 199 b 331 218 314 210 322 219 b 457 129 379 215 426 164 b 485 99 467 119 475 108 l 540 36 b 568 4 550 25 558 15 b 600 -28 579 -7 589 -17 b 625 -26 608 -36 617 -35 b 692 40 647 -4 669 18 b 689 69 701 51 701 56 b 599 167 658 101 629 133 b 511 261 569 199 542 231 b 396 314 469 303 453 310 z m 300 244 b 149 667 240 388 190 525 b 167 658 160 668 164 663 b 325 490 217 599 271 544 b 372 433 342 472 358 453 b 378 333 397 401 400 368 b 300 244 357 301 335 272 z "},"S":{"ha":569,"x_min":0,"x_max":0,"o":"m 100 469 b 36 389 79 443 56 417 b 25 308 19 364 17 338 b 67 226 33 278 47 250 b 360 15 146 129 242 58 b 431 0 382 6 406 0 b 503 26 458 -1 483 6 b 576 119 528 57 553 88 b 586 179 590 138 593 157 b 454 386 569 246 499 335 b 315 546 408 440 363 493 b 144 772 290 575 147 742 b 167 763 156 776 161 768 b 285 658 206 729 246 693 b 325 631 296 649 307 635 b 357 669 336 644 347 657 b 389 814 415 746 413 715 b 356 1018 371 882 357 949 b 347 1038 356 1025 361 1035 b 289 965 329 1014 310 989 b 274 921 278 953 272 938 b 275 876 274 906 275 890 b 268 856 274 869 279 860 b 236 876 254 858 246 869 b 140 946 204 900 172 924 b 97 971 126 956 113 964 b 81 975 92 974 86 975 b 58 963 72 975 65 971 b 42 943 53 956 47 949 l 10 901 b -7 882 4 896 -1 889 b -18 831 -19 867 -24 849 b 196 486 13 711 117 579 b 376 278 257 417 317 347 b 489 111 401 249 483 149 b 454 114 476 104 465 110 b 143 338 328 156 225 232 b 108 469 113 376 99 419 b 100 469 104 469 101 471 z m 108 471 l 108 469 b 110 469 108 469 110 469 b 108 471 110 469 108 471 z "},"T":{"ha":689,"x_min":0,"x_max":0,"o":"m 386 326 b 388 290 392 308 396 294 b 382 294 386 292 385 293 l 374 301 b 368 306 371 303 369 304 b 339 306 354 317 350 317 b 286 253 321 288 304 271 b 289 201 260 226 258 228 b 481 25 357 146 422 89 b 525 -18 494 10 504 -18 b 572 24 544 -17 557 8 b 600 51 582 32 590 42 b 608 86 611 61 615 72 b 594 118 603 96 600 107 b 365 799 503 338 421 567 b 381 813 363 813 368 817 b 551 765 438 794 493 775 b 576 743 564 763 571 756 b 606 675 586 721 596 699 b 626 646 610 665 613 654 b 699 717 651 668 675 693 b 706 751 710 728 713 738 b 656 874 689 792 671 833 b 607 1033 635 926 617 979 b 596 1056 606 1040 610 1051 b 533 994 575 1036 556 1014 b 514 933 515 978 507 960 b 513 896 518 922 524 908 b 485 903 504 897 494 900 b 271 992 413 928 342 958 b 190 1025 244 1004 218 1015 b 156 1031 178 1029 167 1031 b 86 1000 129 1031 107 1021 b 17 931 63 976 40 953 b -19 832 -12 903 -22 869 b 31 658 -15 771 6 714 b 51 654 35 649 43 647 b 111 713 71 674 90 693 b 121 760 126 726 129 740 b 81 881 103 799 89 839 b 81 938 76 899 71 915 b 256 863 142 919 196 888 b 257 771 243 831 250 800 b 336 475 278 671 306 572 z "},"U":{"ha":642,"x_min":0,"x_max":0,"o":"m -21 592 b 22 625 1 600 10 614 b 68 669 38 640 51 656 b 83 667 72 675 81 675 l 96 624 b 222 256 135 500 172 376 b 315 96 240 214 279 125 b 340 85 324 89 332 85 b 364 96 347 85 356 89 b 431 163 386 118 407 140 b 464 226 449 179 460 200 b 471 289 465 247 468 268 b 478 311 472 296 467 306 b 492 286 488 306 489 296 b 560 117 514 231 536 174 b 581 90 564 107 565 96 b 650 158 603 113 626 136 b 657 201 665 172 664 185 b 418 925 558 435 471 676 b 404 942 417 932 414 938 b 346 885 386 924 367 903 b 324 819 325 867 321 847 b 378 286 350 643 369 465 b 376 251 378 275 378 263 b 369 246 376 250 372 247 b 365 249 368 246 367 247 b 349 278 360 258 353 268 b 274 460 318 336 294 397 b 146 864 225 593 188 728 b 119 938 138 889 129 913 b 92 944 113 956 104 957 b 32 886 71 925 51 906 b 4 831 15 871 7 853 b -21 592 -3 751 -11 674 z "},"V":{"ha":561,"x_min":0,"x_max":0,"o":"m 354 419 b 328 464 338 436 333 450 b 99 921 257 619 181 771 b 79 956 93 933 86 944 b 56 961 72 967 65 969 b 38 943 50 956 44 950 l 4 908 b -14 890 -3 903 -8 896 b -17 868 -21 885 -21 876 b 354 86 124 622 253 350 b 382 38 360 69 363 51 b 449 103 404 60 425 83 b 472 168 469 121 475 143 b 449 601 463 313 454 457 b 447 683 447 626 447 651 b 499 604 475 660 474 626 b 569 675 524 629 546 651 b 576 718 583 688 585 700 b 493 901 547 779 521 842 b 447 992 479 932 475 968 b 372 921 419 972 399 944 b 354 872 357 908 356 892 b 354 547 351 764 350 656 b 354 419 354 507 354 467 z "},"W":{"ha":899,"x_min":0,"x_max":0,"o":"m -17 615 b 50 681 6 638 26 660 b 99 764 75 701 75 736 b 111 718 103 744 108 732 b 329 107 160 508 236 300 b 367 51 338 88 344 67 b 443 126 393 75 417 101 b 460 171 457 139 461 153 b 458 194 460 179 458 186 l 454 240 b 453 264 454 249 454 257 b 440 431 449 319 444 375 b 450 444 439 436 439 444 b 475 404 458 432 467 418 b 788 10 536 293 676 76 b 813 -1 799 3 806 -1 b 839 14 821 -1 828 4 b 854 29 844 19 849 24 l 883 58 b 899 74 889 64 893 69 b 914 135 919 92 922 111 b 886 214 904 161 896 189 b 788 450 854 293 819 372 b 606 1022 711 636 640 822 b 592 1029 604 1026 603 1031 b 521 960 569 1008 546 985 b 514 924 511 950 511 938 b 711 317 550 713 629 514 b 729 261 718 299 731 282 b 696 297 713 269 706 285 b 450 746 594 436 513 586 b 433 786 444 758 440 772 b 417 790 431 793 424 794 b 361 735 399 772 381 751 b 332 667 339 717 331 694 b 339 464 336 599 338 532 b 339 417 340 449 339 433 b 321 440 325 421 324 431 b 178 931 260 600 210 763 b 161 1007 174 956 176 983 b 99 956 132 1000 121 972 b 54 876 72 936 61 908 b -18 636 33 796 11 715 b -17 615 -19 631 -24 624 z "},"Y":{"ha":626,"x_min":0,"x_max":0,"o":"m 138 22 b 233 122 176 60 211 85 b 271 149 243 139 256 144 b 321 153 288 151 304 153 b 540 76 400 153 476 121 b 571 79 551 69 561 69 b 633 142 590 100 613 121 b 639 185 650 160 650 161 b 619 225 632 199 625 211 l 578 304 b 558 343 572 317 565 331 b 325 958 464 542 376 743 b 310 963 322 965 314 968 b 249 906 289 944 271 924 b 233 843 228 888 226 867 b 254 778 239 821 246 800 b 251 715 261 757 260 738 b 189 560 229 664 210 613 b 172 536 186 551 183 542 b 164 553 169 542 165 547 b 76 911 126 671 89 788 b 68 926 76 918 76 926 b 51 918 63 926 57 922 b -4 863 33 900 15 881 b -19 818 -18 850 -22 835 b 90 394 1 674 44 533 l 100 372 b 121 368 104 365 115 363 b 181 426 142 388 161 408 b 224 492 201 444 215 467 b 236 525 228 503 232 514 l 263 592 b 275 625 267 603 271 614 b 294 649 279 633 281 643 b 460 260 342 517 400 388 b 460 251 460 258 460 254 b 243 178 317 239 353 253 b 238 272 239 211 240 242 b 224 367 235 303 233 333 b 153 301 194 346 176 321 b 136 253 138 288 135 274 b 138 22 143 181 157 108 z "},"X":{"ha":640,"x_min":0,"x_max":0,"o":"m 71 428 b 121 331 88 394 104 363 b 214 140 154 268 185 204 b 257 39 229 108 236 74 b 329 110 283 63 306 88 b 347 153 342 122 347 135 b 347 257 346 188 347 222 b 353 264 347 258 350 263 b 361 261 356 264 360 264 b 371 250 365 258 368 254 b 542 96 400 211 490 96 b 572 111 553 96 563 101 b 639 176 596 132 617 156 b 660 239 658 194 664 215 b 557 536 647 331 594 451 b 536 560 553 546 551 556 b 471 494 515 539 494 515 b 461 447 456 481 453 468 b 521 301 483 400 501 351 b 524 275 524 294 532 285 b 508 288 515 275 513 282 b 364 499 453 353 407 425 b 353 546 356 514 353 529 b 356 689 354 593 354 640 b 374 990 358 789 356 890 b 351 981 363 993 357 986 b 303 932 335 964 319 947 b 268 819 268 904 268 860 b 264 725 267 788 265 757 b 256 710 264 719 265 713 b 236 742 244 717 242 731 b 213 788 228 757 221 772 l 165 881 b 111 976 149 914 132 946 b 82 979 103 988 92 989 b 65 964 76 975 71 969 l 35 933 b 18 918 29 928 24 924 b -10 853 -1 900 -8 878 b -21 663 -14 789 -7 725 b -14 661 -17 663 -14 660 b 86 757 24 689 51 725 b 97 739 90 750 94 744 b 135 667 110 715 122 690 l 208 522 b 246 450 221 499 233 474 b 254 365 261 422 257 394 b 231 393 238 369 236 383 b 171 506 210 429 190 468 b 150 510 165 514 157 515 b 71 428 122 483 96 457 z "},"Z":{"ha":700,"x_min":0,"x_max":0,"o":"m 633 126 b 710 200 661 147 685 175 b 711 233 724 214 724 219 b 613 386 668 278 638 331 b 524 596 581 456 551 525 b 449 521 496 571 474 544 b 439 482 436 510 432 499 b 456 440 446 469 450 454 b 492 354 467 413 479 383 b 475 317 503 326 503 326 b 307 208 403 289 363 264 b 276 188 299 200 292 186 b 275 215 271 197 274 207 b 506 957 304 440 351 778 l 506 961 b 507 964 507 963 507 964 b 489 964 501 968 494 965 b 467 958 482 963 475 961 l 424 950 b 401 944 417 947 408 946 b 149 917 318 928 233 915 b 92 922 131 917 110 922 b 65 917 82 922 74 921 b 1 857 40 903 22 878 b -10 846 -3 854 -6 850 b -11 813 -24 832 -24 828 b 119 624 39 753 86 694 b 192 696 146 650 169 672 b 199 743 211 715 211 718 b 160 807 186 765 174 785 b 169 826 154 818 157 824 b 185 829 175 828 179 829 b 354 858 242 835 299 847 b 396 863 368 861 382 868 b 394 853 396 858 396 856 b 175 74 246 649 201 321 b 179 67 175 72 178 68 b 189 68 182 65 186 65 b 265 143 214 93 243 115 b 451 231 307 194 385 231 b 600 157 513 231 568 203 b 633 126 608 146 615 132 z "},"º":{"ha":182,"x_min":0,"x_max":0,"o":"m 167 878 b 163 915 168 890 165 903 b 81 1039 150 960 119 1013 b 72 1043 78 1040 75 1042 b 60 1042 68 1046 64 1046 b 54 1038 58 1040 57 1039 l 46 1028 b 40 1024 43 1026 42 1025 b 35 1010 38 1019 35 1015 b 31 997 36 1004 33 1000 b 17 972 22 990 18 982 b 14 951 15 965 14 958 b 46 824 14 906 25 864 b 63 803 51 817 56 810 b 97 785 71 792 83 785 b 119 792 106 785 113 786 b 128 799 121 794 124 796 b 131 799 129 799 129 800 b 138 799 133 796 135 797 b 156 817 143 806 149 811 b 157 825 158 819 158 822 b 157 833 156 828 156 831 b 167 878 165 847 168 863 z m 139 861 b 82 975 117 899 99 936 b 82 983 79 981 79 983 b 89 979 85 985 86 982 b 138 882 113 951 129 918 b 139 861 139 875 140 868 z m 43 976 b 46 972 44 974 44 972 b 115 826 65 921 90 874 b 121 815 118 822 119 818 b 118 811 122 813 121 811 b 96 822 110 813 103 817 b 50 910 74 838 56 885 b 40 967 44 928 42 947 b 43 976 40 969 40 972 z "},"¹":{"ha":153,"x_min":0,"x_max":0,"o":"m 46 785 l 69 789 b 111 788 83 790 97 793 b 117 789 113 788 115 788 b 136 810 124 796 131 803 b 135 815 139 813 138 815 b 117 818 129 818 122 818 b 110 824 113 818 111 819 b 108 831 110 825 108 828 b 74 983 96 881 83 932 l 61 1040 b 56 1042 61 1043 58 1044 b 31 1007 44 1033 31 1021 b 31 1004 31 1007 31 1006 l 29 1000 b 21 950 29 981 25 965 b 14 926 19 943 17 936 b 46 960 26 938 38 946 b 47 953 46 956 47 954 l 68 863 b 71 851 69 860 69 856 l 75 831 b 78 819 76 826 78 824 b 75 813 79 817 79 814 b 46 785 65 807 54 797 z "},"²":{"ha":215,"x_min":0,"x_max":0,"o":"m 79 786 b 85 786 82 785 83 786 b 93 794 88 789 90 792 b 142 814 108 806 124 811 b 172 810 153 814 163 813 b 179 810 175 808 176 807 b 190 821 183 813 188 817 b 201 833 194 825 199 828 b 167 919 179 857 176 889 b 149 901 160 914 154 907 b 143 883 142 897 142 890 b 146 875 144 881 144 878 l 150 858 b 153 850 151 856 153 853 b 154 840 153 847 156 843 b 151 838 153 839 153 839 b 110 815 136 833 122 826 b 107 815 108 815 108 814 b 107 821 107 817 107 819 b 163 1038 117 894 133 969 b 165 1044 164 1039 164 1042 b 161 1050 165 1047 164 1050 b 151 1050 158 1050 154 1050 b 86 1047 129 1049 107 1047 b 51 1050 74 1049 63 1049 b 35 1044 44 1051 39 1050 b 18 1028 29 1039 24 1033 b 15 1015 14 1025 14 1021 b 24 999 18 1010 21 1004 l 39 965 b 47 949 42 960 44 954 b 56 947 50 943 51 943 b 72 964 61 953 67 958 b 74 975 76 967 76 971 b 69 985 72 978 71 982 l 60 1003 b 56 1013 58 1007 57 1010 b 56 1021 56 1015 53 1017 b 60 1021 57 1021 58 1021 b 126 1024 82 1021 104 1021 b 133 1024 129 1024 131 1024 b 138 1018 138 1024 139 1021 b 135 1010 136 1015 135 1013 b 118 968 129 996 124 982 b 79 788 99 910 88 849 z "},"³":{"ha":200,"x_min":0,"x_max":0,"o":"m 96 876 b 93 875 94 876 93 876 b 74 857 86 869 79 863 b 72 847 71 854 71 851 b 107 793 82 826 92 808 b 126 785 114 788 121 785 b 146 793 133 785 140 788 b 168 815 153 800 160 808 b 182 840 175 822 179 831 b 168 929 189 872 183 901 b 161 940 167 933 164 936 b 136 950 154 947 146 950 b 115 943 128 949 121 946 b 89 925 106 939 97 932 b 82 922 88 924 86 921 b 83 924 82 922 82 924 l 83 925 b 146 1021 100 961 121 992 b 149 1024 147 1022 147 1022 l 153 1028 b 154 1031 153 1029 154 1031 l 158 1038 b 156 1042 158 1039 157 1040 b 142 1044 151 1044 146 1044 b 90 1044 125 1044 107 1044 b 40 1029 72 1044 53 1042 b 24 1013 35 1022 29 1017 b 15 983 14 1004 13 994 b 31 947 19 971 24 960 b 36 943 31 946 32 943 b 56 963 42 950 49 957 b 57 974 60 967 58 969 b 42 1011 50 986 46 997 b 46 1015 42 1013 43 1014 l 47 1017 b 49 1017 49 1017 49 1017 b 114 1018 71 1018 93 1019 b 129 1014 119 1018 128 1019 b 121 1000 132 1008 125 1004 b 53 893 93 968 71 932 b 51 886 51 890 50 889 b 58 890 54 886 56 889 b 106 922 71 906 86 915 b 136 911 118 925 128 921 b 158 840 153 894 158 861 b 156 817 158 832 157 825 b 147 813 154 813 151 811 b 114 844 133 815 119 832 b 96 876 108 856 103 865 z "},"…":{"ha":368,"x_min":0,"x_max":0,"o":"m 58 25 b 101 226 124 94 103 143 b 97 233 101 229 100 232 b 89 232 94 235 90 233 b 22 147 65 204 44 175 b 15 119 15 139 13 129 b 24 17 25 86 22 51 b 28 3 25 13 25 7 b 35 0 28 1 35 0 b 40 7 38 3 39 6 l 53 19 b 58 25 54 22 57 24 z m 183 25 b 226 226 249 94 228 143 b 222 233 226 229 224 232 b 213 232 219 235 214 233 b 196 211 207 225 201 218 l 163 168 b 146 147 157 161 151 154 b 140 119 140 139 138 129 b 149 17 149 86 146 51 b 151 3 149 13 150 7 b 160 0 153 1 158 0 b 165 7 163 3 164 6 l 178 19 b 183 25 179 22 182 24 z m 306 25 b 349 226 371 94 350 143 b 344 233 349 229 346 232 b 335 232 342 235 336 233 b 318 211 329 225 324 218 l 285 168 b 268 147 279 161 274 154 b 263 119 263 139 260 129 b 271 17 271 86 268 51 b 274 3 271 13 272 7 b 282 0 275 1 281 0 b 288 7 285 3 286 6 l 300 19 b 306 25 301 22 304 24 z "},",":{"ha":139,"x_min":0,"x_max":0,"o":"m 17 -150 b 15 -167 13 -156 15 -167 b 76 -85 36 -140 56 -112 b 124 36 104 -50 119 -10 b 117 153 126 76 121 114 b 107 168 115 158 111 161 b 36 81 79 140 58 110 b 33 57 31 74 32 65 b 38 28 35 47 36 38 b 17 -150 43 -33 46 -93 z "},":":{"ha":183,"x_min":0,"x_max":0,"o":"m 58 560 b 101 761 124 629 103 678 b 97 768 101 764 99 767 b 88 767 94 769 89 768 b 71 746 82 760 76 753 l 38 703 b 21 682 32 696 26 689 b 15 654 15 674 13 664 b 24 551 24 621 21 586 b 26 538 24 547 25 542 b 35 535 28 536 33 535 b 58 560 43 543 50 553 z m 121 154 b 164 354 186 222 165 271 b 160 361 164 357 161 361 b 150 360 157 363 151 363 b 133 339 144 353 139 346 l 100 296 b 83 275 94 289 89 282 b 78 247 78 267 75 257 b 86 144 86 214 83 179 b 89 131 86 140 88 135 b 97 129 90 129 96 128 b 121 154 106 136 113 146 z "},";":{"ha":175,"x_min":0,"x_max":0,"o":"m 58 560 b 101 761 124 629 104 678 b 97 768 101 764 100 767 b 89 767 94 769 90 768 b 72 746 83 760 78 753 l 39 703 b 22 682 33 696 28 689 b 15 654 15 674 13 664 b 24 551 25 621 22 586 b 28 538 25 547 25 542 b 35 535 28 536 35 535 b 58 560 43 543 50 553 z m 53 61 b 51 44 50 56 51 44 b 114 126 72 71 93 99 b 160 247 142 161 157 201 b 153 364 163 288 158 325 b 144 379 153 369 149 372 b 74 292 117 351 96 321 b 69 268 68 285 68 276 b 69 267 69 268 69 267 l 71 263 b 71 261 71 263 71 263 l 74 246 b 74 244 74 246 74 244 l 75 240 b 75 239 75 240 75 240 b 53 61 81 178 83 118 z "},"/":{"ha":275,"x_min":0,"x_max":0,"o":"m 258 1154 b 168 1060 236 1138 176 1086 l 164 1044 b 51 386 114 826 78 608 b 17 -65 35 236 25 85 b 15 -115 15 -82 15 -99 b 22 -131 15 -121 14 -129 b 39 -122 29 -132 35 -126 b 85 -78 54 -107 68 -92 b 111 -12 106 -60 111 -39 b 126 272 115 82 119 178 b 257 1122 149 547 189 856 b 258 1154 260 1132 264 1142 z "},"\\":{"ha":275,"x_min":0,"x_max":0,"o":"m 17 1154 b 18 1122 11 1142 15 1132 b 164 -12 113 751 147 368 b 190 -78 164 -39 169 -60 b 236 -122 207 -92 221 -107 b 253 -131 240 -126 246 -132 b 260 -115 261 -129 260 -121 b 258 -65 260 -99 260 -82 b 111 1044 238 308 196 679 l 107 1060 b 17 1154 99 1086 39 1138 z "},"?":{"ha":569,"x_min":0,"x_max":0,"o":"m 150 863 b 165 865 160 864 163 865 b 421 846 251 856 336 847 b 450 840 431 844 440 843 b 454 829 456 839 457 833 b 443 814 451 824 447 818 b 303 444 346 710 304 585 b 324 224 303 371 315 297 b 332 214 325 219 326 214 b 347 222 338 214 343 218 l 356 229 b 358 232 356 231 357 231 l 383 258 b 386 261 385 260 386 261 l 394 268 b 397 271 394 269 396 269 b 417 332 418 288 421 307 b 399 547 404 403 397 475 b 533 893 401 679 443 796 b 553 929 543 903 561 913 b 517 938 547 942 529 938 b 213 965 415 946 314 950 b 131 976 185 969 157 972 b 90 961 114 978 101 974 b 44 917 76 946 60 932 b 28 836 11 882 7 885 b 78 707 44 793 61 750 b 90 651 85 689 94 672 b 94 643 89 649 93 643 b 108 644 99 643 106 643 b 171 707 129 665 149 688 b 185 763 190 724 196 740 b 176 786 181 771 179 778 b 150 863 168 811 160 835 z m 386 0 b 465 81 417 29 442 54 b 472 103 472 86 474 94 b 457 189 468 131 463 160 b 440 193 456 194 446 197 b 368 121 417 169 392 146 b 363 99 363 115 361 107 b 386 0 369 68 371 38 z "},"!":{"ha":272,"x_min":0,"x_max":0,"o":"m 103 990 b 94 989 100 990 96 990 b 35 929 74 969 54 949 b 15 882 19 917 14 901 b 17 853 17 872 17 863 b 63 515 25 739 43 628 b 108 289 76 440 93 364 b 135 282 113 269 119 268 b 186 335 151 300 168 318 b 201 386 204 350 206 365 b 133 750 175 507 150 628 b 108 979 124 826 111 903 b 103 990 108 985 108 989 z m 171 0 b 253 81 203 28 226 54 b 256 113 261 90 258 101 b 247 143 253 124 250 133 l 221 236 b 213 244 219 239 217 240 b 169 207 196 236 183 219 b 160 197 167 204 163 200 l 142 178 b 132 168 139 175 135 171 b 128 139 125 160 126 149 b 171 0 140 94 150 50 z "},"*":{"ha":425,"x_min":0,"x_max":0,"o":"m 115 685 b 200 765 150 704 172 736 b 204 779 203 768 203 774 b 221 794 207 786 208 794 b 236 753 225 781 231 767 b 293 633 243 728 271 647 b 371 710 319 660 346 685 b 374 738 378 718 378 726 b 361 767 369 747 365 757 l 338 826 b 325 856 333 836 329 846 b 332 882 321 867 324 874 b 394 944 353 903 374 924 b 410 969 401 950 411 956 b 390 968 403 969 396 969 b 318 956 365 964 342 960 b 289 972 299 951 294 954 b 265 1107 276 1017 265 1061 b 260 1125 265 1114 265 1121 b 243 1118 253 1128 247 1124 b 183 1060 222 1099 203 1079 b 168 1015 169 1047 164 1033 b 165 961 172 997 168 979 b 129 921 164 933 163 924 b 69 890 104 919 86 908 b 25 844 56 874 39 860 b 17 825 19 839 11 835 b 46 826 26 822 36 825 b 124 842 72 832 97 838 b 143 824 139 844 146 838 b 118 722 135 789 126 756 b 115 685 115 710 110 697 z "},"#":{"ha":590,"x_min":0,"x_max":0,"o":"m 318 897 b 303 890 311 894 306 893 b 239 829 281 869 260 849 b 228 789 226 817 225 804 b 257 654 239 743 247 699 b 275 572 263 626 268 599 b 267 557 276 564 274 558 b 243 551 258 554 251 551 b 207 572 218 547 214 549 b 129 878 178 669 147 779 b 110 885 128 892 119 893 b 106 882 108 883 107 882 l 99 874 b 94 871 97 874 96 872 b 50 715 17 790 25 828 b 90 563 63 664 76 614 b 76 510 96 542 96 525 b 21 456 57 493 39 474 b 17 438 17 451 11 446 b 29 439 21 438 25 438 b 47 442 36 440 42 440 l 85 446 b 103 449 90 447 97 449 b 124 440 111 450 119 450 b 154 342 133 407 144 374 b 142 324 156 332 150 328 b 46 231 111 308 69 269 b 101 238 67 233 83 236 b 164 247 122 242 143 244 b 190 232 181 250 185 246 b 201 200 194 221 199 210 b 253 56 219 151 236 104 b 272 33 257 47 257 36 b 349 107 299 56 322 81 b 353 133 356 114 357 122 b 317 231 340 165 331 199 b 342 269 304 264 310 267 b 371 251 360 272 364 269 b 381 224 374 242 376 232 b 450 39 403 161 426 100 b 475 0 454 25 457 10 b 547 72 499 24 522 49 b 553 107 558 83 558 94 b 504 231 536 149 522 190 b 517 292 494 256 494 274 b 576 356 528 300 576 343 b 565 363 576 363 569 363 b 482 365 538 364 510 365 b 450 389 461 367 457 368 b 428 460 442 413 435 436 b 421 496 424 471 414 483 b 453 510 428 507 442 506 b 465 517 457 511 461 514 b 518 568 483 533 501 550 b 538 594 526 576 538 582 b 511 597 531 604 519 599 b 429 582 483 592 457 586 b 385 610 396 575 393 578 b 318 897 360 704 338 801 z m 331 372 b 321 353 332 358 329 354 b 292 349 311 351 301 350 b 274 361 283 347 276 353 l 249 435 b 246 467 246 446 236 458 b 292 478 257 478 275 479 b 301 469 294 478 300 472 b 331 372 313 435 322 401 z "},"(":{"ha":543,"x_min":0,"x_max":0,"o":"m 233 1243 l 233 1242 b 217 1233 226 1243 222 1238 b 97 1074 167 1189 126 1135 b 42 507 10 892 -7 703 b 410 -171 106 254 250 32 b 442 -204 426 -193 433 -204 b 476 -174 449 -204 457 -193 b 483 -168 479 -172 481 -169 l 496 -156 b 501 -150 497 -154 500 -153 b 506 -83 538 -114 535 -121 b 160 514 365 101 233 292 b 110 824 126 615 106 718 b 224 1215 114 964 150 1096 b 233 1243 229 1224 236 1232 z "},")":{"ha":542,"x_min":0,"x_max":0,"o":"m 308 -204 b 325 -196 315 -204 321 -200 b 446 -35 376 -150 415 -96 b 501 532 532 147 549 336 b 133 1210 438 786 292 1006 b 101 1243 117 1232 110 1243 b 67 1213 94 1243 86 1232 b 42 1189 58 1204 50 1196 b 36 1122 6 1151 8 1158 b 382 524 179 939 308 747 b 433 215 415 424 436 321 b 319 -178 429 75 393 -57 b 308 -204 314 -186 306 -193 z "},"@":{"ha":1081,"x_min":0,"x_max":0,"o":"m 415 367 b 440 343 418 351 428 343 b 551 440 472 343 538 415 b 539 440 549 440 543 440 b 508 463 518 440 511 444 b 508 493 507 472 507 483 b 557 665 515 550 535 603 b 571 624 564 646 568 635 b 621 308 593 518 597 424 b 667 275 625 282 639 274 b 735 283 689 276 713 281 b 840 300 771 289 810 282 b 924 376 872 319 896 351 b 940 426 939 390 943 407 b 922 503 935 451 929 478 b 865 826 894 610 872 717 b 863 994 861 883 861 939 b 860 1058 863 1015 861 1038 b 826 1096 858 1079 846 1090 b 768 1099 807 1101 788 1101 b 626 1078 721 1092 674 1085 b 244 1043 500 1057 374 1042 b 146 1043 211 1043 179 1043 b 101 1028 129 1043 114 1040 b 28 954 76 1003 51 978 b 18 908 15 940 11 926 b 46 825 26 881 35 853 b 186 472 93 707 142 590 b 336 65 238 338 286 201 b 368 -11 346 39 357 14 b 425 -40 379 -35 399 -46 b 474 -31 440 -37 457 -35 b 688 -6 544 -14 617 -6 b 946 -40 775 -6 861 -18 b 999 -28 967 -46 983 -46 b 1054 29 1015 -7 1035 11 b 1063 68 1067 40 1068 53 b 1043 117 1056 85 1050 100 l 1004 213 b 985 261 997 229 992 246 b 975 276 983 267 979 272 b 965 274 971 275 967 275 b 926 236 951 261 939 250 b 904 136 875 185 879 203 b 907 126 906 133 907 129 l 915 106 b 918 94 915 101 917 99 b 908 81 919 88 915 82 b 904 81 907 81 906 81 l 897 82 b 893 82 896 82 894 82 b 776 89 854 86 815 89 b 546 61 699 89 622 79 b 507 56 533 58 519 57 b 463 79 486 53 471 60 b 435 147 453 101 443 124 b 267 600 378 297 324 449 b 146 901 228 701 186 801 b 135 942 140 914 132 928 b 146 946 139 944 142 946 b 194 950 161 947 178 949 b 586 990 326 951 457 968 b 724 1004 631 999 676 1007 b 768 961 751 1001 765 989 b 769 897 769 940 769 918 b 817 458 761 749 781 603 b 832 383 822 435 832 411 b 740 372 803 372 772 371 b 710 421 717 372 713 403 b 650 772 696 565 685 632 b 631 822 646 789 639 806 b 610 826 626 831 619 832 b 594 825 607 824 603 819 b 600 910 599 853 600 882 b 592 932 600 918 600 928 b 571 924 583 938 576 929 b 515 868 553 906 535 886 b 504 833 504 858 503 847 b 497 725 507 797 503 761 b 450 544 486 664 468 604 b 421 446 439 511 429 479 b 415 367 413 419 413 393 z m 553 440 l 553 442 l 551 440 b 553 440 553 440 553 440 z "},"{":{"ha":604,"x_min":0,"x_max":0,"o":"m 321 1358 b 221 1357 281 1358 250 1360 b 113 1307 179 1354 142 1339 b 57 1251 94 1288 76 1268 b 15 1144 25 1222 11 1186 b 26 1053 17 1114 21 1083 b 75 811 43 972 65 893 b 32 514 89 708 83 607 b 25 496 29 508 26 501 b 35 472 21 485 24 476 b 47 469 39 471 43 471 l 71 464 b 83 461 75 463 79 463 b 189 353 143 449 179 413 b 199 260 193 321 199 290 b 193 -42 203 160 200 58 b 197 -160 190 -81 190 -119 b 294 -250 207 -219 235 -244 b 440 -232 344 -254 393 -244 b 549 -168 482 -221 521 -203 b 557 -160 551 -165 554 -162 l 572 -144 b 581 -136 575 -142 578 -139 b 588 -117 585 -132 594 -128 b 442 -156 540 -135 492 -149 b 363 -153 415 -158 389 -160 b 296 -89 328 -144 306 -125 b 288 -26 289 -68 288 -47 b 293 142 289 29 290 86 b 294 339 296 207 299 272 b 279 456 292 378 289 417 b 185 551 267 507 236 539 b 133 565 168 556 150 560 b 122 588 121 568 117 576 b 132 610 125 594 128 603 b 174 750 154 654 167 701 b 164 938 181 814 175 875 b 125 1125 153 1000 138 1063 b 110 1242 117 1164 107 1201 b 128 1261 111 1254 117 1260 b 147 1263 135 1261 142 1263 l 188 1265 b 207 1267 194 1265 200 1267 b 239 1275 218 1267 231 1265 b 321 1358 264 1300 290 1324 z "},"}":{"ha":606,"x_min":0,"x_max":0,"o":"m 283 -250 b 383 -250 325 -250 354 -253 b 493 -200 425 -247 464 -232 b 549 -143 510 -179 529 -161 b 590 -37 581 -115 593 -79 b 578 54 588 -7 583 24 b 529 296 563 136 540 215 b 572 593 515 400 522 500 l 581 611 b 569 635 585 622 581 632 b 521 646 554 639 538 643 b 406 847 418 667 410 760 b 411 1149 403 949 404 1049 b 408 1267 414 1188 415 1226 b 310 1357 397 1326 371 1353 b 164 1339 260 1363 213 1351 b 56 1275 122 1328 85 1310 b 25 1244 47 1264 35 1256 b 17 1224 21 1239 10 1235 b 164 1263 64 1243 113 1256 b 242 1260 190 1265 215 1267 b 310 1196 278 1251 300 1232 b 317 1133 315 1175 318 1154 b 313 965 317 1078 315 1021 b 310 768 308 900 306 835 b 325 651 313 729 317 690 b 419 556 338 600 368 568 b 472 542 438 551 454 547 b 483 519 485 539 488 532 b 472 497 481 513 476 506 b 432 357 451 453 438 406 b 440 171 424 293 429 232 b 481 -18 451 107 467 44 b 494 -135 488 -57 497 -94 b 478 -154 494 -146 489 -153 b 458 -156 471 -154 465 -156 l 418 -158 b 365 -167 404 -158 375 -158 b 283 -250 340 -193 314 -217 z "},"£":{"ha":483,"x_min":0,"x_max":0,"o":"m 15 417 b 38 413 21 408 31 413 b 54 414 43 413 49 414 l 89 417 b 106 418 94 417 100 418 b 124 406 115 419 122 415 b 126 386 125 399 126 393 b 97 56 142 274 132 164 b 90 32 94 47 92 39 b 99 22 89 25 93 22 b 118 26 106 22 111 25 b 233 42 156 36 194 42 b 351 26 274 42 313 35 b 400 40 371 22 386 25 b 453 92 417 58 433 76 b 464 149 472 110 472 126 b 400 331 442 210 421 269 b 386 353 397 338 394 346 b 306 275 356 331 332 301 b 304 247 297 267 300 256 b 328 176 311 224 319 200 b 333 138 331 164 339 153 b 260 133 308 136 285 135 b 186 121 236 131 214 119 b 204 185 193 144 199 164 b 226 400 222 256 228 328 b 246 426 226 421 226 422 b 281 446 260 431 271 436 b 336 501 299 464 317 483 b 339 521 340 507 344 511 b 242 517 307 519 275 518 b 213 540 221 517 217 518 b 154 754 197 613 176 683 b 121 863 142 790 131 826 b 117 907 118 876 118 892 b 129 925 117 915 121 922 b 174 929 144 928 158 931 b 232 867 210 924 229 904 b 232 838 233 857 232 847 l 229 808 b 222 731 226 782 224 756 b 224 701 221 721 222 711 b 239 696 225 694 233 690 b 285 740 254 710 269 725 b 318 776 297 751 311 763 b 315 814 322 786 315 801 b 319 858 315 829 318 843 b 325 957 324 892 328 924 b 256 1022 322 1000 300 1021 b 135 976 208 1025 169 1008 b 56 896 108 950 82 924 b 24 793 26 867 17 833 b 60 660 31 747 47 704 b 69 626 64 649 67 638 l 90 561 b 100 528 93 550 97 539 b 93 501 104 517 101 510 b 33 443 72 483 53 464 b 15 417 25 436 14 431 z "},"¥":{"ha":611,"x_min":0,"x_max":0,"o":"m 415 1057 l 414 1057 b 353 989 400 1029 375 1011 b 301 896 325 963 308 933 b 290 850 299 882 294 868 b 199 928 254 874 229 904 b 99 1004 167 953 136 982 b 25 931 74 979 49 954 b 26 899 11 915 11 911 b 249 694 108 833 179 775 b 169 610 221 665 194 638 b 164 589 164 606 156 600 b 285 604 203 594 244 599 b 303 601 290 604 299 606 b 315 567 315 594 315 579 b 296 550 317 554 306 551 b 183 486 249 544 213 522 b 164 465 178 478 169 472 b 157 444 158 460 149 456 b 204 454 172 447 188 450 b 314 479 240 463 276 472 b 350 458 339 485 342 482 b 461 206 381 372 421 289 b 475 175 467 196 471 186 b 464 150 482 160 479 154 b 294 97 407 132 351 114 b 276 114 278 92 271 99 b 319 340 301 188 310 264 b 315 353 319 344 321 350 b 306 350 313 351 308 353 b 290 335 300 346 296 340 l 258 304 b 243 289 254 299 249 294 b 224 246 229 276 225 263 b 182 28 217 172 206 99 b 179 14 181 24 179 18 b 190 0 179 7 182 0 b 208 3 196 0 203 1 b 439 76 286 28 363 51 b 478 96 453 81 467 86 b 572 189 510 126 542 158 b 582 231 583 200 586 215 b 554 299 576 256 565 276 b 535 343 547 314 540 328 l 493 431 b 474 474 488 444 481 460 b 465 506 469 483 463 493 b 519 525 481 521 504 513 b 597 608 539 542 589 588 b 488 593 557 611 522 599 b 443 586 472 590 458 588 b 429 597 436 585 432 590 b 435 624 426 607 426 615 b 501 690 457 646 479 668 b 513 711 507 696 514 700 b 481 711 501 718 490 713 b 421 706 461 710 442 707 b 397 724 406 704 401 708 b 382 861 388 769 382 815 b 415 1038 382 922 388 982 b 415 1056 419 1044 418 1049 b 415 1057 415 1056 415 1057 z "},"§":{"ha":718,"x_min":0,"x_max":0,"o":"m 375 328 b 290 257 342 307 315 282 b 279 231 283 249 281 240 b 251 65 269 175 260 119 b 257 21 250 50 251 35 b 288 0 263 7 272 1 b 533 131 346 0 492 94 b 653 247 575 165 615 206 b 650 365 690 288 688 324 b 597 410 635 382 618 397 b 501 458 567 428 535 446 b 499 475 494 463 493 469 b 508 486 501 479 506 482 l 529 507 b 539 518 532 511 536 514 b 575 558 551 531 564 544 b 564 618 590 582 586 601 b 511 643 549 631 529 638 b 389 681 469 656 429 668 b 179 776 326 700 229 733 b 136 829 161 790 146 807 b 156 876 126 856 131 865 b 332 914 211 899 271 913 b 385 907 350 915 368 913 b 403 868 404 901 411 886 b 361 801 390 844 375 824 b 344 776 357 793 350 785 b 335 750 340 769 332 764 b 483 926 399 799 443 861 b 439 1007 515 979 501 1006 b 201 951 354 1011 276 990 b 147 911 182 940 163 926 b 69 833 121 885 96 860 l 61 824 b 57 819 60 822 58 821 b 56 714 32 786 32 749 b 207 618 90 668 154 639 b 251 597 222 611 239 610 b 203 524 235 572 218 549 b 182 474 194 508 188 490 b 194 440 176 460 182 447 b 213 432 200 436 206 433 b 297 404 240 422 268 411 b 378 375 325 397 350 382 b 539 292 436 358 492 331 b 578 242 554 276 569 261 b 561 183 590 215 586 199 b 386 97 524 158 432 103 b 347 125 364 93 351 103 b 351 193 344 147 347 171 b 375 328 358 238 367 283 z m 486 504 b 482 494 485 500 485 497 b 439 482 469 485 457 475 b 404 493 428 486 415 489 l 333 515 b 299 526 322 519 311 522 b 276 550 289 531 278 536 b 314 582 272 576 288 590 b 435 543 354 569 394 557 b 481 517 451 538 468 531 b 486 504 483 513 485 508 z "},"ª":{"ha":338,"x_min":0,"x_max":0,"o":"m 200 835 b 233 671 219 776 213 721 b 251 678 242 669 247 672 b 297 722 267 693 281 710 b 319 792 321 742 326 764 b 318 794 319 793 319 793 l 318 799 b 299 1036 303 879 299 954 b 285 1042 299 1043 290 1047 b 263 1029 278 1033 271 1029 b 243 1036 256 1029 250 1032 b 210 1033 232 1043 221 1039 b 171 1006 194 1028 182 1017 b 104 939 149 983 126 961 b 17 763 54 890 28 829 b 19 703 14 743 14 722 b 42 683 24 690 32 683 b 86 714 56 683 78 704 b 200 835 124 751 163 786 z m 111 821 b 135 931 111 864 121 899 b 163 935 140 944 153 946 b 172 869 185 911 188 899 b 128 793 158 844 143 819 b 119 792 128 792 122 792 b 114 797 115 792 114 793 b 111 821 113 807 111 817 z "},"¸":{"ha":436,"x_min":0,"x_max":0,"o":"m 201 -78 b 190 0 197 -44 193 -22 b 179 97 186 32 182 65 b 163 106 178 108 168 113 b 144 89 157 100 151 94 l 110 54 b 92 38 104 49 97 43 b 83 6 82 28 82 17 b 103 -142 90 -44 96 -93 b 107 -161 103 -149 106 -154 b 131 -168 111 -172 121 -175 b 139 -161 133 -165 136 -162 l 154 -144 b 163 -137 157 -143 160 -140 b 201 -99 175 -124 188 -111 b 249 -81 217 -86 233 -81 b 311 -125 274 -81 297 -96 b 318 -197 322 -147 322 -172 b 297 -243 315 -214 315 -237 b 256 -210 275 -250 265 -226 b 238 -189 249 -196 243 -189 b 214 -206 232 -189 225 -194 b 158 -261 196 -225 178 -243 b 156 -289 150 -269 150 -279 b 158 -294 157 -290 157 -293 l 164 -304 b 167 -310 165 -307 165 -308 b 211 -340 179 -331 194 -340 b 265 -315 229 -340 253 -328 b 360 -221 297 -283 329 -253 b 413 -117 386 -192 403 -156 b 403 -31 419 -86 417 -57 b 338 14 389 -1 364 14 b 253 -31 303 14 276 -7 b 201 -78 238 -43 224 -57 z "},"Þ":{"ha":456,"x_min":0,"x_max":0,"o":"m 115 874 b 33 792 83 842 58 817 b 26 768 26 785 25 778 b 35 740 29 760 32 750 l 118 421 b 122 374 121 406 132 390 b 124 361 119 369 119 364 b 150 304 143 347 143 325 b 163 264 154 292 158 278 l 186 185 b 199 144 190 171 194 158 b 221 139 203 132 211 131 b 249 167 231 149 239 158 b 292 214 264 182 283 196 b 278 279 301 236 285 258 b 294 335 269 303 269 318 b 372 410 324 354 347 385 b 388 450 383 421 389 435 b 386 485 388 461 388 472 b 332 729 372 567 356 649 b 292 786 326 747 315 786 b 263 771 283 786 274 782 b 226 738 250 761 239 749 b 169 685 208 721 194 700 b 115 874 147 746 139 808 z m 278 438 b 250 440 268 432 260 439 b 225 467 235 443 228 453 b 179 638 210 524 194 582 b 204 686 174 658 188 675 b 218 682 207 688 215 685 b 233 651 224 672 231 663 b 281 442 256 583 271 513 b 278 438 281 440 279 439 z "},"þ":{"ha":517,"x_min":0,"x_max":0,"o":"m 315 -151 b 390 -79 344 -126 367 -101 b 401 -40 403 -68 404 -57 b 353 176 383 32 368 104 b 347 206 350 186 349 196 b 357 221 346 213 350 218 b 403 247 374 226 390 233 b 472 317 426 271 450 293 b 497 374 489 332 497 351 b 492 476 500 408 497 442 b 454 690 481 547 468 619 b 383 924 444 743 418 882 b 347 929 374 933 360 936 b 317 906 336 922 326 914 b 247 836 293 882 271 858 b 219 819 240 829 235 819 b 153 1179 194 939 169 1058 b 126 1161 138 1178 133 1168 b 71 1106 107 1143 89 1124 b 61 1074 61 1096 60 1085 b 75 982 65 1043 69 1013 b 282 -21 140 646 208 313 b 315 -151 290 -62 297 -104 z m 382 315 b 368 317 371 317 369 317 b 313 361 324 319 322 319 b 231 756 286 493 258 625 b 249 813 226 779 233 796 b 281 836 263 828 272 836 b 306 806 289 836 296 826 b 325 750 314 788 319 768 b 376 515 347 672 363 594 b 401 356 386 463 393 408 b 401 350 401 354 401 351 l 403 338 b 388 315 403 325 401 318 b 382 315 383 315 378 315 z "},"%":{"ha":658,"x_min":0,"x_max":0,"o":"m 182 -3 b 186 -10 182 -6 185 -8 b 194 -10 189 -11 193 -11 b 244 39 213 7 228 24 b 275 107 267 57 275 78 b 475 1040 275 379 365 786 b 524 1114 488 1068 501 1093 b 543 1136 531 1119 538 1128 b 542 1143 546 1139 544 1142 b 532 1146 539 1144 535 1146 b 521 1138 528 1144 524 1142 b 507 1124 517 1133 511 1128 l 478 1096 b 464 1082 474 1092 469 1086 b 243 510 357 985 274 646 b 182 -3 204 340 182 171 z m 279 890 b 240 988 276 926 271 963 b 192 1014 219 1004 207 1014 b 57 899 160 1014 76 924 b 29 724 14 847 3 786 b 101 671 44 689 72 671 b 157 696 121 671 140 679 b 235 772 183 722 208 747 b 279 890 267 806 278 846 z m 183 800 b 182 783 183 796 183 789 b 160 774 181 772 171 768 b 111 874 125 792 111 838 b 122 907 113 885 106 903 b 154 889 136 911 146 899 b 183 800 175 864 183 835 z m 644 146 b 567 272 644 192 599 244 b 544 271 560 278 553 276 b 401 138 489 235 446 186 b 372 71 385 119 376 94 b 386 -25 365 38 368 6 b 474 -67 406 -57 439 -74 b 513 -47 488 -62 501 -57 b 617 58 547 -12 583 22 b 644 146 636 79 642 107 z m 464 128 b 475 165 467 143 461 160 b 506 147 490 172 497 157 b 549 53 529 121 549 92 b 532 29 547 38 542 29 b 469 92 503 29 476 68 b 464 128 465 104 465 118 z "},"‰":{"ha":707,"x_min":0,"x_max":0,"o":"m 138 40 b 142 33 138 38 140 35 b 150 33 144 32 149 32 b 200 82 168 50 183 67 b 231 150 222 100 231 121 b 431 1083 231 422 321 829 b 479 1157 443 1111 457 1136 b 499 1179 486 1163 493 1171 b 497 1186 501 1182 500 1185 b 488 1189 494 1188 490 1189 b 476 1181 483 1188 479 1185 b 463 1167 472 1176 467 1171 l 433 1139 b 419 1125 429 1135 425 1129 b 199 553 313 1028 229 689 b 138 40 160 383 138 214 z m 235 933 b 196 1031 232 969 226 1006 b 147 1057 175 1047 163 1057 b 13 942 115 1057 32 967 b -15 767 -31 890 -42 829 b 57 714 0 732 28 714 b 113 739 76 714 96 722 b 190 815 139 765 164 790 b 235 933 222 849 233 889 z m 139 843 b 138 826 139 839 139 832 b 115 817 136 815 126 811 b 67 917 81 835 67 881 b 78 950 68 928 61 946 b 110 932 92 954 101 942 b 139 843 131 907 139 878 z m 600 189 b 522 315 600 235 554 288 b 500 314 515 321 508 319 b 357 181 444 278 401 229 b 328 114 340 163 332 138 b 342 18 321 81 324 49 b 429 -24 361 -14 394 -31 b 468 -4 443 -19 457 -14 b 572 101 503 31 539 65 b 600 189 592 122 597 150 z m 914 189 b 836 315 914 235 868 288 b 814 314 829 321 822 319 b 671 181 758 278 715 229 b 642 114 654 163 646 138 b 656 18 635 81 638 49 b 743 -24 675 -14 708 -31 b 782 -4 757 -19 771 -14 b 886 101 817 31 853 65 b 914 189 906 122 911 150 z m 419 171 b 431 208 422 186 417 203 b 461 190 446 215 453 200 b 504 96 485 164 504 135 b 488 72 503 81 497 72 b 425 135 458 72 432 111 b 419 171 421 147 421 161 z m 733 171 b 744 208 736 186 731 203 b 775 190 760 215 767 200 b 818 96 799 164 818 135 b 801 72 817 81 811 72 b 739 135 772 72 746 111 b 733 171 735 147 735 161 z "},"[":{"ha":717,"x_min":0,"x_max":0,"o":"m 703 -18 b 688 -12 694 -15 690 -12 b 483 -43 619 -18 550 -25 b 454 -50 474 -46 464 -49 b 438 -37 444 -51 439 -46 b 246 749 404 218 326 504 l 190 919 b 163 1004 181 947 172 976 b 151 1056 157 1021 146 1036 b 169 1058 157 1060 164 1060 l 176 1058 b 181 1058 178 1058 179 1058 b 199 1057 186 1058 192 1057 l 232 1053 b 250 1051 239 1053 244 1053 b 319 1076 278 1047 301 1054 b 361 1119 332 1092 347 1106 b 371 1131 365 1122 368 1126 b 374 1139 372 1132 374 1136 b 363 1146 372 1144 368 1146 b 318 1149 349 1147 333 1147 b 168 1171 268 1151 217 1158 b 107 1186 147 1175 128 1193 b 60 1143 86 1179 75 1158 b 53 1136 57 1142 54 1139 b 28 1035 6 1089 7 1104 b 126 740 60 936 93 839 b 342 -118 215 469 304 167 b 378 -143 344 -146 353 -150 b 497 -118 417 -131 457 -124 b 596 -106 531 -112 563 -110 b 631 -92 610 -106 621 -101 b 703 -18 654 -68 676 -44 z "},"]":{"ha":718,"x_min":0,"x_max":0,"o":"m 14 1060 b 29 1054 24 1056 26 1054 b 233 1085 99 1060 167 1067 b 240 1086 236 1086 239 1086 l 256 1090 b 263 1092 258 1090 260 1092 b 281 1078 272 1093 278 1088 b 444 379 313 842 374 607 b 556 38 481 264 518 151 b 565 -14 560 21 572 4 b 536 -17 556 -19 546 -18 b 468 -10 514 -15 490 -12 b 397 -36 440 -7 417 -12 b 356 -78 385 -51 369 -64 b 353 -81 356 -79 354 -79 l 349 -86 b 346 -89 347 -87 347 -87 b 344 -97 344 -92 343 -94 b 354 -104 344 -103 350 -104 b 399 -107 369 -106 385 -106 b 550 -129 450 -110 500 -118 b 611 -144 571 -135 589 -151 b 658 -103 631 -137 643 -117 b 665 -96 661 -100 663 -97 b 689 7 713 -47 711 -62 b 592 301 658 106 624 203 b 415 942 522 511 460 724 b 376 1160 400 1014 385 1086 b 340 1183 372 1186 365 1192 b 122 1147 269 1164 196 1154 b 86 1133 108 1146 96 1143 b 14 1060 64 1110 40 1086 z "},"¢":{"ha":425,"x_min":0,"x_max":0,"o":"m 172 1000 b 158 997 164 999 160 999 b 99 939 138 978 118 957 b 82 894 85 926 81 913 b 43 793 88 825 94 846 b 42 792 43 793 43 793 l 42 790 b 40 789 40 790 40 789 b 18 714 14 769 11 743 b 224 257 50 592 122 344 b 285 149 257 226 275 192 b 297 107 289 135 293 121 l 313 65 b 324 44 314 57 317 49 b 333 47 328 44 331 44 b 397 108 354 67 375 89 b 408 153 411 121 414 135 b 371 264 394 189 383 226 b 379 314 365 282 363 299 b 393 350 389 322 390 336 b 396 463 399 388 399 425 b 386 539 393 489 397 515 b 326 492 358 533 347 507 b 322 488 325 490 324 489 l 314 478 b 310 474 313 476 311 475 b 297 439 299 464 294 453 b 297 381 300 419 303 400 b 278 396 286 382 282 389 b 128 746 204 500 163 624 b 163 790 117 782 111 790 b 188 789 171 790 179 790 b 213 760 207 785 214 778 b 207 696 213 738 208 717 b 213 603 203 664 201 633 b 232 597 217 594 225 590 b 250 614 238 603 244 608 l 285 649 b 303 665 292 654 297 660 b 308 688 308 672 311 679 b 306 819 294 732 300 775 l 308 835 b 308 849 308 839 310 844 b 281 883 308 868 299 881 b 246 885 268 885 257 885 b 167 881 219 883 193 882 b 178 968 185 919 185 919 b 172 1000 175 978 174 988 z "},"$":{"ha":535,"x_min":0,"x_max":0,"o":"m 265 143 b 268 86 256 122 263 104 b 296 0 278 57 274 24 b 364 63 324 15 340 42 b 378 111 381 76 382 92 b 368 154 374 125 371 140 b 379 179 365 165 369 172 b 493 286 424 208 457 249 b 506 394 526 319 528 354 b 460 453 493 415 476 435 b 381 526 433 478 407 503 b 360 546 374 533 367 539 l 318 585 b 297 604 311 592 304 597 b 296 647 275 625 275 626 b 344 696 311 664 328 679 b 354 731 354 706 360 715 b 356 799 347 753 350 775 b 376 874 360 824 367 850 b 388 913 381 886 385 899 b 364 944 390 928 381 942 b 315 946 349 946 332 947 b 251 942 294 946 274 943 b 222 1057 238 978 243 1019 b 143 979 193 1031 168 1004 b 136 956 136 972 135 965 b 142 926 139 946 140 936 b 131 901 143 917 140 908 b 31 807 93 875 64 839 b 18 749 14 790 10 771 b 164 551 40 685 117 597 b 314 410 213 504 264 458 b 390 333 340 385 365 360 b 424 274 406 315 418 296 b 415 254 426 264 425 257 b 325 239 385 244 354 239 b 254 249 301 239 278 242 b 207 329 217 260 201 289 b 232 425 211 363 222 393 b 235 453 235 433 243 442 b 124 292 182 410 136 363 b 115 263 121 282 118 272 b 203 146 100 192 128 154 b 265 143 222 144 242 144 z m 121 832 b 244 854 161 846 203 850 b 269 851 253 856 261 854 b 292 821 288 849 294 838 b 285 797 290 813 288 804 b 257 668 269 756 257 713 b 249 658 257 664 254 658 b 240 661 247 657 243 660 b 126 808 197 706 157 754 b 121 832 122 815 119 822 z "},"•":{"ha":440,"x_min":0,"x_max":0,"o":"m 14 679 b 17 632 15 661 15 646 b 240 194 35 513 113 244 b 272 188 251 190 263 188 b 317 207 288 188 303 193 b 397 288 344 233 371 260 b 422 335 411 300 418 317 b 424 397 426 356 428 376 b 406 485 418 426 410 456 b 225 840 394 600 322 768 b 188 864 214 850 201 858 b 158 871 178 868 168 871 b 119 854 144 871 132 865 b 43 778 94 828 69 803 b 17 721 28 761 21 742 b 14 679 15 706 15 690 z "},"©":{"ha":1063,"x_min":0,"x_max":0,"o":"m 258 -72 b 314 -58 285 -72 300 -64 b 329 -54 319 -56 325 -54 b 350 -71 339 -54 344 -60 b 374 -75 357 -82 365 -83 b 414 -37 388 -64 401 -51 b 456 -14 425 -26 439 -18 b 763 25 556 10 658 25 b 885 14 803 25 844 18 b 925 -17 904 11 918 3 b 944 -51 931 -29 938 -40 b 960 -68 950 -62 954 -68 b 1033 -1 972 -68 1024 -11 b 1038 40 1054 19 1049 22 b 1024 81 1031 53 1018 64 b 1001 113 1031 101 1004 97 b 986 154 999 128 990 140 b 869 682 929 326 888 500 b 864 953 860 772 861 863 b 890 1013 864 978 871 996 b 942 1065 908 1029 925 1047 b 939 1081 947 1071 944 1081 b 865 1088 914 1083 890 1088 b 585 1075 772 1083 679 1078 b 231 1082 467 1071 349 1078 b 128 1085 196 1083 161 1083 b 94 1076 115 1085 104 1086 b 18 1000 69 1051 43 1026 b 17 982 14 996 13 989 b 18 981 17 982 17 982 l 18 979 b 19 978 19 979 19 978 l 24 969 b 26 965 25 968 26 967 b 93 818 53 918 86 875 b 101 807 93 814 97 810 b 142 732 124 788 136 761 b 311 43 188 500 247 271 l 319 15 b 311 -17 324 3 321 -7 b 258 -72 296 -32 281 -49 z m 496 981 b 738 989 576 983 657 986 b 761 990 744 989 753 990 b 778 972 774 990 779 985 b 769 839 775 928 774 883 b 778 564 761 747 768 656 b 861 156 793 425 821 289 b 867 136 864 149 865 143 b 856 119 869 126 865 119 b 831 118 847 118 839 118 b 471 61 708 117 589 96 l 469 60 b 468 60 469 60 468 60 l 458 57 b 457 57 458 57 458 57 l 456 56 b 454 56 456 56 454 56 b 425 72 435 51 431 53 b 213 961 339 360 256 664 b 231 983 210 978 215 983 b 254 983 239 983 246 983 l 304 982 l 496 982 z m 643 335 b 608 367 621 344 617 357 b 433 714 535 474 476 590 b 425 742 429 722 426 732 b 446 786 417 771 419 775 b 460 792 450 789 456 790 b 486 778 474 796 483 790 b 496 725 490 760 493 743 b 522 610 503 686 508 647 b 546 601 528 594 535 592 b 614 668 569 624 592 646 b 621 694 622 676 624 685 b 588 849 603 744 596 796 b 582 872 586 856 585 864 b 551 888 576 886 565 893 b 425 818 507 869 463 851 b 343 739 396 793 369 765 b 322 675 325 721 317 700 b 574 201 358 528 463 313 b 636 164 589 186 614 164 b 661 175 644 164 653 167 b 729 240 683 197 706 219 b 758 321 754 263 761 290 b 747 389 756 343 753 367 b 689 585 735 456 711 521 b 669 601 686 592 683 601 b 597 531 647 579 622 554 b 590 499 588 521 586 511 b 603 463 594 486 600 475 b 643 335 617 422 629 382 z "},"®":{"ha":1063,"x_min":0,"x_max":0,"o":"m 258 -72 b 315 -58 286 -72 300 -64 b 331 -54 321 -56 325 -54 b 351 -71 339 -54 344 -60 b 375 -75 357 -82 365 -83 b 414 -37 389 -64 401 -51 b 456 -14 426 -26 439 -18 b 763 25 557 10 660 25 b 886 14 804 25 844 18 b 926 -17 904 11 919 3 b 961 -68 929 -26 950 -68 b 978 -57 965 -68 971 -64 b 1033 -1 997 -39 1015 -21 b 1039 40 1056 19 1050 22 b 1025 81 1032 53 1019 64 b 1001 113 1032 101 1004 97 b 986 154 1000 128 992 140 b 869 682 929 326 889 501 b 864 953 861 772 863 863 b 892 1013 865 978 872 996 b 943 1065 910 1029 926 1047 b 939 1081 947 1071 946 1081 b 867 1088 915 1083 890 1088 b 586 1075 772 1083 679 1078 b 232 1082 468 1071 350 1078 b 206 1083 224 1082 215 1082 l 154 1083 b 128 1085 146 1085 136 1085 b 96 1076 117 1085 104 1086 b 19 1000 69 1051 44 1026 b 17 982 14 996 14 989 b 28 965 21 976 25 971 b 94 818 53 918 88 875 b 101 807 94 814 99 810 b 142 732 125 788 136 761 b 313 43 188 500 247 271 l 321 15 b 313 -17 324 3 322 -7 b 258 -72 296 -32 281 -49 z m 497 981 b 738 989 576 983 657 986 b 744 989 740 989 742 989 l 757 990 b 763 990 758 990 761 990 b 779 972 775 990 781 985 b 769 839 776 928 774 883 b 778 564 761 747 768 656 b 863 156 793 425 822 289 l 867 136 b 856 119 869 126 865 119 b 832 118 847 118 839 118 b 474 61 710 117 590 96 b 468 60 472 61 471 60 l 460 57 b 454 56 457 57 456 56 b 426 72 436 51 432 53 b 226 874 347 336 278 603 b 213 961 221 903 217 932 b 231 983 211 978 215 983 b 256 983 239 983 247 983 l 304 982 b 329 982 313 982 321 982 b 497 982 385 982 440 982 z m 603 253 b 625 247 611 257 618 250 b 647 235 633 243 640 239 l 693 208 b 715 196 700 204 708 200 b 749 200 732 186 735 186 b 808 260 768 219 789 239 b 806 290 822 274 822 279 b 610 382 744 329 681 364 b 596 433 560 396 568 401 b 660 526 621 461 643 492 b 650 643 679 567 676 606 b 608 692 638 660 624 676 b 396 911 538 764 461 832 b 371 914 388 922 381 922 b 301 844 349 890 325 867 b 301 822 294 838 296 829 b 313 808 306 818 310 813 l 336 779 b 347 765 340 775 343 771 b 336 751 342 760 340 754 b 324 700 319 738 317 722 b 474 231 371 542 415 385 b 506 153 483 204 494 179 b 528 147 511 140 518 139 b 542 160 532 151 536 156 l 567 186 b 603 253 593 206 601 219 z m 540 407 b 469 642 510 478 472 603 b 563 540 507 611 539 579 b 540 407 588 497 579 454 z "},"†":{"ha":689,"x_min":0,"x_max":0,"o":"m 222 1119 b 142 1043 192 1099 168 1069 b 138 1019 136 1036 135 1028 l 146 992 b 181 894 158 960 169 926 b 144 894 169 894 158 894 b 29 844 96 894 58 882 b -4 803 19 831 0 822 b 214 804 4 796 111 799 b 540 -26 314 524 424 247 b 568 -75 547 -43 551 -61 b 619 -24 585 -58 603 -42 b 636 60 661 18 658 7 b 338 810 532 308 431 557 b 400 813 369 811 393 813 b 444 829 418 813 432 815 b 503 889 463 849 483 868 b 497 906 510 896 507 904 b 389 908 461 911 425 910 b 303 903 351 907 324 904 b 236 1097 281 967 258 1032 b 222 1119 233 1104 231 1113 z "},"|":{"ha":544,"x_min":0,"x_max":0,"o":"m 100 1151 b 19 1075 68 1131 46 1101 b 15 1051 14 1068 13 1060 l 24 1024 b 154 663 68 903 110 782 b 418 6 238 442 326 222 b 446 -43 425 -11 429 -29 b 497 8 463 -26 481 -10 b 514 92 539 50 536 39 b 114 1129 371 433 232 778 b 100 1151 111 1136 108 1144 z "},"‡":{"ha":811,"x_min":0,"x_max":0,"o":"m 242 1119 b 161 1043 211 1100 188 1069 b 157 1021 156 1038 154 1028 b 167 992 160 1011 163 1001 b 175 968 169 983 172 976 l 193 919 b 201 896 196 913 199 904 b 151 894 188 896 171 894 b 38 844 103 894 65 883 b 4 804 26 831 8 824 b 60 800 7 801 29 800 b 233 806 104 800 171 803 b 447 246 300 617 372 432 b 311 196 392 246 347 244 b 279 156 301 182 282 175 b 331 151 282 151 301 151 b 485 156 371 151 428 153 l 560 -26 b 588 -75 567 -43 571 -61 b 590 -72 589 -74 590 -74 l 599 -65 b 601 -62 599 -65 600 -64 l 626 -36 b 629 -33 628 -35 629 -35 l 638 -26 b 640 -24 638 -26 639 -25 b 656 60 681 19 678 8 b 644 86 653 68 649 76 l 624 136 b 613 163 619 146 617 154 b 682 165 649 164 675 165 b 726 181 700 164 714 168 b 785 240 744 201 765 221 b 779 258 792 249 789 257 b 671 260 743 264 707 261 b 575 254 626 258 599 256 b 357 811 500 439 426 624 b 408 814 385 813 401 814 b 451 829 425 813 439 817 b 510 889 471 850 492 869 b 504 907 518 897 515 906 b 397 908 469 911 433 910 b 322 904 365 907 342 906 b 256 1097 299 968 278 1033 b 242 1119 253 1106 251 1113 z "},"_":{"ha":667,"x_min":0,"x_max":0,"o":"m 290 10 b 546 14 375 14 461 17 b 590 31 564 14 578 17 b 649 90 608 51 629 69 b 643 107 656 97 653 106 b 535 110 607 113 571 111 b 163 96 411 106 286 97 b 47 46 114 96 76 85 b 14 6 38 32 18 25 b 75 0 18 1 43 0 b 290 10 154 0 279 8 z "},"–":{"ha":667,"x_min":0,"x_max":0,"o":"m 290 406 b 546 410 375 410 461 413 b 590 426 564 410 578 413 b 649 486 608 447 629 465 b 643 503 656 493 653 501 b 535 506 607 508 571 507 b 163 492 411 501 286 493 b 47 442 114 492 76 481 b 14 401 38 428 18 421 b 75 396 18 397 43 396 b 290 406 154 396 279 404 z "},"−":{"ha":667,"x_min":0,"x_max":0,"o":"m 290 444 b 546 449 375 449 461 451 b 590 465 564 449 578 451 b 649 525 608 486 629 504 b 643 542 656 532 653 540 b 535 544 607 547 571 546 b 163 531 411 540 286 532 b 47 481 114 531 76 519 b 14 440 38 467 18 460 b 75 435 18 436 43 435 b 290 444 154 435 279 443 z "},"¯":{"ha":849,"x_min":0,"x_max":0,"o":"m 14 724 l 18 714 b 61 714 32 714 47 714 b 560 714 228 714 393 715 b 736 706 618 714 678 717 b 763 714 747 704 756 707 b 829 781 785 738 807 758 b 833 794 832 785 835 790 b 818 803 832 801 825 803 b 681 808 772 804 726 808 b 554 810 639 808 596 808 l 300 810 b 172 811 257 811 215 811 b 124 808 156 811 140 810 b 83 793 108 808 94 804 b 14 724 61 769 38 746 z "},"—":{"ha":1328,"x_min":0,"x_max":0,"o":"m 1314 481 b 1286 489 1306 492 1294 489 b 961 493 1178 490 1069 492 b 168 496 697 494 433 494 b 100 493 146 496 121 500 b 46 446 76 486 63 463 b 25 425 38 439 32 432 b 15 408 19 419 14 415 b 32 400 18 400 25 401 b 61 400 42 400 51 400 b 1183 396 436 399 810 397 b 1218 396 1196 396 1207 396 b 1242 404 1226 397 1235 397 b 1290 453 1257 419 1274 436 b 1314 481 1299 461 1310 468 z "},"€":{"ha":539,"x_min":0,"x_max":0,"o":"m 428 485 b 368 429 406 469 388 449 b 354 363 335 396 339 400 b 365 332 358 353 361 343 l 388 272 b 399 242 392 263 394 251 b 399 228 400 238 399 232 b 388 232 394 229 390 229 b 265 435 335 292 296 361 l 264 438 b 264 439 264 438 264 439 b 271 456 263 446 264 454 b 332 501 299 460 314 483 b 374 547 347 515 364 529 b 358 550 368 554 363 551 b 282 529 333 543 308 536 b 250 518 271 525 261 521 b 228 539 239 515 229 524 b 240 554 226 549 231 556 b 279 574 257 553 268 563 b 331 625 296 590 314 608 b 339 638 335 629 338 633 b 336 644 340 639 338 644 b 317 647 329 647 322 647 b 225 631 285 646 256 636 b 200 646 210 628 203 631 b 189 714 196 668 190 692 b 192 876 185 768 181 822 b 207 897 194 890 200 897 b 226 890 213 897 218 894 b 232 886 229 889 231 888 l 244 878 b 306 799 269 853 288 829 b 331 758 313 786 313 769 b 406 833 356 782 381 808 b 411 861 414 842 415 851 b 281 994 392 911 343 994 b 224 968 261 994 240 986 b 157 901 201 946 181 922 b 96 782 122 869 104 828 b 90 688 92 750 88 719 b 96 619 92 665 93 642 b 83 583 97 606 94 594 b 28 528 65 565 46 547 b 21 510 24 524 14 519 b 50 514 32 506 40 511 b 97 525 65 518 81 522 b 110 521 101 526 108 524 b 121 479 118 508 121 493 b 99 461 119 467 107 467 b 24 390 69 442 49 414 b 15 369 19 386 11 382 b 57 386 31 375 44 381 b 74 392 63 388 68 390 l 106 403 b 122 408 111 404 117 407 b 149 396 138 414 143 411 b 371 72 192 294 268 128 b 401 63 383 65 393 63 b 438 82 414 63 424 68 b 493 138 456 100 474 119 b 522 221 521 160 528 188 b 450 450 514 288 475 388 b 428 485 444 461 442 475 z "},"μ":{"ha":711,"x_min":0,"x_max":0,"o":"m 238 714 b 178 654 215 692 196 674 b 154 574 136 613 144 628 b 157 564 156 571 157 567 b 201 390 172 506 188 449 l 293 42 b 338 -132 307 -17 322 -74 b 367 -224 346 -162 350 -196 b 447 -156 403 -212 419 -178 b 454 -124 457 -147 458 -136 b 444 -92 451 -114 449 -103 b 342 299 411 39 376 169 b 336 344 339 313 332 325 b 372 306 351 329 361 317 b 424 251 390 288 406 268 b 449 238 435 242 442 238 b 474 253 457 238 464 243 b 488 265 478 257 482 261 l 513 292 b 526 304 518 296 522 300 b 560 378 550 324 560 347 b 564 442 560 399 563 419 b 575 463 565 447 563 457 b 661 228 604 386 624 307 b 738 303 690 254 713 279 b 744 342 750 314 751 325 b 624 721 697 465 656 592 b 615 749 622 731 618 740 b 594 753 611 758 603 760 b 588 746 593 750 590 749 b 485 549 499 653 508 693 b 474 436 479 513 478 474 b 460 404 474 426 474 414 b 238 714 378 501 301 599 z "},"¬":{"ha":564,"x_min":0,"x_max":0,"o":"m 14 908 b 204 928 82 911 143 921 b 394 946 268 933 331 944 b 408 876 400 919 403 897 b 463 758 414 857 446 758 b 511 801 469 758 507 794 l 526 815 b 533 822 529 818 531 819 b 542 868 554 843 553 846 b 494 1028 517 917 494 972 b 479 1042 494 1038 489 1042 b 444 1039 468 1042 456 1040 b 146 1006 346 1028 246 1014 b 69 969 115 1003 90 994 b 14 908 53 950 32 935 z "},"¶":{"ha":643,"x_min":0,"x_max":0,"o":"m 529 996 b 396 1006 481 1007 439 1013 b 257 979 350 999 301 994 b 153 914 217 965 182 946 b 86 849 132 892 110 869 b 39 704 46 808 33 760 b 200 365 49 590 133 457 b 285 244 228 325 253 282 b 313 100 294 196 304 149 b 315 90 314 96 314 93 b 338 0 322 60 322 29 b 414 65 372 11 388 44 b 425 106 428 76 429 89 b 318 763 379 322 343 542 l 304 889 b 324 910 303 904 308 910 b 346 886 340 911 344 907 b 376 611 351 794 364 703 b 481 50 403 422 440 236 b 494 13 483 38 485 25 b 561 75 519 33 539 56 b 578 131 579 90 583 107 b 482 629 540 296 507 463 b 449 874 469 711 460 792 b 471 935 444 899 451 917 b 529 996 490 951 508 969 z "},"¤":{"ha":533,"x_min":0,"x_max":0,"o":"m 350 294 b 376 265 364 289 369 275 b 422 207 393 246 407 226 b 447 207 431 196 436 196 b 508 271 468 228 488 249 b 511 304 522 286 522 288 b 497 324 507 311 501 317 l 468 361 b 454 379 464 367 460 374 b 446 415 446 390 442 401 b 444 542 458 457 454 500 b 439 571 442 551 438 561 b 424 626 442 592 432 610 b 410 653 419 636 415 644 b 417 703 397 676 392 676 b 454 742 429 717 442 729 b 463 778 465 753 468 764 b 453 800 460 786 457 793 b 429 804 449 810 438 813 b 385 764 414 792 400 778 b 354 763 375 756 365 746 b 340 767 351 767 344 769 b 306 768 328 757 318 761 b 256 783 285 778 269 783 b 196 750 236 783 219 772 l 175 729 b 153 711 168 722 161 715 b 96 763 129 722 121 750 b 21 683 71 736 46 710 b 18 657 13 676 13 667 b 82 542 40 619 50 574 b 86 529 85 539 86 533 b 125 392 90 481 103 435 b 119 363 132 381 129 372 b 40 281 92 336 67 308 b 32 260 35 275 29 268 b 50 228 36 249 33 231 b 78 244 63 225 69 236 b 83 251 81 247 82 249 l 96 264 b 164 328 117 286 140 307 b 185 311 172 326 178 318 b 229 281 199 301 213 289 b 283 264 247 271 265 264 b 339 288 301 264 321 271 b 350 294 342 290 346 292 z m 360 386 b 338 365 360 368 350 361 b 186 582 253 401 201 496 b 182 669 181 611 176 640 b 200 681 183 679 192 685 b 317 553 254 647 290 615 b 358 401 335 503 354 454 b 360 386 358 394 360 389 z "},"˘":{"ha":476,"x_min":0,"x_max":0,"o":"m 153 1042 b 131 1029 142 1043 136 1035 b 68 967 110 1010 89 988 b 65 944 63 961 61 953 b 206 782 85 885 129 782 b 271 810 226 782 249 792 b 378 918 310 843 344 881 b 426 1039 408 951 425 993 b 422 1051 428 1043 425 1050 b 408 1049 419 1053 411 1051 b 353 994 390 1031 372 1013 b 333 951 340 982 332 971 b 319 894 336 932 328 913 b 289 878 314 881 303 875 b 174 996 229 885 196 947 b 153 1042 167 1011 164 1029 z "},"˛":{"ha":333,"x_min":0,"x_max":0,"o":"m 167 193 b 53 63 117 161 79 115 b 57 -46 35 26 38 -11 b 200 -144 86 -100 146 -125 b 226 -137 210 -147 218 -146 b 303 -61 251 -112 276 -86 b 249 -33 285 -44 265 -42 b 171 18 219 -21 193 -6 b 151 158 133 60 126 108 b 167 193 157 169 169 179 z "},"ƒ":{"ha":467,"x_min":0,"x_max":0,"o":"m 15 419 b 53 419 28 411 40 417 b 82 424 63 421 72 422 l 140 435 b 169 439 150 436 160 438 b 199 424 189 443 190 442 b 313 172 238 340 276 257 b 332 113 321 154 335 136 b 271 135 306 104 290 125 b 207 179 249 147 228 165 b 168 207 194 188 182 197 b 79 114 139 176 106 150 b 281 1 126 76 217 6 b 353 26 308 -1 332 4 b 411 85 371 46 390 67 b 436 188 446 114 450 149 b 407 265 428 214 418 240 b 329 436 381 322 354 379 b 325 463 325 444 318 453 b 376 478 343 468 360 472 b 385 485 379 479 382 482 b 447 547 406 506 426 526 b 451 561 450 550 454 554 b 415 561 440 568 428 563 b 322 546 385 556 354 550 b 268 575 283 539 282 539 b 151 904 224 682 179 792 b 153 939 149 915 143 926 b 214 893 178 931 196 911 b 247 869 224 885 228 869 b 322 944 271 893 296 919 b 324 967 329 951 329 960 b 185 1054 294 1003 235 1054 b 139 1032 168 1054 153 1047 b 75 969 118 1011 97 990 b 44 890 51 949 43 921 b 63 793 46 857 53 825 b 142 561 83 714 113 638 b 151 518 147 547 157 535 b 142 515 149 518 144 517 l 121 511 b 110 508 117 510 114 510 b 88 499 101 506 93 503 b 28 439 67 479 47 460 b 15 419 22 433 14 429 z "},"¦":{"ha":357,"x_min":0,"x_max":0,"o":"m 106 1085 b 28 1011 74 1057 53 1033 b 17 971 17 1000 13 988 b 67 717 33 886 50 801 b 86 626 72 686 74 656 b 160 688 119 636 135 668 b 175 736 175 700 179 715 b 146 881 164 783 156 832 b 106 1085 133 946 119 1011 z m 236 507 b 154 429 204 485 181 456 b 149 406 147 422 147 414 b 149 404 149 406 149 404 l 150 400 b 150 397 150 399 150 399 l 153 381 b 153 379 153 381 153 379 l 154 375 b 246 21 178 253 211 136 b 263 0 249 13 250 4 b 321 57 281 18 300 39 b 338 121 342 75 347 92 b 243 492 301 243 264 365 b 236 507 243 496 239 500 z "},"ð":{"ha":504,"x_min":0,"x_max":0,"o":"m 399 960 b 367 929 388 950 378 940 b 308 864 344 910 326 888 b 282 828 299 851 290 839 b 251 796 272 817 268 803 b 131 990 211 860 182 931 b 56 914 103 964 79 939 b 53 881 42 900 42 897 b 164 689 94 819 129 754 b 163 643 172 672 171 660 b 65 478 129 589 97 533 b 64 453 63 471 54 465 b 164 572 99 492 142 524 b 183 607 169 585 176 596 b 204 606 190 618 199 618 l 279 444 b 271 404 286 429 283 417 b 190 318 242 378 215 349 b 161 128 146 260 138 196 b 299 0 181 71 232 0 b 358 26 321 0 342 8 b 428 97 382 51 404 75 b 469 204 458 126 471 163 b 282 729 469 343 346 603 b 285 779 272 749 272 763 b 388 931 319 829 353 879 b 399 958 393 939 404 946 b 400 960 399 960 400 960 z m 378 122 b 356 103 378 104 368 96 b 321 122 343 108 331 114 b 246 324 260 175 233 242 b 261 369 247 339 254 354 b 293 396 268 382 276 397 b 310 368 306 394 306 378 b 375 138 339 293 368 218 b 378 122 376 131 376 125 z "},"^":{"ha":446,"x_min":0,"x_max":0,"o":"m 153 506 b 178 451 171 486 172 468 b 333 21 224 306 276 163 b 349 -1 339 6 343 -1 b 365 11 353 -1 357 3 b 408 53 381 25 393 42 b 422 125 436 74 435 94 b 185 844 326 360 247 599 b 147 997 172 896 160 947 b 125 1006 144 1011 135 1014 b 69 950 107 988 89 967 b 44 885 49 932 44 911 b 57 560 50 776 54 668 b 53 338 60 486 58 411 b 39 156 49 278 46 217 b 19 44 36 119 32 81 b 19 22 18 39 8 33 b 82 85 40 43 61 65 b 121 157 104 104 115 128 b 140 303 129 206 136 254 b 153 506 144 368 149 433 z "},"¨":{"ha":392,"x_min":0,"x_max":0,"o":"m 264 949 b 225 917 246 940 236 928 b 214 906 221 913 218 910 l 192 882 b 181 871 188 878 185 875 b 176 857 178 867 176 861 b 179 758 176 824 178 792 b 193 753 179 753 189 749 b 263 822 217 776 240 799 b 272 849 271 829 274 839 b 264 949 272 868 269 935 z m 122 949 b 83 917 106 940 96 928 b 72 906 81 913 76 910 l 51 882 b 40 871 47 878 44 875 b 35 857 36 867 35 861 b 38 758 35 824 36 792 b 51 753 38 753 47 749 b 69 771 57 758 64 765 l 104 804 b 122 822 110 810 117 817 b 131 849 129 829 132 839 b 122 949 131 868 129 936 z "},"ˇ":{"ha":346,"x_min":0,"x_max":0,"o":"m 33 1038 b 33 1017 29 1029 31 1024 b 89 793 56 943 74 868 b 122 729 93 768 103 747 b 139 714 128 725 133 719 l 172 682 b 189 667 178 676 183 672 b 204 694 200 676 203 685 b 278 944 225 779 250 863 b 269 983 283 961 283 972 b 246 1008 261 992 253 1000 b 196 1051 218 1036 204 1051 b 144 913 183 1051 150 935 b 128 929 132 913 129 921 b 33 1038 121 961 60 1019 z "},"ˆ":{"ha":350,"x_min":0,"x_max":0,"o":"m 6 764 b 69 824 31 781 49 804 b 100 874 85 838 96 853 b 117 889 103 881 106 889 b 122 871 119 883 121 876 l 135 833 b 140 814 136 826 139 821 b 168 750 156 771 158 750 b 224 800 176 750 219 790 l 236 813 b 242 818 238 814 240 817 b 251 857 256 829 257 840 b 178 1107 222 939 197 1022 b 161 1136 175 1117 172 1126 b 94 1072 138 1117 118 1093 b 61 1008 75 1056 65 1033 b 6 785 46 933 28 858 b 6 764 4 778 1 772 z "},"˚":{"ha":385,"x_min":0,"x_max":0,"o":"m 281 928 b 176 1056 281 986 242 1056 b 138 1039 163 1056 149 1050 b 51 951 108 1010 78 982 b 35 786 11 907 6 836 b 107 738 53 754 79 738 b 167 763 128 738 147 746 b 250 847 196 789 224 818 b 281 928 272 869 281 897 z m 179 838 b 131 874 156 842 142 856 b 114 943 118 896 110 918 b 128 949 114 950 122 953 b 179 838 167 926 186 885 z "},"`":{"ha":232,"x_min":0,"x_max":0,"o":"m 75 1042 b 13 974 49 1018 32 994 b 3 922 -1 960 -4 943 b 65 765 22 869 43 817 b 82 751 68 760 69 751 b 135 811 99 771 115 792 b 142 867 151 828 153 844 b 75 1042 117 922 96 978 z "},"´":{"ha":233,"x_min":0,"x_max":0,"o":"m 96 1042 b 4 867 65 978 36 922 b 3 811 -10 844 -11 828 b 47 751 19 792 33 771 b 65 765 60 751 63 760 b 150 922 96 817 124 869 b 149 974 161 943 160 960 b 96 1042 131 994 118 1018 z "},"˜":{"ha":442,"x_min":0,"x_max":0,"o":"m 14 840 l 15 839 b 28 843 19 840 24 842 b 90 861 47 856 69 861 b 146 850 108 861 128 857 b 192 833 161 844 176 838 b 244 825 210 828 228 825 b 319 849 271 825 296 832 b 428 956 360 878 393 915 b 415 954 421 954 417 956 b 332 919 390 929 361 919 b 278 929 314 919 296 922 l 218 950 b 176 957 203 954 189 957 b 94 924 146 957 119 946 b 24 856 69 901 47 878 b 14 840 18 851 14 847 z "},"~":{"ha":1267,"x_min":0,"x_max":0,"o":"m 1200 647 b 1097 536 1163 613 1119 583 b 961 475 1075 489 1008 475 b 740 542 883 475 807 507 b 604 611 696 565 650 589 b 408 665 549 639 472 665 b 250 604 350 665 297 646 b 78 429 188 551 129 493 b 74 408 75 424 65 419 b 163 501 104 439 138 467 b 318 571 196 547 264 571 b 539 506 396 571 471 539 b 675 436 585 482 629 458 b 872 379 733 407 806 379 b 1040 450 935 379 992 403 b 1133 544 1072 481 1103 513 b 1200 647 1163 574 1185 607 z "},"™":{"ha":947,"x_min":0,"x_max":0,"o":"m 867 633 b 926 706 892 658 907 683 b 928 746 935 717 935 729 b 871 921 904 804 885 863 b 847 1029 864 957 856 993 b 840 1060 846 1039 843 1050 b 817 1067 838 1071 825 1075 b 806 1054 813 1063 808 1058 b 739 968 783 1025 761 996 b 694 917 724 950 719 924 b 625 974 668 931 649 953 l 622 975 b 621 976 622 976 621 976 l 611 986 b 610 988 611 986 610 988 l 607 989 b 544 1047 585 1010 565 1028 b 515 1047 532 1058 525 1058 b 467 986 499 1028 485 1006 b 456 929 454 969 451 951 b 539 633 468 863 506 692 b 560 646 551 633 556 640 l 593 690 b 604 706 597 696 600 701 b 606 733 611 714 608 722 b 572 836 593 767 582 801 b 575 857 569 843 564 853 b 622 822 590 846 606 833 b 654 821 633 814 646 814 b 749 947 688 854 726 908 b 768 957 751 953 754 963 b 806 801 781 906 790 853 b 867 633 821 747 836 693 z m 446 1031 b 343 1042 410 1040 376 1042 b 163 1036 282 1042 222 1042 b 78 1025 135 1032 100 1042 b 25 964 57 1010 43 986 b 17 940 21 958 11 953 b 60 940 32 933 46 940 b 69 940 63 940 65 940 l 86 942 b 96 942 90 942 93 942 l 169 944 b 179 944 172 944 175 944 l 196 946 b 206 946 200 946 203 946 b 226 928 219 946 224 940 b 229 918 228 924 228 921 b 328 607 238 861 288 647 b 385 674 350 631 365 654 b 389 722 397 688 397 703 b 332 882 365 775 349 829 b 321 932 328 899 324 915 b 332 943 319 939 325 943 b 367 939 343 942 354 940 b 383 943 374 938 379 939 b 424 992 397 960 411 975 b 446 1031 432 1001 443 1010 z "},"×":{"ha":513,"x_min":0,"x_max":0,"o":"m 92 240 l 93 240 b 101 242 97 242 100 240 b 219 403 171 307 179 322 b 240 422 224 411 226 422 b 271 386 250 411 260 399 b 301 350 282 374 292 361 l 364 275 b 394 239 374 264 385 251 b 426 238 407 224 414 224 b 490 300 449 258 469 279 b 490 329 501 311 501 315 b 335 514 438 390 386 453 b 329 521 333 517 332 518 l 319 535 b 314 542 318 538 315 539 b 311 569 307 550 306 560 b 329 599 317 579 322 589 l 404 726 b 431 774 414 742 422 757 b 435 800 436 782 444 792 b 411 790 425 808 418 797 b 374 753 399 778 386 765 b 340 696 357 736 338 724 l 294 615 b 271 596 290 607 286 596 b 214 667 253 618 233 643 b 160 738 196 690 179 714 b 100 813 140 761 125 788 b 35 747 76 789 56 768 b 31 692 10 721 8 721 b 189 489 83 624 135 556 b 193 440 201 472 204 460 b 104 276 161 386 133 332 b 93 240 99 265 88 254 b 92 240 93 240 92 240 z "},"ß":{"ha":844,"x_min":0,"x_max":0,"o":"m 206 814 b 336 722 242 799 307 751 b 367 633 363 699 371 668 b 344 543 363 603 354 572 l 335 518 b 331 504 333 513 332 508 b 351 471 325 482 329 474 b 697 346 472 456 604 432 b 731 299 711 333 724 318 b 706 217 743 267 733 235 b 631 181 682 200 657 188 b 551 213 594 171 569 181 b 531 263 542 228 535 244 b 501 388 519 304 511 346 b 489 408 500 394 503 404 b 414 333 464 385 438 360 b 407 301 406 324 406 314 b 442 158 415 253 425 204 b 457 122 444 146 450 133 b 535 85 475 89 497 79 b 568 94 546 86 557 90 b 803 293 664 139 733 215 b 811 304 807 296 808 300 b 803 426 839 347 835 389 b 482 561 731 508 586 550 b 438 567 467 563 451 564 b 424 588 425 568 421 576 b 429 604 425 593 428 599 l 440 636 b 461 731 451 667 460 699 b 426 818 464 765 453 794 b 376 858 411 833 394 846 b 338 885 364 867 350 875 l 260 935 b 182 979 247 944 199 979 b 160 967 175 979 168 975 b 93 900 138 944 115 922 b 82 865 83 890 79 879 b 88 826 83 853 85 839 b 264 60 126 582 182 296 b 292 0 271 39 275 18 b 367 71 321 22 342 49 b 374 111 381 83 379 94 b 214 729 297 304 253 526 b 206 814 210 756 200 781 z "},"'":{"ha":165,"x_min":0,"x_max":0,"o":"m 106 1036 b 33 968 76 1013 56 989 b 17 917 17 954 13 938 b 57 760 28 864 42 811 b 72 746 58 754 58 746 b 133 806 90 765 111 786 b 147 861 151 822 156 839 b 106 1036 131 917 117 972 z "},"&":{"ha":847,"x_min":0,"x_max":0,"o":"m 138 313 l 139 311 b 271 369 182 332 225 354 b 306 374 282 374 294 378 b 307 372 306 372 307 372 l 308 372 b 233 289 279 347 254 322 b 281 58 185 210 204 113 b 511 0 339 14 440 0 b 804 140 665 0 708 35 b 814 256 839 176 842 214 b 744 317 797 282 772 301 b 550 357 685 351 619 363 b 442 307 508 354 469 343 b 404 268 431 293 417 282 b 401 253 401 265 399 261 b 414 256 406 254 410 254 l 440 260 b 453 263 444 261 449 263 b 685 201 539 274 617 253 b 733 140 707 186 724 165 b 717 108 740 121 738 114 b 619 96 685 99 653 97 b 440 118 558 94 499 99 b 363 160 411 128 385 140 b 306 319 313 201 294 256 b 356 386 310 350 325 372 b 472 422 394 401 432 418 b 661 453 536 429 597 450 b 685 460 669 453 678 454 b 701 478 690 465 696 472 l 736 513 b 753 531 742 519 747 525 b 754 539 756 533 757 536 b 746 544 751 542 749 544 b 668 538 719 542 693 542 b 465 496 599 528 532 515 b 424 511 446 490 435 496 b 179 899 338 638 251 764 b 164 935 174 911 169 924 b 176 935 168 935 174 936 b 208 904 188 925 199 915 b 449 618 296 817 374 718 b 471 617 456 610 464 611 b 533 679 492 638 511 660 b 549 728 550 693 553 708 b 528 988 531 813 526 900 b 524 1000 528 992 529 997 b 511 997 518 1003 515 1000 b 472 958 499 985 486 969 b 431 869 444 936 428 908 b 428 867 431 869 429 868 b 403 888 414 867 410 879 b 203 1083 342 957 279 1029 b 156 1111 188 1093 172 1103 b 133 1117 147 1115 140 1117 b 97 1100 121 1117 108 1111 b 35 1038 78 1078 57 1057 b 15 979 17 1021 13 1001 b 290 476 33 861 217 586 b 303 446 297 468 307 460 b 299 443 301 446 300 444 b 282 435 293 440 288 436 b 144 333 225 415 183 375 b 138 313 139 326 133 321 b 138 313 138 313 138 313 z m 163 938 b 164 940 163 939 163 940 b 164 939 164 940 164 939 z m 308 374 l 310 374 b 308 372 310 374 308 372 z "},"‘":{"ha":139,"x_min":0,"x_max":0,"o":"m 122 1024 b 124 1042 126 1031 124 1042 b 63 960 103 1014 83 986 b 15 838 33 924 19 883 b 22 721 13 799 18 760 b 32 706 24 717 28 713 b 103 794 60 733 81 765 b 106 818 108 801 107 810 b 101 847 104 828 101 838 b 122 1024 94 907 93 968 z "},"’":{"ha":139,"x_min":0,"x_max":0,"o":"m 17 724 b 17 706 14 718 15 706 b 78 788 36 733 57 761 b 124 910 106 824 121 864 b 117 1026 126 949 122 988 b 108 1042 117 1031 113 1035 b 38 953 81 1014 60 983 b 33 929 32 946 32 938 b 35 922 33 926 35 925 l 38 908 b 39 901 38 906 39 904 b 17 724 44 840 47 779 z "},"‚":{"ha":139,"x_min":0,"x_max":0,"o":"m 17 -149 b 17 -167 14 -154 15 -167 b 78 -85 36 -139 57 -111 b 124 38 106 -49 121 -8 b 117 154 126 76 122 115 b 108 169 117 158 113 163 b 38 81 81 142 60 111 b 33 57 32 74 32 65 b 35 50 33 54 35 53 l 38 36 b 39 29 38 33 39 32 b 17 -149 44 -32 47 -93 z "},"“":{"ha":263,"x_min":0,"x_max":0,"o":"m 122 1024 b 124 1042 126 1031 124 1042 b 63 960 103 1014 83 986 b 15 838 33 924 18 883 b 22 721 13 799 18 760 b 32 706 24 717 28 713 b 103 794 60 733 81 765 b 106 818 108 801 107 810 b 101 847 104 828 101 838 b 122 1024 94 907 93 968 z m 246 1024 b 247 1042 249 1031 247 1042 b 185 960 226 1014 206 986 b 139 838 157 924 142 883 b 146 721 136 799 140 760 b 154 706 146 717 150 713 b 225 794 182 733 203 765 b 229 818 231 801 231 810 b 229 819 229 819 229 819 l 228 824 b 228 825 228 824 228 825 l 225 840 b 225 842 225 842 225 842 l 224 846 b 224 847 224 846 224 847 b 246 1024 218 907 215 968 z "},"”":{"ha":261,"x_min":0,"x_max":0,"o":"m 139 724 b 139 706 136 718 139 706 b 200 788 160 733 179 761 b 246 910 228 824 243 864 b 239 1026 249 949 244 988 b 231 1042 239 1031 235 1035 b 160 954 203 1014 182 983 b 156 931 154 947 156 938 b 156 929 156 931 156 929 l 157 925 b 157 924 157 925 157 925 l 160 908 b 160 907 160 908 160 907 l 161 903 b 161 901 161 903 161 903 b 139 724 167 840 169 781 z m 17 724 b 15 706 14 718 15 706 b 78 788 36 733 56 761 b 124 910 106 824 121 864 b 117 1026 126 949 121 988 b 107 1042 117 1031 113 1035 b 36 954 81 1014 60 983 b 33 931 32 947 32 938 b 38 901 35 921 38 911 b 17 724 44 840 46 781 z "},"„":{"ha":261,"x_min":0,"x_max":0,"o":"m 139 -149 b 139 -167 136 -154 139 -167 b 200 -85 160 -139 179 -111 b 246 38 228 -49 243 -8 b 239 154 249 76 244 115 b 231 169 239 158 235 163 b 160 82 203 142 182 111 b 156 58 154 75 156 65 b 156 57 156 58 156 57 l 157 53 b 157 51 157 53 157 53 l 160 36 b 160 35 160 36 160 35 l 161 31 b 161 29 161 31 161 31 b 139 -149 167 -32 169 -92 z m 17 -149 b 15 -167 14 -154 15 -167 b 78 -85 36 -139 56 -111 b 124 38 106 -49 121 -8 b 117 154 126 76 121 115 b 107 169 117 158 113 163 b 36 82 81 142 60 111 b 33 58 32 75 32 65 b 38 29 35 49 38 39 b 17 -149 44 -32 46 -92 z "},"+":{"ha":539,"x_min":0,"x_max":0,"o":"m 14 450 b 236 451 22 443 133 446 b 268 347 253 399 265 357 b 294 308 272 331 279 317 b 313 299 301 306 307 301 l 368 268 b 383 278 376 263 385 267 b 333 457 378 328 351 407 b 418 460 378 458 410 460 b 463 476 436 460 450 463 b 521 536 481 496 501 515 b 515 553 528 543 525 551 b 447 556 493 557 469 556 l 407 556 b 300 549 356 553 326 551 b 281 615 294 567 289 588 b 203 713 268 663 247 696 b 154 735 186 719 175 736 b 206 543 149 725 176 635 b 163 542 193 543 179 542 b 47 492 114 542 76 529 b 14 450 38 478 18 469 z "},"=":{"ha":554,"x_min":0,"x_max":0,"o":"m 14 481 b 72 475 17 476 39 475 b 417 489 178 475 392 490 b 461 506 435 489 449 492 b 519 565 479 526 500 544 b 514 583 526 572 524 581 b 406 585 478 588 442 586 b 161 571 282 581 285 572 b 46 521 113 571 75 560 b 14 481 36 507 17 500 z m 29 339 b 81 335 32 336 53 335 b 433 349 185 335 407 350 b 476 365 450 349 464 351 b 535 425 496 385 517 404 b 529 442 543 432 540 440 b 422 444 494 447 458 444 b 176 431 297 439 301 432 b 63 381 128 431 90 418 b 29 339 51 367 33 358 z "},"÷":{"ha":538,"x_min":0,"x_max":0,"o":"m 235 631 b 279 832 301 700 281 749 b 274 839 279 835 276 838 b 265 838 272 840 267 839 b 249 817 260 831 254 824 l 215 774 b 199 753 210 767 204 760 b 192 725 193 744 189 735 b 201 622 201 692 199 657 b 204 608 201 617 203 613 b 213 606 206 607 211 606 b 235 631 221 614 228 622 z m 14 468 b 65 464 17 465 36 464 b 417 478 168 464 392 479 b 461 494 435 478 449 481 b 519 554 481 514 500 533 b 514 571 526 561 524 569 b 446 574 492 575 469 575 l 419 574 b 406 574 415 574 410 574 b 161 560 282 568 285 561 b 46 510 113 560 75 547 b 14 468 36 496 17 488 z m 299 225 b 342 425 364 293 343 342 b 336 432 342 428 339 431 b 328 431 335 433 329 432 b 311 410 322 424 317 417 l 278 367 b 261 346 272 360 267 353 b 254 318 256 338 251 328 b 264 215 264 285 261 250 b 267 201 264 211 265 206 b 275 200 268 200 274 199 b 299 225 283 207 290 217 z "},"-":{"ha":539,"x_min":0,"x_max":0,"o":"m 14 440 b 67 436 17 438 38 436 b 418 450 169 436 393 451 b 463 467 435 450 450 453 b 521 526 481 486 501 506 b 515 543 528 533 525 542 b 447 546 493 547 471 547 l 421 546 b 407 546 417 546 411 546 b 161 532 282 540 286 533 b 47 482 114 532 76 519 b 14 440 38 468 18 460 z "},"±":{"ha":613,"x_min":0,"x_max":0,"o":"m 14 593 b 236 594 22 586 133 589 b 268 490 253 542 265 500 b 294 451 272 474 279 460 b 313 442 301 449 307 444 l 368 411 b 383 421 376 406 385 410 b 333 600 378 471 351 550 b 418 603 378 601 410 603 b 463 619 436 603 450 606 b 521 679 481 639 501 658 b 515 696 528 686 525 694 b 447 699 493 700 469 699 l 407 699 b 300 692 356 696 326 694 b 281 758 294 710 289 731 b 203 856 268 806 247 839 b 154 878 186 863 175 879 b 206 686 149 868 176 778 b 163 685 193 686 179 685 b 47 635 114 685 76 672 b 14 593 38 621 18 613 z m 88 219 b 146 214 92 215 114 214 b 492 229 251 214 467 229 b 536 244 510 228 524 232 b 594 304 554 265 575 285 b 589 322 601 313 599 321 b 481 324 553 328 517 325 b 236 310 357 319 360 311 b 121 260 188 310 150 299 b 88 219 111 246 92 239 z "},"‹":{"ha":804,"x_min":0,"x_max":0,"o":"m 632 653 b 628 660 631 656 629 658 b 565 633 607 651 586 643 b 192 510 444 582 318 544 b 125 471 165 501 143 492 b 67 406 107 449 79 433 b 149 368 88 381 121 378 b 560 229 286 322 424 279 b 707 175 608 211 658 194 b 742 182 721 169 732 171 b 757 197 747 188 751 192 l 786 226 b 801 240 792 231 797 236 b 797 269 817 256 815 263 b 608 338 735 292 671 317 b 531 364 582 347 557 356 l 374 418 b 296 444 349 426 322 436 b 268 463 285 447 272 447 b 515 556 351 490 435 519 b 558 581 531 563 546 571 b 632 653 583 604 607 628 z "},"›":{"ha":804,"x_min":0,"x_max":0,"o":"m 269 181 b 274 172 271 178 272 175 b 289 179 279 175 285 176 l 321 192 b 710 324 447 246 578 286 b 776 361 735 331 758 340 b 835 426 794 383 821 399 b 753 464 814 451 781 454 b 342 603 615 510 478 553 l 194 657 b 158 650 181 663 169 661 b 100 592 139 631 119 611 b 104 564 85 576 86 571 b 606 389 269 501 438 444 b 633 369 617 385 629 386 b 624 367 631 368 626 367 l 603 358 b 343 251 553 343 381 285 b 269 181 318 229 293 204 z "},"<":{"ha":1099,"x_min":0,"x_max":0,"o":"m 904 643 b 900 650 903 646 901 649 b 838 624 879 642 858 633 b 139 500 717 572 265 535 b 72 461 113 492 90 482 b 14 396 54 439 26 424 b 979 165 72 326 803 233 b 1015 172 993 160 1004 161 b 1074 231 1035 192 1054 211 b 1069 260 1089 246 1088 253 b 214 453 953 303 225 414 b 225 456 218 454 221 456 l 246 464 b 256 467 249 464 253 465 b 788 546 326 490 721 515 b 831 571 803 553 818 561 b 904 643 856 594 881 618 z "},">":{"ha":1100,"x_min":0,"x_max":0,"o":"m 194 164 b 199 156 196 161 197 158 b 214 163 204 158 210 160 l 246 175 b 261 182 251 178 256 181 b 960 307 382 233 833 271 b 1026 344 986 314 1010 324 b 1086 410 1046 367 1072 382 b 119 640 1028 479 297 572 b 85 633 106 646 96 644 b 69 619 81 629 75 624 l 40 590 b 25 575 35 585 31 581 b 29 547 11 560 11 554 b 885 353 146 503 875 392 b 875 350 882 351 878 350 l 854 342 b 843 339 850 342 847 340 b 311 260 774 315 378 290 b 269 235 297 253 281 246 b 194 164 243 213 219 188 z "},"«":{"ha":1321,"x_min":0,"x_max":0,"o":"m 657 653 b 653 660 656 656 654 658 b 590 633 632 651 611 643 b 218 510 469 582 344 544 b 150 471 192 501 168 492 b 92 406 132 449 106 433 b 174 368 114 381 146 378 b 585 229 311 322 449 279 b 732 175 633 211 683 194 b 768 182 746 169 757 171 b 826 240 788 201 807 221 b 822 269 842 256 840 263 b 633 338 760 292 697 317 b 556 364 607 347 582 356 l 399 418 b 379 425 392 421 386 422 l 340 438 b 321 444 333 440 328 443 b 293 463 310 447 297 447 b 304 465 297 464 301 464 l 325 474 b 335 476 329 475 332 475 b 540 556 404 500 474 525 b 583 581 556 563 571 571 b 657 653 608 604 633 628 z m 1128 653 b 1124 660 1126 656 1125 658 b 1061 633 1103 651 1082 643 b 688 510 940 582 814 544 b 621 471 661 501 639 492 b 563 406 601 449 575 433 b 644 368 583 381 615 378 b 1054 229 781 322 919 279 b 1203 175 1104 211 1153 194 b 1238 182 1217 169 1226 171 b 1253 197 1243 188 1247 193 l 1282 226 b 1297 240 1288 232 1293 236 b 1293 269 1311 256 1311 263 b 1103 338 1229 292 1167 317 b 1025 364 1076 347 1051 356 l 868 418 b 849 425 861 421 856 422 l 810 438 b 790 444 803 440 797 443 b 763 463 781 447 767 447 b 774 465 767 464 771 464 l 794 474 b 804 476 799 475 801 475 b 1011 556 874 500 943 525 b 1053 581 1025 563 1040 571 b 1128 653 1079 604 1103 628 z "},".":{"ha":221,"x_min":0,"x_max":0,"o":"m 89 0 b 171 81 121 28 144 54 b 174 113 179 90 176 101 b 165 143 171 124 168 133 l 147 206 b 139 236 144 215 142 226 b 131 244 138 239 135 240 b 88 207 114 236 101 219 b 78 197 85 204 82 200 l 60 178 b 50 168 57 175 53 171 b 46 139 43 160 44 149 b 89 0 58 94 68 50 z "},"·":{"ha":160,"x_min":0,"x_max":0,"o":"m 58 374 b 140 454 90 401 114 428 b 143 486 149 464 146 475 b 135 517 140 497 138 507 l 117 579 b 108 610 114 589 111 600 b 100 618 107 613 104 614 b 57 581 83 610 71 593 b 47 571 54 578 51 574 l 29 551 b 19 542 26 549 22 544 b 15 513 13 533 14 522 b 58 374 28 468 38 424 z "},"˙":{"ha":221,"x_min":0,"x_max":0,"o":"m 69 807 b 151 888 101 835 125 861 b 154 919 160 897 157 908 b 146 950 151 931 149 940 l 128 1013 b 119 1043 125 1022 122 1033 b 111 1051 118 1046 115 1047 b 68 1014 94 1043 82 1026 b 58 1004 65 1011 63 1007 l 40 985 b 31 975 38 982 33 978 b 26 946 24 967 25 956 b 69 807 39 901 49 857 z "},"˝":{"ha":435,"x_min":0,"x_max":0,"o":"m 150 1019 b 206 833 154 1006 210 838 b 174 911 206 833 175 906 b 115 1051 154 957 135 1004 b 88 1058 107 1071 101 1072 b 28 1000 68 1039 49 1019 b 21 961 15 988 14 976 b 133 682 60 868 96 775 b 150 665 136 676 139 671 b 239 753 179 692 206 724 b 261 715 247 738 254 726 b 278 714 265 710 272 708 b 351 786 303 738 326 761 b 353 808 358 793 357 800 b 265 1043 315 883 293 964 b 233 1129 256 1072 250 1103 b 161 1067 200 1119 186 1086 b 150 1019 143 1054 143 1040 z "},"¡":{"ha":272,"x_min":0,"x_max":0,"o":"m 101 990 b 19 910 69 963 46 936 b 17 878 11 900 14 889 b 25 847 19 867 22 857 l 51 754 b 60 746 53 751 56 750 b 103 783 76 754 89 771 b 113 793 106 786 110 790 l 131 813 b 140 822 133 815 138 819 b 144 851 147 831 146 842 b 101 990 132 896 122 940 z m 169 0 b 178 1 172 0 176 0 b 238 61 199 21 218 42 b 257 108 253 74 258 89 b 256 138 256 118 256 128 b 210 475 247 251 229 363 b 164 701 196 550 179 626 b 138 708 160 721 153 722 b 86 656 121 690 104 672 b 71 604 68 640 67 625 b 139 240 97 483 122 363 b 164 11 149 164 161 88 b 169 0 164 6 164 1 z "},"¿":{"ha":569,"x_min":0,"x_max":0,"o":"m 183 976 b 104 896 153 947 128 922 b 97 874 97 890 96 882 b 113 788 101 846 107 817 b 129 783 114 782 124 779 b 201 856 153 807 178 831 b 207 878 207 861 208 869 b 183 976 200 908 199 939 z m 419 114 b 404 111 410 113 407 111 b 149 131 318 121 233 129 b 119 136 139 132 129 133 b 115 147 114 138 113 143 b 126 163 118 153 122 158 b 267 532 224 267 265 392 b 246 753 267 606 254 679 b 238 763 244 757 243 763 b 222 754 235 763 222 757 l 214 747 b 211 744 214 747 213 746 l 186 718 b 183 715 185 717 183 717 l 175 708 b 172 706 175 708 174 707 b 153 644 151 689 149 669 b 171 429 165 574 172 501 b 36 83 168 297 126 181 b 17 47 26 74 8 64 b 53 39 22 35 40 39 b 357 11 154 31 256 26 b 439 0 385 7 413 4 b 479 15 456 -1 468 3 b 525 60 493 31 510 44 b 542 140 558 94 563 92 b 492 269 525 183 508 226 b 479 325 485 288 475 304 b 475 333 481 328 476 333 b 461 332 471 333 464 333 b 399 269 440 311 421 289 b 385 214 379 253 374 236 b 393 190 389 206 390 199 b 419 114 401 165 410 142 z "},"°":{"ha":293,"x_min":0,"x_max":0,"o":"m 279 908 b 175 1036 279 967 240 1036 b 136 1019 161 1036 147 1031 b 50 932 107 990 76 963 b 33 767 10 888 4 817 b 106 718 51 735 78 718 b 165 743 126 718 146 726 b 249 828 194 769 222 799 b 279 908 271 850 279 878 z m 178 818 b 129 854 154 822 140 836 b 113 924 117 876 108 899 b 126 929 113 931 121 933 b 178 818 165 907 185 865 z "},"»":{"ha":1321,"x_min":0,"x_max":0,"o":"m 746 200 b 750 193 747 197 749 194 b 813 219 771 201 792 210 b 1185 343 933 271 1058 308 b 1253 382 1211 351 1235 361 b 1311 447 1271 404 1297 419 b 1229 485 1289 472 1257 475 b 818 624 1092 531 954 574 b 671 678 769 642 719 658 b 635 671 657 683 646 682 b 576 613 615 651 596 632 b 581 583 561 597 563 590 b 769 515 643 561 706 536 b 847 489 796 506 821 497 l 1004 435 b 1024 428 1011 433 1017 431 l 1063 415 b 1082 408 1069 413 1075 411 b 1110 390 1093 406 1106 406 b 1099 388 1106 389 1101 389 l 1078 379 b 1068 376 1074 378 1071 378 b 863 297 999 353 929 328 b 819 272 847 290 832 282 b 746 200 794 249 769 225 z m 275 200 b 279 193 276 197 278 194 b 342 219 300 201 321 210 b 715 343 463 271 589 308 b 782 382 742 351 764 361 b 840 447 801 404 828 419 b 758 485 819 472 788 475 b 349 624 622 531 483 574 b 200 678 299 642 250 658 b 165 671 186 683 176 682 b 150 656 160 665 156 660 l 121 626 b 106 613 115 621 110 617 b 110 583 92 597 92 590 b 300 515 174 561 236 536 b 378 489 326 506 351 497 l 535 435 b 554 428 542 433 547 431 l 593 415 b 613 408 600 413 606 411 b 640 390 622 406 636 406 b 629 388 636 389 632 389 l 608 379 b 599 376 604 378 601 378 b 392 297 529 353 460 328 b 350 272 378 290 363 282 b 275 200 324 249 300 225 z "},"\"":{"ha":331,"x_min":0,"x_max":0,"o":"m 271 1036 b 199 968 242 1013 221 989 b 182 917 182 954 178 938 b 222 760 193 864 207 811 b 238 746 224 754 224 746 b 299 806 256 765 276 786 b 313 861 317 822 321 839 b 271 1036 296 917 282 972 z m 106 1036 b 33 968 76 1013 56 989 b 17 917 17 954 13 938 b 57 760 28 864 42 811 b 72 746 58 754 58 746 b 133 806 90 765 111 786 b 147 861 151 822 156 839 b 106 1036 131 917 117 972 z "},"⁄":{"ha":275,"x_min":0,"x_max":0,"o":"m 258 1154 b 168 1060 236 1138 176 1086 l 164 1044 b 51 386 114 826 78 608 b 17 -65 35 236 25 85 b 15 -115 15 -82 15 -99 b 22 -131 15 -121 14 -129 b 39 -122 29 -132 35 -126 b 85 -78 54 -107 68 -92 b 111 -12 106 -60 111 -39 b 126 272 115 82 119 178 b 257 1122 149 547 189 856 b 258 1154 260 1132 264 1142 z "},"¼":{"ha":1218,"x_min":0,"x_max":0,"o":"m 721 1154 b 631 1060 699 1138 639 1086 l 626 1044 b 514 386 576 826 540 608 b 479 -65 497 236 488 85 b 478 -115 478 -82 478 -99 b 485 -131 478 -121 476 -129 b 501 -122 492 -132 497 -126 b 547 -78 517 -107 531 -92 b 574 -12 568 -60 574 -39 b 589 272 578 82 582 178 b 719 1122 611 547 651 856 b 721 1154 722 1132 726 1142 z m 751 351 b 761 351 758 351 760 350 b 792 367 772 356 782 361 b 1010 422 860 401 933 418 b 1044 392 1038 424 1042 414 b 1106 82 1060 288 1081 183 b 1119 63 1108 69 1113 63 b 1135 72 1124 63 1128 65 b 1149 86 1140 76 1144 82 l 1178 114 b 1192 128 1182 118 1188 124 b 1201 168 1204 140 1206 153 b 1142 467 1178 267 1160 367 b 1143 500 1139 478 1135 490 b 1150 571 1160 522 1154 547 b 1104 947 1131 696 1117 822 b 1090 963 1103 954 1103 961 b 1029 903 1071 943 1051 922 b 1007 846 1013 888 1006 869 b 1021 600 1011 764 1013 682 b 1026 532 1024 578 1025 554 b 1006 506 1026 513 1025 510 b 867 456 957 494 910 479 b 853 456 863 453 858 451 b 858 489 850 468 857 478 b 867 522 861 500 864 511 b 885 914 893 651 897 783 b 871 986 882 939 876 963 b 849 993 868 999 857 1001 b 782 926 826 971 804 949 b 776 900 774 919 772 911 b 788 843 781 881 785 863 b 776 456 806 713 799 583 b 751 351 771 421 760 389 z m 125 67 b 208 79 154 71 182 76 b 293 86 236 82 265 86 b 354 78 314 86 335 85 b 372 82 363 75 368 78 b 446 156 397 107 421 131 b 439 175 451 161 447 171 b 375 182 418 182 396 182 b 351 201 361 182 354 188 b 350 207 351 204 350 206 l 347 219 b 346 225 347 221 346 224 b 221 767 301 406 260 586 l 179 965 b 158 972 176 978 168 981 b 103 917 140 954 122 935 b 69 849 82 899 72 875 b 38 650 69 789 54 707 b 14 565 31 624 24 599 b 122 681 58 603 94 636 b 131 658 126 669 129 664 l 201 340 b 239 188 214 290 226 239 b 229 164 240 178 242 169 b 125 67 192 146 154 111 z "},"½":{"ha":1426,"x_min":0,"x_max":0,"o":"m 721 1154 b 631 1060 699 1138 639 1086 l 626 1044 b 514 386 576 826 540 608 b 479 -65 497 236 488 85 b 478 -115 478 -82 478 -99 b 485 -131 478 -121 476 -129 b 501 -122 492 -132 497 -126 b 547 -78 517 -107 531 -92 b 574 -12 568 -60 574 -39 b 589 272 578 82 582 178 b 719 1122 611 547 651 856 b 721 1154 722 1132 726 1142 z m 125 67 b 208 79 154 71 182 76 b 293 86 236 82 265 86 b 354 78 314 86 335 85 b 372 82 363 75 368 78 b 446 156 397 107 421 131 b 439 175 451 161 447 171 b 375 182 418 182 396 182 b 351 201 361 182 354 188 b 350 207 351 204 350 206 l 347 219 b 346 225 347 221 346 224 b 221 767 301 406 260 586 l 179 965 b 158 972 176 978 168 981 b 103 917 140 954 122 935 b 69 849 82 899 72 875 b 38 650 69 789 54 707 b 14 565 31 624 24 599 b 122 681 58 603 94 636 b 131 658 126 669 129 664 l 201 340 b 239 188 214 290 226 239 b 229 164 240 178 242 169 b 125 67 192 146 154 111 z m 983 43 b 1001 47 990 40 996 42 b 1203 140 1063 99 1121 133 b 1308 125 1239 144 1275 140 b 1332 125 1317 122 1325 119 b 1375 167 1347 139 1361 153 b 1413 210 1388 181 1404 192 b 1292 513 1335 296 1325 407 b 1225 451 1265 494 1247 469 b 1207 389 1204 433 1201 414 l 1240 271 b 1247 233 1243 258 1250 247 b 1239 228 1243 231 1242 228 b 1092 149 1183 211 1136 185 b 1078 149 1088 144 1083 144 b 1079 167 1078 154 1078 161 b 1275 929 1122 426 1169 686 b 1283 957 1279 938 1282 947 b 1271 974 1285 965 1279 972 b 1236 972 1258 974 1247 974 b 1004 967 1158 968 1082 963 b 882 976 964 969 922 971 b 824 957 858 978 840 975 b 765 897 806 936 785 917 b 758 854 750 885 750 871 b 786 794 768 835 776 815 l 842 676 b 869 617 851 657 860 636 b 897 611 878 599 883 597 b 913 626 903 617 907 621 l 942 656 b 957 669 947 660 951 665 b 963 708 969 682 971 693 l 900 843 b 897 869 896 851 888 860 b 911 871 901 871 907 871 b 1147 879 990 869 1069 869 b 1172 881 1156 881 1164 881 b 1186 861 1185 879 1190 872 b 1176 833 1183 851 1179 842 b 1121 686 1157 785 1138 736 b 981 51 1051 479 1014 267 b 983 43 981 49 982 46 z "},"¾":{"ha":1386,"x_min":0,"x_max":0,"o":"m 889 1154 b 799 1060 867 1138 807 1086 l 794 1044 b 682 386 744 826 708 608 b 647 -65 665 236 656 85 b 646 -115 646 -82 646 -99 b 653 -131 646 -121 644 -129 b 669 -122 660 -132 665 -126 b 715 -78 685 -107 699 -92 b 742 -12 736 -60 742 -39 b 757 272 746 82 750 178 b 888 1122 779 547 819 856 b 889 1154 890 1132 894 1142 z m 919 351 b 929 351 926 351 928 350 b 960 367 940 356 950 361 b 1178 422 1028 401 1101 418 b 1213 392 1206 424 1210 414 b 1274 82 1228 288 1249 183 b 1288 63 1276 69 1281 63 b 1303 72 1292 63 1296 65 b 1317 86 1308 76 1313 82 l 1346 114 b 1360 128 1350 118 1356 124 b 1369 168 1372 140 1374 153 b 1310 467 1346 267 1328 367 b 1311 500 1307 478 1303 490 b 1318 571 1328 522 1322 547 b 1272 947 1299 696 1285 822 b 1258 963 1271 954 1271 961 b 1197 903 1239 943 1219 922 b 1175 846 1181 888 1174 869 b 1189 600 1179 764 1181 682 b 1194 532 1192 578 1193 554 b 1174 506 1194 513 1193 510 b 1035 456 1125 494 1078 479 b 1021 456 1031 453 1026 451 b 1026 489 1018 468 1025 478 b 1035 522 1029 500 1032 511 b 1053 914 1061 651 1065 783 b 1039 986 1050 939 1044 963 b 1017 993 1036 999 1025 1001 b 950 926 994 971 972 949 b 944 900 942 919 940 911 b 956 843 949 881 953 863 b 944 456 974 713 967 583 b 919 351 939 421 928 389 z m 304 389 b 290 382 299 386 293 386 b 224 317 268 361 246 339 b 218 286 214 307 213 299 b 308 128 244 231 272 178 b 411 63 332 97 369 63 b 478 94 433 63 457 74 b 556 171 504 121 529 146 b 604 261 581 196 597 226 b 558 575 629 371 613 476 b 532 611 551 588 542 600 b 443 646 508 636 479 647 b 369 622 417 643 393 633 b 279 561 336 606 308 583 b 254 549 274 556 268 544 b 261 565 256 554 258 560 b 476 894 319 683 388 796 b 508 932 488 907 499 918 b 521 953 514 938 517 946 b 514 969 524 960 519 967 b 461 981 499 981 479 981 b 285 979 403 981 343 982 b 106 924 228 979 146 968 b 46 865 86 903 67 883 b 19 763 14 836 8 803 b 69 639 32 719 50 679 b 90 622 74 632 76 624 b 161 693 113 644 136 669 b 165 728 174 704 171 715 b 113 861 143 771 125 814 b 122 876 111 868 115 874 b 136 881 126 878 131 879 b 367 886 213 888 290 892 b 421 872 386 885 414 892 b 392 822 431 850 404 836 b 150 446 290 710 214 582 b 146 422 147 439 140 432 b 168 439 157 424 163 432 b 336 547 215 483 271 532 b 446 511 381 558 417 544 b 521 260 500 447 521 342 b 511 178 521 232 519 204 b 481 161 506 161 497 157 b 365 276 431 169 388 236 b 304 389 344 313 325 350 z "},"a":{"ha":511,"x_min":0,"x_max":0,"o":"m 425 -18 b 481 36 446 3 461 21 b 526 121 507 60 519 89 b 522 243 535 163 533 203 b 493 326 514 272 497 297 b 469 357 492 338 476 346 b 338 558 429 426 383 492 b 158 960 256 679 181 814 b 150 1036 154 985 153 1011 b 139 1035 146 1036 142 1036 b 79 976 119 1015 100 996 b 57 929 65 964 58 949 b 58 742 51 867 53 804 b 99 519 67 667 83 593 b 124 374 110 471 119 422 b 100 344 124 351 122 347 b 14 290 60 338 40 318 l -3 275 b -10 267 -4 272 -7 269 b -19 246 -15 261 -24 256 b 14 249 -8 242 3 247 b 96 263 42 254 68 260 b 119 239 118 265 124 260 b 68 60 111 176 94 117 b 58 22 63 49 51 38 b 101 61 76 32 88 49 b 167 158 133 88 154 121 b 199 246 178 188 189 217 b 224 264 203 260 210 265 b 336 251 261 260 299 257 b 414 190 392 243 392 243 b 419 176 415 186 418 182 b 428 18 440 125 444 72 b 425 -18 425 8 418 0 z m 215 493 b 224 492 221 493 224 493 b 306 375 254 456 279 415 b 299 361 310 369 306 361 b 296 361 299 361 297 361 l 292 360 b 226 365 268 361 247 363 b 221 426 214 385 222 406 b 215 493 218 447 217 469 z "},"b":{"ha":632,"x_min":0,"x_max":0,"o":"m 238 164 b 143 283 194 200 175 244 b 69 207 117 256 93 232 b 65 172 57 194 56 189 b 336 -18 125 71 210 -18 b 618 160 458 -18 547 69 b 646 304 653 201 660 251 b 576 421 632 349 610 389 b 406 475 529 468 472 488 b 403 474 404 475 404 475 l 397 472 b 385 476 393 471 389 471 b 424 533 399 496 413 513 b 415 647 446 572 444 613 b 364 700 400 667 383 685 b 271 781 333 728 301 754 b 99 1032 197 844 118 935 b 83 1054 96 1039 94 1047 b 22 993 64 1033 43 1013 b 4 936 3 976 -4 960 b -4 901 8 922 8 911 b -21 847 -21 886 -21 867 b 147 353 -12 678 69 500 l 192 269 b 214 226 199 254 207 240 b 238 164 224 210 233 193 z m 117 736 b 119 736 118 739 118 739 b 117 736 117 736 117 736 z m 254 421 b 129 693 207 508 163 599 b 121 735 124 707 115 719 b 133 729 125 733 129 732 b 274 606 179 689 226 647 b 331 544 294 588 315 568 b 326 443 351 510 351 479 b 275 406 314 426 294 417 b 263 408 271 403 265 404 b 254 421 260 413 257 417 z m 371 83 b 346 231 369 136 363 185 b 285 367 329 278 306 319 b 356 383 310 378 333 383 b 413 374 375 383 394 379 b 557 158 496 344 561 246 b 551 124 556 147 554 135 b 426 76 539 88 458 76 b 371 83 408 76 390 78 z "},"c":{"ha":493,"x_min":0,"x_max":0,"o":"m 411 161 b 385 172 399 158 392 167 b 307 256 354 196 329 225 b 76 828 208 394 76 650 b 86 858 76 839 72 853 b 115 846 99 864 107 853 b 254 617 178 800 229 686 b 268 579 258 604 263 592 b 285 576 271 572 279 572 b 304 596 292 583 297 589 l 343 633 b 363 651 350 639 356 646 b 369 692 375 663 376 675 b 346 840 351 739 346 790 b 347 960 344 881 346 919 b 347 989 347 969 347 979 b 342 996 347 992 344 994 b 247 906 324 996 260 922 b 197 947 231 919 214 935 b 151 963 183 957 168 963 b 99 939 133 963 115 956 b 36 876 78 918 58 896 b -19 749 -3 842 -17 799 b -4 632 -21 710 -14 671 b 292 79 38 464 154 196 b 376 40 314 61 346 40 b 418 60 392 40 406 46 b 471 111 435 78 451 96 b 513 221 506 140 517 178 b 507 256 511 232 510 244 b 450 489 493 335 472 413 b 435 507 447 496 446 506 l 431 507 b 365 443 407 485 386 463 b 354 399 350 429 350 417 b 400 228 371 342 386 285 b 411 161 406 206 413 183 z "},"d":{"ha":592,"x_min":0,"x_max":0,"o":"m 249 153 b 221 186 232 161 228 175 b 172 310 200 225 186 267 b 158 351 168 324 164 338 b 142 356 156 358 147 360 b 69 282 118 332 93 307 b 65 260 63 276 63 268 b 125 99 83 206 99 150 b 271 -18 156 42 199 -18 b 578 197 388 -18 507 117 b 586 210 581 201 583 206 b 601 344 614 251 619 297 b 483 507 575 407 532 461 b 356 629 442 549 399 589 b 221 761 310 672 264 715 b 74 1040 147 840 96 932 b 69 1053 74 1044 71 1049 b 53 1046 63 1054 57 1050 b -7 988 32 1026 13 1006 b -19 947 -19 975 -22 964 b 17 835 -11 908 1 871 b 26 797 21 822 31 811 b 35 740 19 776 28 758 b 107 553 58 678 82 615 b 236 201 154 436 200 321 b 249 153 240 186 244 171 z m 249 543 b 426 376 276 533 401 404 b 496 281 453 346 478 315 b 517 200 508 256 518 229 b 467 113 515 163 504 129 b 440 99 457 108 449 101 b 394 85 425 92 410 79 b 378 126 378 90 382 113 b 253 514 340 257 304 388 b 249 543 250 524 243 532 z "},"e":{"ha":546,"x_min":0,"x_max":0,"o":"m 463 129 b 121 492 332 164 172 365 b 131 504 118 500 122 504 b 175 492 146 506 160 499 b 268 449 206 479 238 464 b 294 450 278 444 288 442 b 358 524 317 474 338 499 b 354 540 364 529 360 536 b 322 567 344 550 333 558 b 147 765 258 619 186 692 b 175 750 163 767 167 756 b 251 686 200 729 225 707 b 286 686 267 674 275 675 b 344 753 306 708 324 731 b 349 793 354 764 356 776 b 340 822 346 801 343 813 b 299 1003 319 881 304 942 b 290 1015 299 1006 296 1007 b 221 935 267 988 242 963 b 215 913 217 929 218 919 b 206 892 214 906 219 896 b 136 961 183 914 160 939 b 88 1001 121 975 104 989 b 57 1000 76 1010 65 1008 b 4 940 39 981 24 958 b -15 853 -22 917 -25 888 b -7 824 -12 843 -10 833 b 100 618 18 751 54 683 b 100 569 117 596 124 596 b 88 556 96 565 92 560 l 63 528 b 50 514 58 524 54 518 b 33 415 25 486 21 453 b 438 21 72 289 286 21 b 489 40 458 21 475 26 b 544 103 507 61 524 85 b 556 192 571 128 569 158 b 546 215 553 200 550 208 b 444 407 513 279 479 344 b 415 415 435 426 428 428 b 385 381 406 403 394 392 b 378 289 344 332 346 347 b 463 129 404 239 431 189 z "},"f":{"ha":569,"x_min":0,"x_max":0,"o":"m 75 358 b 97 328 83 346 90 336 b 231 156 142 269 186 213 b 304 69 254 126 279 97 b 365 21 314 57 349 21 b 407 50 378 21 397 40 l 438 82 b 454 97 443 88 449 93 b 474 154 472 113 478 132 b 467 197 472 169 471 183 b 436 286 457 228 447 257 b 325 544 403 374 364 458 b 307 594 318 561 308 576 b 346 594 321 600 333 597 b 431 592 374 590 401 590 b 500 622 457 592 481 600 b 544 668 513 639 529 653 b 551 685 549 672 556 676 b 528 688 544 690 536 688 b 261 728 436 681 349 701 b 235 747 250 731 240 735 b 186 858 218 783 200 821 b 211 863 196 867 204 864 b 353 851 258 854 306 851 b 467 856 390 851 429 853 b 536 886 494 857 518 864 b 582 932 550 903 567 917 b 588 954 586 938 594 942 b 581 953 585 954 583 954 l 565 953 b 558 951 564 951 561 951 b 453 944 522 947 488 944 b 133 1004 385 944 193 965 b 76 1024 115 1017 94 1015 b 58 1019 69 1026 63 1025 b -21 940 31 994 3 968 b 1 924 -14 931 -7 926 b 43 881 24 917 35 903 b 97 754 60 838 78 796 b 90 710 104 736 106 724 b 67 685 82 703 74 694 b 69 669 61 679 63 672 l 94 658 b 119 650 103 656 111 653 b 158 615 139 644 150 633 b 192 539 169 590 181 564 l 261 386 b 294 310 272 361 283 335 b 294 286 299 303 304 296 b 279 306 290 293 285 299 l 250 344 b 176 438 225 375 200 407 b 156 439 169 444 163 444 b 75 358 129 413 104 388 z "},"g":{"ha":583,"x_min":0,"x_max":0,"o":"m 328 842 b 285 878 306 853 296 867 b 221 932 263 896 243 915 b 174 958 207 943 190 953 b 138 967 161 964 149 967 b 83 942 118 967 100 958 b 21 879 64 921 43 899 b -19 772 -11 850 -21 814 b 53 513 -10 682 19 597 b 75 454 61 493 63 469 b 114 386 92 432 101 408 b 428 32 174 275 297 74 b 460 26 439 28 450 26 b 510 49 478 26 494 32 b 575 115 531 72 553 94 b 599 182 594 133 603 157 b 543 333 593 236 569 286 b 492 418 526 361 508 389 b 500 449 478 439 478 442 b 542 474 517 453 531 461 b 594 526 558 492 576 508 b 601 546 599 531 607 535 b 397 515 533 531 465 521 b 197 536 329 508 263 517 b 168 558 185 540 174 544 b 79 829 128 646 94 733 b 82 863 76 839 74 851 b 192 783 113 860 172 804 b 326 639 238 736 282 686 b 363 599 338 625 350 611 b 392 597 375 588 382 586 b 458 663 415 619 436 642 b 469 699 469 674 472 685 b 467 707 469 701 468 704 l 463 724 b 460 732 461 726 461 729 b 422 994 435 817 418 904 b 411 1010 422 1000 424 1007 b 350 949 392 990 372 969 b 329 901 335 936 329 921 b 328 842 329 883 328 865 z m 492 142 b 250 415 410 179 275 333 b 258 419 253 417 256 419 b 372 363 347 419 321 436 b 461 221 406 317 435 269 b 492 142 472 197 486 175 z "},"h":{"ha":647,"x_min":0,"x_max":0,"o":"m 72 1025 b 4 957 49 1000 26 978 b -11 908 -12 943 -15 926 b -6 885 -10 900 -7 893 l 7 836 b 13 813 8 829 11 821 b 139 414 49 678 93 546 b 149 376 143 401 150 390 b 119 396 133 376 128 389 b 82 428 106 406 94 417 b 56 426 72 435 64 433 b -21 350 31 400 6 375 b 274 60 -18 347 272 61 b 324 106 293 72 307 90 b 344 206 374 157 369 142 b 325 257 339 222 332 239 l 288 357 b 268 408 281 375 275 392 b 257 442 264 419 260 431 b 268 457 254 450 260 458 b 382 456 307 457 344 456 b 419 428 410 456 411 456 b 422 419 421 425 421 422 l 428 403 b 431 394 429 400 429 397 b 564 35 468 272 515 153 b 586 0 569 24 571 8 b 653 65 608 22 629 44 b 663 117 671 81 671 96 b 547 415 621 215 581 314 b 571 521 524 486 519 467 b 575 525 572 522 574 524 l 586 535 b 606 561 593 542 601 550 b 519 554 575 564 547 556 b 500 565 511 554 504 557 b 493 589 497 574 494 581 b 418 944 461 706 432 825 l 413 994 b 410 1018 411 1001 411 1010 b 403 1035 408 1025 411 1033 b 386 1026 396 1036 390 1031 b 358 999 376 1017 368 1007 b 318 882 310 949 311 949 b 376 582 331 781 351 681 b 374 553 378 574 383 564 b 239 561 329 550 285 560 b 204 589 218 561 210 572 b 88 976 161 717 119 844 b 72 1025 85 990 85 1006 z "},"i":{"ha":375,"x_min":0,"x_max":0,"o":"m 65 39 b 89 35 79 36 83 35 b 192 44 122 38 157 46 b 292 51 225 42 258 53 b 335 72 310 51 324 60 b 388 125 351 90 369 107 b 393 143 392 129 397 133 b 342 144 378 149 360 144 b 285 181 304 143 301 135 b 140 635 231 329 182 481 b 131 682 136 650 133 667 b 144 693 128 693 133 697 b 167 696 153 689 160 689 b 222 751 186 714 204 732 b 243 781 231 758 242 765 b 108 943 182 821 143 879 b 75 1001 97 963 97 989 b 25 954 54 989 42 969 b -4 926 15 946 6 936 b -19 888 -15 917 -21 903 b -18 876 -19 883 -18 881 l -17 854 b -15 843 -17 850 -17 847 b 17 669 -4 785 4 726 b 164 164 54 497 106 329 b 171 136 167 156 171 144 b 149 121 169 124 154 128 b 65 39 122 96 97 71 z "},"j":{"ha":492,"x_min":0,"x_max":0,"o":"m -21 875 b 31 875 0 875 15 875 b 85 875 49 875 67 876 b 115 850 107 874 110 869 b 288 317 154 667 217 490 b 301 281 292 304 297 292 b 290 265 306 269 301 264 b 286 265 289 265 288 265 b 239 271 271 269 254 271 b 153 247 211 271 182 264 b 151 514 169 338 176 424 b 99 464 129 496 114 479 b 68 432 88 454 78 443 b 63 404 60 424 61 414 b 72 336 67 381 69 358 b 31 113 79 257 71 182 b 33 100 29 110 32 106 b 90 157 53 119 72 138 b 139 178 104 171 119 176 b 225 161 168 179 197 171 b 401 39 294 135 347 88 b 422 28 411 31 417 28 b 439 38 426 28 432 31 b 503 100 461 58 481 81 b 508 132 511 110 514 119 l 496 158 b 236 822 388 369 303 594 b 258 858 229 850 229 850 b 272 863 263 860 268 860 b 350 946 297 889 326 914 b 331 954 342 949 336 953 b 144 969 268 961 207 969 b 13 914 67 968 67 969 b -21 875 1 903 -12 893 z "},"k":{"ha":661,"x_min":0,"x_max":0,"o":"m -15 313 b -15 292 -22 307 -22 299 b -14 290 -15 292 -14 290 l -10 286 b -7 285 -8 286 -8 286 b 40 240 8 269 25 254 l 133 149 b 181 104 150 135 165 119 b 218 72 193 93 206 82 b 240 61 228 65 233 61 b 261 74 246 61 251 65 b 319 132 281 93 299 114 b 336 186 338 147 342 165 b 311 276 328 215 319 246 b 268 417 297 322 282 369 b 275 453 264 431 264 442 b 361 572 308 489 333 532 b 379 596 368 581 374 589 b 383 597 379 597 382 599 b 390 593 386 597 390 594 b 390 585 390 590 390 588 l 392 567 b 540 75 392 383 421 221 b 582 32 553 60 568 46 b 608 33 590 25 599 25 b 657 82 624 50 640 65 b 682 117 665 92 679 100 b 506 436 588 204 535 314 b 485 681 488 517 481 597 b 488 739 486 700 488 719 b 481 751 488 743 485 750 b 468 747 478 753 471 750 b 351 615 426 706 382 667 b 306 544 338 590 321 568 b 288 532 301 539 299 531 b 288 547 288 538 286 542 b 331 824 310 638 324 731 b 332 1011 336 886 336 949 b 325 1022 332 1015 329 1021 b 313 1018 322 1024 315 1021 b 257 964 294 1000 276 982 b 238 915 242 950 236 936 b 239 828 239 886 239 857 b 225 626 239 760 233 693 b 218 614 224 622 221 615 b 207 625 208 611 208 621 b 118 953 174 735 143 843 b 101 996 115 967 115 982 b 46 942 83 978 65 958 b 22 869 19 922 13 899 l 26 854 b 94 597 44 768 69 683 b 172 333 119 510 146 421 b 172 292 176 319 183 306 b 67 394 142 331 104 360 b -15 313 36 368 10 340 z m 174 290 b 172 292 174 290 172 292 b 174 290 174 292 174 290 z m 175 292 b 175 292 174 288 176 290 z "},"l":{"ha":568,"x_min":0,"x_max":0,"o":"m 503 43 b 554 94 522 63 539 78 b 568 181 600 142 596 126 b 449 542 510 294 460 411 b 436 549 449 550 440 553 b 379 494 417 531 399 511 b 357 428 357 476 353 454 b 396 265 364 372 378 318 b 407 222 400 253 408 239 b 296 213 369 218 332 215 b 278 225 286 211 281 218 b 258 286 271 246 264 265 b 108 826 211 468 160 647 b 78 946 97 867 88 907 b 67 978 75 956 82 969 b -14 899 38 953 13 925 b -19 871 -21 890 -22 881 b 3 779 -12 840 -6 810 b 119 363 42 640 81 501 b 163 201 135 310 149 256 b 150 175 167 185 165 179 b 99 139 128 168 113 154 b 53 93 83 124 68 108 b 50 78 49 89 42 85 b 88 88 63 78 75 83 b 158 107 110 94 133 101 b 186 108 167 110 182 113 b 204 100 193 101 199 100 b 228 113 213 100 219 106 b 254 122 235 121 244 121 b 411 115 307 126 360 125 b 490 61 467 104 460 118 b 503 43 492 57 496 53 z "},"m":{"ha":713,"x_min":0,"x_max":0,"o":"m 303 615 b 168 897 250 706 207 800 b 135 976 158 924 158 956 b 71 917 110 961 93 935 b 51 860 51 901 47 883 b 96 483 67 735 82 610 b 96 446 97 471 103 458 b 64 465 81 458 72 465 b -21 382 49 465 -12 394 b 126 81 33 283 79 182 b 143 50 132 69 136 60 b 163 46 147 42 157 40 b 224 104 183 65 203 86 b 247 165 243 121 250 140 b 239 240 244 190 242 215 l 226 319 b 215 399 224 346 219 372 l 204 478 b 199 517 203 490 200 504 b 221 496 214 515 215 504 b 283 385 242 460 261 422 b 314 381 293 368 300 368 b 374 439 333 400 353 421 b 396 492 389 454 396 469 b 396 619 394 533 396 576 b 396 625 396 621 396 622 l 397 633 b 397 639 397 636 397 638 b 401 640 397 640 400 640 b 406 640 403 640 406 640 b 414 622 408 635 413 629 b 619 86 465 438 538 260 b 647 43 633 57 639 43 b 685 75 654 43 664 54 b 706 193 746 139 743 113 b 451 947 592 435 504 685 b 432 1013 447 969 447 993 b 378 967 406 1007 396 982 b 372 963 376 965 374 964 l 361 951 b 356 947 360 950 358 949 b 332 900 342 935 335 919 b 315 749 328 849 321 799 b 303 615 311 708 308 668 z "},"n":{"ha":631,"x_min":0,"x_max":0,"o":"m 103 417 b 90 418 99 417 93 415 b 63 442 81 425 79 444 b 33 418 50 440 43 426 b -12 372 18 403 3 388 b -15 342 -22 363 -22 353 l 131 90 b 147 67 135 82 142 74 b 164 65 151 60 158 60 b 211 110 181 79 196 94 b 244 208 253 151 253 151 b 243 218 244 211 244 215 b 232 285 240 240 236 263 l 211 418 b 188 572 203 469 194 521 b 207 554 201 569 204 561 b 538 58 304 381 419 218 b 556 35 543 50 549 43 b 574 35 561 29 568 29 b 643 104 596 57 619 81 b 649 131 651 111 653 121 b 642 143 646 135 643 139 b 450 897 524 381 461 632 b 450 1000 449 931 450 965 b 444 1011 450 1004 451 1011 b 432 1007 440 1011 435 1010 b 418 994 428 1003 424 999 l 393 968 b 354 899 369 950 356 929 b 379 575 350 790 361 682 b 389 513 382 556 386 535 b 361 544 371 521 368 533 b 144 986 275 685 203 832 b 126 1013 138 1004 132 1013 b 103 996 121 1013 114 1007 b 61 954 89 982 75 967 b 38 889 39 938 33 915 b 43 846 40 875 42 860 l 54 758 b 60 714 56 743 58 729 b 103 417 74 614 89 515 z "},"o":{"ha":492,"x_min":0,"x_max":0,"o":"m -21 613 b -10 510 -17 578 -14 543 b 203 106 11 361 81 199 b 321 56 233 81 281 56 b 400 96 350 56 375 68 b 463 171 421 121 442 146 b 506 264 486 199 499 229 b 499 440 518 324 511 382 b 289 876 464 603 392 747 b 164 985 261 910 207 971 b 143 989 157 988 150 989 b 111 972 131 989 119 983 l 86 940 b 60 911 78 931 69 921 b 32 817 33 885 25 853 b 19 772 36 799 32 785 b -12 696 0 750 -8 725 b -21 613 -17 668 -19 640 z m 72 654 b 94 615 88 644 89 629 b 222 354 133 526 176 440 b 240 325 226 344 233 335 b 253 325 243 322 250 321 b 322 408 276 353 300 381 b 322 426 326 414 325 421 b 161 764 261 533 206 649 b 139 833 153 786 143 810 b 163 822 151 835 157 828 b 408 363 282 692 367 535 b 425 221 419 317 426 269 b 422 186 424 210 424 199 b 383 158 419 160 410 153 b 110 468 254 185 150 353 b 71 640 89 524 78 582 b 71 643 71 642 71 643 l 72 651 b 72 654 72 651 72 653 z "},"p":{"ha":401,"x_min":0,"x_max":0,"o":"m 169 267 b 144 281 157 265 151 275 b 97 324 129 294 113 310 b 72 324 89 332 81 332 b 3 253 49 300 25 276 b 4 232 -4 246 -3 239 b 22 215 10 226 15 221 b 263 -18 104 140 185 63 b 283 -39 268 -25 275 -32 b 310 -37 292 -46 301 -46 b 379 32 333 -15 356 8 b 385 63 389 40 390 51 l 356 136 b 296 286 336 186 317 236 b 303 336 288 306 289 319 b 361 403 324 357 343 379 b 401 458 376 419 389 439 b 403 590 426 501 428 546 b 368 643 393 608 381 626 b 288 743 342 676 315 710 b 76 1096 203 850 117 964 b 67 1115 75 1103 76 1113 b 40 1094 54 1113 49 1101 b -12 1042 22 1076 6 1060 b -18 1010 -21 1033 -21 1022 b 14 922 -11 979 1 950 b 11 894 18 913 19 903 b 0 844 -3 881 -3 864 b 31 696 6 794 17 744 b 157 313 65 565 110 439 b 169 267 161 297 171 283 z m 156 693 b 172 678 163 688 168 683 b 263 567 203 642 233 604 b 303 511 276 549 290 531 b 296 356 338 458 332 406 b 281 343 292 350 289 344 b 269 357 272 343 271 351 b 156 676 228 461 190 568 b 156 693 154 681 156 686 z "},"q":{"ha":682,"x_min":0,"x_max":0,"o":"m 703 121 b 669 135 693 132 681 133 b 503 143 614 142 560 143 b 486 151 496 143 489 144 b 464 211 476 169 465 188 b 518 208 483 215 501 213 b 589 231 547 203 571 208 b 624 267 600 244 613 254 b 632 356 661 304 671 303 b 354 846 515 503 411 665 b 321 1014 336 900 321 956 b 315 1024 321 1019 319 1025 b 225 938 285 994 254 967 b 203 986 210 951 213 971 b 183 992 197 996 190 999 b 121 929 163 971 143 949 b 94 878 106 915 97 899 b 82 794 90 850 86 822 b 17 407 63 665 43 535 b -18 232 4 349 -8 290 b 25 190 -26 189 -17 181 b 244 221 97 206 169 217 b 351 150 340 224 315 235 b 351 149 351 150 351 150 l 353 147 b 353 146 353 147 353 146 b 342 128 356 135 350 129 b 335 126 339 128 338 128 l 319 126 b 313 125 318 125 315 125 b 117 96 247 115 182 106 b 85 85 106 94 94 93 b 71 72 81 81 76 76 l 46 46 b 32 33 40 42 36 38 b 8 3 24 24 11 17 b 17 0 11 1 14 0 b 364 44 132 17 247 33 b 392 43 374 46 389 47 b 413 29 399 33 406 29 b 440 43 421 29 431 38 b 469 47 447 49 460 47 b 592 38 510 46 551 47 b 625 40 603 35 615 31 b 703 121 651 65 681 90 z m 158 717 b 285 318 201 583 243 450 b 258 310 278 308 268 311 b 118 285 213 301 165 293 b 89 282 108 283 99 282 b 74 299 79 282 74 289 b 76 328 74 308 75 318 b 147 689 103 447 126 568 b 158 717 149 697 147 708 z m 328 582 b 328 582 326 583 331 585 z m 329 582 b 329 581 329 582 329 581 b 329 582 329 581 329 582 z m 488 318 b 450 315 476 311 463 317 b 404 347 425 313 411 322 b 336 542 383 413 360 478 b 331 579 332 554 329 567 b 407 450 354 536 379 493 l 451 383 b 474 349 458 371 467 360 b 488 318 479 339 490 332 z "},"r":{"ha":679,"x_min":0,"x_max":0,"o":"m 396 314 b 410 338 393 326 404 331 b 463 403 428 360 446 381 b 457 538 497 454 496 490 b 408 593 442 557 425 575 b 299 707 372 631 335 668 b 96 1029 222 792 129 917 b 82 1090 90 1050 88 1071 b 71 1088 76 1089 74 1090 b 14 1033 53 1069 35 1050 b -4 963 -10 1014 -14 990 b 25 879 4 935 14 907 b 18 844 31 865 29 854 b 0 783 -6 829 -6 808 b 36 640 13 736 22 688 b 160 267 69 514 114 389 b 168 222 165 253 174 240 b 64 300 132 246 103 278 b -12 222 38 274 13 247 b -11 197 -22 213 -22 207 b 4 185 -7 193 -1 189 b 242 -22 86 119 167 51 b 247 -26 243 -24 244 -25 l 256 -35 b 261 -39 258 -36 260 -37 b 283 -53 272 -49 278 -53 b 306 -39 290 -53 296 -49 b 361 17 324 -19 342 0 b 372 65 376 32 381 46 b 335 157 360 96 347 126 b 331 168 333 161 332 165 l 321 192 b 317 203 319 196 318 199 b 331 218 314 210 322 219 b 457 129 379 215 426 164 b 485 99 467 119 475 108 l 540 36 b 568 4 550 25 558 15 b 600 -28 579 -7 589 -17 b 625 -26 608 -36 617 -35 b 692 40 647 -4 669 18 b 689 69 701 51 701 56 b 599 167 658 101 629 133 b 511 261 569 199 542 231 b 396 314 469 303 453 310 z m 300 244 b 149 667 240 388 190 525 b 167 658 160 668 164 663 b 325 490 217 599 271 544 b 372 433 342 472 358 453 b 378 333 397 401 400 368 b 300 244 357 301 335 272 z "},"s":{"ha":569,"x_min":0,"x_max":0,"o":"m 100 469 b 36 389 79 443 56 417 b 25 308 19 364 17 338 b 67 226 33 278 47 250 b 360 15 146 129 242 58 b 431 0 382 6 406 0 b 503 26 458 -1 483 6 b 576 119 528 57 553 88 b 586 179 590 138 593 157 b 454 386 569 246 499 335 b 315 546 408 440 363 493 b 144 772 290 575 147 742 b 167 763 156 776 161 768 b 285 658 206 729 246 693 b 325 631 296 649 307 635 b 357 669 336 644 347 657 b 389 814 415 746 413 715 b 356 1018 371 882 357 949 b 347 1038 356 1025 361 1035 b 289 965 329 1014 310 989 b 274 921 278 953 272 938 b 275 876 274 906 275 890 b 268 856 274 869 279 860 b 236 876 254 858 246 869 b 140 946 204 900 172 924 b 97 971 126 956 113 964 b 81 975 92 974 86 975 b 58 963 72 975 65 971 b 42 943 53 956 47 949 l 10 901 b -7 882 4 896 -1 889 b -18 831 -19 867 -24 849 b 196 486 13 711 117 579 b 376 278 257 417 317 347 b 489 111 401 249 483 149 b 454 114 476 104 465 110 b 143 338 328 156 225 232 b 108 469 113 376 99 419 b 100 469 104 469 101 471 z m 108 471 l 108 469 b 110 469 108 469 110 469 b 108 471 110 469 108 471 z "},"t":{"ha":689,"x_min":0,"x_max":0,"o":"m 386 326 b 388 290 392 308 396 294 b 382 294 386 292 385 293 l 374 301 b 368 306 371 303 369 304 b 339 306 354 317 350 317 b 286 253 321 288 304 271 b 289 201 260 226 258 228 b 481 25 357 146 422 89 b 525 -18 494 10 504 -18 b 572 24 544 -17 557 8 b 600 51 582 32 590 42 b 608 86 611 61 615 72 b 594 118 603 96 600 107 b 365 799 503 338 421 567 b 381 813 363 813 368 817 b 551 765 438 794 493 775 b 576 743 564 763 571 756 b 606 675 586 721 596 699 b 626 646 610 665 613 654 b 699 717 651 668 675 693 b 706 751 710 728 713 738 b 656 874 689 792 671 833 b 607 1033 635 926 617 979 b 596 1056 606 1040 610 1051 b 533 994 575 1036 556 1014 b 514 933 515 978 507 960 b 513 896 518 922 524 908 b 485 903 504 897 494 900 b 271 992 413 928 342 958 b 190 1025 244 1004 218 1015 b 156 1031 178 1029 167 1031 b 86 1000 129 1031 107 1021 b 17 931 63 976 40 953 b -19 832 -12 903 -22 869 b 31 658 -15 771 6 714 b 51 654 35 649 43 647 b 111 713 71 674 90 693 b 121 760 126 726 129 740 b 81 881 103 799 89 839 b 81 938 76 899 71 915 b 256 863 142 919 196 888 b 257 771 243 831 250 800 b 336 475 278 671 306 572 z "},"u":{"ha":642,"x_min":0,"x_max":0,"o":"m -21 592 b 22 625 1 600 10 614 b 68 669 38 640 51 656 b 83 667 72 675 81 675 l 96 624 b 222 256 135 500 172 376 b 315 96 240 214 279 125 b 340 85 324 89 332 85 b 364 96 347 85 356 89 b 431 163 386 118 407 140 b 464 226 449 179 460 200 b 471 289 465 247 468 268 b 478 311 472 296 467 306 b 492 286 488 306 489 296 b 560 117 514 231 536 174 b 581 90 564 107 565 96 b 650 158 603 113 626 136 b 657 201 665 172 664 185 b 418 925 558 435 471 676 b 404 942 417 932 414 938 b 346 885 386 924 367 903 b 324 819 325 867 321 847 b 378 286 350 643 369 465 b 376 251 378 275 378 263 b 369 246 376 250 372 247 b 365 249 368 246 367 247 b 349 278 360 258 353 268 b 274 460 318 336 294 397 b 146 864 225 593 188 728 b 119 938 138 889 129 913 b 92 944 113 956 104 957 b 32 886 71 925 51 906 b 4 831 15 871 7 853 b -21 592 -3 751 -11 674 z "},"v":{"ha":561,"x_min":0,"x_max":0,"o":"m 354 419 b 328 464 338 436 333 450 b 99 921 257 619 181 771 b 79 956 93 933 86 944 b 56 961 72 967 65 969 b 38 943 50 956 44 950 l 4 908 b -14 890 -3 903 -8 896 b -17 868 -21 885 -21 876 b 354 86 124 622 253 350 b 382 38 360 69 363 51 b 449 103 404 60 425 83 b 472 168 469 121 475 143 b 449 601 463 313 454 457 b 447 683 447 626 447 651 b 499 604 475 660 474 626 b 569 675 524 629 546 651 b 576 718 583 688 585 700 b 493 901 547 779 521 842 b 447 992 479 932 475 968 b 372 921 419 972 399 944 b 354 872 357 908 356 892 b 354 547 351 764 350 656 b 354 419 354 507 354 467 z "},"w":{"ha":899,"x_min":0,"x_max":0,"o":"m -17 615 b 50 681 6 638 26 660 b 99 764 75 701 75 736 b 111 718 103 744 108 732 b 329 107 160 508 236 300 b 367 51 338 88 344 67 b 443 126 393 75 417 101 b 460 171 457 139 461 153 b 458 194 460 179 458 186 l 454 240 b 453 264 454 249 454 257 b 440 431 449 319 444 375 b 450 444 439 436 439 444 b 475 404 458 432 467 418 b 788 10 536 293 676 76 b 813 -1 799 3 806 -1 b 839 14 821 -1 828 4 b 854 29 844 19 849 24 l 883 58 b 899 74 889 64 893 69 b 914 135 919 92 922 111 b 886 214 904 161 896 189 b 788 450 854 293 819 372 b 606 1022 711 636 640 822 b 592 1029 604 1026 603 1031 b 521 960 569 1008 546 985 b 514 924 511 950 511 938 b 711 317 550 713 629 514 b 729 261 718 299 731 282 b 696 297 713 269 706 285 b 450 746 594 436 513 586 b 433 786 444 758 440 772 b 417 790 431 793 424 794 b 361 735 399 772 381 751 b 332 667 339 717 331 694 b 339 464 336 599 338 532 b 339 417 340 449 339 433 b 321 440 325 421 324 431 b 178 931 260 600 210 763 b 161 1007 174 956 176 983 b 99 956 132 1000 121 972 b 54 876 72 936 61 908 b -18 636 33 796 11 715 b -17 615 -19 631 -24 624 z "},"x":{"ha":640,"x_min":0,"x_max":0,"o":"m 71 428 b 121 331 88 394 104 363 b 214 140 154 268 185 204 b 257 39 229 108 236 74 b 329 110 283 63 306 88 b 347 153 342 122 347 135 b 347 257 346 188 347 222 b 353 264 347 258 350 263 b 361 261 356 264 360 264 b 371 250 365 258 368 254 b 542 96 400 211 490 96 b 572 111 553 96 563 101 b 639 176 596 132 617 156 b 660 239 658 194 664 215 b 557 536 647 331 594 451 b 536 560 553 546 551 556 b 471 494 515 539 494 515 b 461 447 456 481 453 468 b 521 301 483 400 501 351 b 524 275 524 294 532 285 b 508 288 515 275 513 282 b 364 499 453 353 407 425 b 353 546 356 514 353 529 b 356 689 354 593 354 640 b 374 990 358 789 356 890 b 351 981 363 993 357 986 b 303 932 335 964 319 947 b 268 819 268 904 268 860 b 264 725 267 788 265 757 b 256 710 264 719 265 713 b 236 742 244 717 242 731 b 213 788 228 757 221 772 l 165 881 b 111 976 149 914 132 946 b 82 979 103 988 92 989 b 65 964 76 975 71 969 l 35 933 b 18 918 29 928 24 924 b -10 853 -1 900 -8 878 b -21 663 -14 789 -7 725 b -14 661 -17 663 -14 660 b 86 757 24 689 51 725 b 97 739 90 750 94 744 b 135 667 110 715 122 690 l 208 522 b 246 450 221 499 233 474 b 254 365 261 422 257 394 b 231 393 238 369 236 383 b 171 506 210 429 190 468 b 150 510 165 514 157 515 b 71 428 122 483 96 457 z "},"y":{"ha":626,"x_min":0,"x_max":0,"o":"m 138 22 b 233 122 176 60 211 85 b 271 149 243 139 256 144 b 321 153 288 151 304 153 b 540 76 400 153 476 121 b 571 79 551 69 561 69 b 633 142 590 100 613 121 b 639 185 650 160 650 161 b 619 225 632 199 625 211 l 578 304 b 558 343 572 317 565 331 b 325 958 464 542 376 743 b 310 963 322 965 314 968 b 249 906 289 944 271 924 b 233 843 228 888 226 867 b 254 778 239 821 246 800 b 251 715 261 757 260 738 b 189 560 229 664 210 613 b 172 536 186 551 183 542 b 164 553 169 542 165 547 b 76 911 126 671 89 788 b 68 926 76 918 76 926 b 51 918 63 926 57 922 b -4 863 33 900 15 881 b -19 818 -18 850 -22 835 b 90 394 1 674 44 533 l 100 372 b 121 368 104 365 115 363 b 181 426 142 388 161 408 b 224 492 201 444 215 467 b 236 525 228 503 232 514 l 263 592 b 275 625 267 603 271 614 b 294 649 279 633 281 643 b 460 260 342 517 400 388 b 460 251 460 258 460 254 b 243 178 317 239 353 253 b 238 272 239 211 240 242 b 224 367 235 303 233 333 b 153 301 194 346 176 321 b 136 253 138 288 135 274 b 138 22 143 181 157 108 z "},"z":{"ha":700,"x_min":0,"x_max":0,"o":"m 633 126 b 710 200 661 147 685 175 b 711 233 724 214 724 219 b 613 386 668 278 638 331 b 524 596 581 456 551 525 b 449 521 496 571 474 544 b 439 482 436 510 432 499 b 456 440 446 469 450 454 b 492 354 467 413 479 383 b 475 317 503 326 503 326 b 307 208 403 289 363 264 b 276 188 299 200 292 186 b 275 215 271 197 274 207 b 506 957 304 440 351 778 l 506 961 b 507 964 507 963 507 964 b 489 964 501 968 494 965 b 467 958 482 963 475 961 l 424 950 b 401 944 417 947 408 946 b 149 917 318 928 233 915 b 92 922 131 917 110 922 b 65 917 82 922 74 921 b 1 857 40 903 22 878 b -10 846 -3 854 -6 850 b -11 813 -24 832 -24 828 b 119 624 39 753 86 694 b 192 696 146 650 169 672 b 199 743 211 715 211 718 b 160 807 186 765 174 785 b 169 826 154 818 157 824 b 185 829 175 828 179 829 b 354 858 242 835 299 847 b 396 863 368 861 382 868 b 394 853 396 858 396 856 b 175 74 246 649 201 321 b 179 67 175 72 178 68 b 189 68 182 65 186 65 b 265 143 214 93 243 115 b 451 231 307 194 385 231 b 600 157 513 231 568 203 b 633 126 608 146 615 132 z "},"ı":{"ha":375,"x_min":0,"x_max":0,"o":"m 65 39 b 89 35 79 36 83 35 b 192 44 122 38 157 46 b 292 51 225 42 258 53 b 335 72 310 51 324 60 b 388 125 351 90 369 107 b 393 143 392 129 397 133 b 342 144 378 149 360 144 b 285 181 304 143 301 135 b 140 635 231 329 182 481 b 131 682 136 650 133 667 b 144 693 128 693 133 697 b 167 696 153 689 160 689 b 222 751 186 714 204 732 b 243 781 231 758 242 765 b 108 943 182 821 143 879 b 75 1001 97 963 97 989 b 25 954 54 989 42 969 b -4 926 15 946 6 936 b -19 888 -15 917 -21 903 b -18 876 -19 883 -18 881 l -17 854 b -15 843 -17 850 -17 847 b 17 669 -4 785 4 726 b 164 164 54 497 106 329 b 171 136 167 156 171 144 b 149 121 169 124 154 128 b 65 39 122 96 97 71 z "},"ﬁ":{"ha":944,"x_min":0,"x_max":0,"o":"m 75 358 b 97 328 83 346 90 336 b 231 156 142 269 186 213 b 304 69 254 126 279 97 b 365 21 314 57 349 21 b 407 50 378 21 397 40 l 438 82 b 454 97 443 88 449 93 b 474 154 472 113 478 132 b 467 197 472 169 471 183 b 436 286 457 228 447 257 b 325 544 403 374 364 458 b 307 594 318 561 308 576 b 346 594 321 600 333 597 b 431 592 374 590 401 590 b 500 622 457 592 481 600 b 544 668 513 639 529 653 b 551 685 549 672 556 676 b 528 688 544 690 536 688 b 261 728 436 681 349 701 b 235 747 250 731 240 735 b 186 858 218 783 200 821 b 211 863 196 867 204 864 b 353 851 258 854 306 851 b 467 856 390 851 429 853 b 536 886 494 857 518 864 b 551 901 540 892 546 897 b 550 888 550 897 550 893 b 551 876 551 883 551 881 l 553 854 b 554 843 553 850 554 847 b 586 669 565 785 574 726 b 733 164 624 497 675 329 b 740 136 736 156 740 144 b 718 121 739 124 724 128 b 635 39 692 96 667 71 b 658 35 649 36 653 35 b 761 44 692 38 726 46 b 861 51 794 42 828 53 b 904 72 879 51 893 60 b 957 125 921 90 939 107 b 963 143 961 129 967 133 b 911 144 947 149 929 144 b 854 181 874 143 871 135 b 710 635 800 329 751 481 b 700 682 706 650 703 667 b 714 693 697 693 703 697 b 736 696 722 689 729 689 b 792 751 756 714 774 732 b 813 781 800 758 811 765 b 678 943 751 821 713 879 b 644 1001 667 963 667 989 b 594 954 624 989 611 969 b 589 950 593 953 592 951 b 588 954 589 951 589 953 b 581 953 585 954 583 954 l 565 953 b 558 951 564 951 561 951 b 453 944 522 947 488 944 b 133 1004 385 944 193 965 b 76 1024 115 1017 94 1015 b 58 1019 69 1026 63 1025 b -21 940 31 994 3 968 b 1 924 -14 931 -7 926 b 43 881 24 917 35 903 b 97 754 60 838 78 796 b 90 710 104 736 106 724 b 67 685 82 703 74 694 b 69 669 61 679 63 672 l 94 658 b 119 650 103 656 111 653 b 158 615 139 644 150 633 b 192 539 169 590 181 564 l 261 386 b 294 310 272 361 283 335 b 294 286 299 303 304 296 b 279 306 290 293 285 299 l 250 344 b 176 438 225 375 200 407 b 156 439 169 444 163 444 b 75 358 129 413 104 388 z "},"ﬂ":{"ha":1138,"x_min":0,"x_max":0,"o":"m 75 358 b 97 328 83 346 90 336 b 231 156 142 269 186 213 b 304 69 254 126 279 97 b 365 21 314 57 349 21 b 407 50 378 21 397 40 l 438 82 b 454 97 443 88 449 93 b 474 154 472 113 478 132 b 467 197 472 169 471 183 b 436 286 457 228 447 257 b 325 544 403 374 364 458 b 307 594 318 561 308 576 b 346 594 321 600 333 597 b 431 592 374 590 401 590 b 500 622 457 592 481 600 b 544 668 513 639 529 653 b 551 685 549 672 556 676 b 528 688 544 690 536 688 b 261 728 436 681 349 701 b 235 747 250 731 240 735 b 186 858 218 783 200 821 b 211 863 196 867 204 864 b 353 851 258 854 306 851 b 467 856 390 851 429 853 b 536 886 494 857 518 864 b 582 932 550 903 567 917 b 588 954 586 938 594 942 b 581 953 585 954 583 954 l 565 953 b 558 951 564 951 561 951 b 453 944 522 947 488 944 b 133 1004 385 944 193 965 b 76 1024 115 1017 94 1015 b 58 1019 69 1026 63 1025 b -21 940 31 994 3 968 b 1 924 -14 931 -7 926 b 43 881 24 917 35 903 b 97 754 60 838 78 796 b 90 710 104 736 106 724 b 67 685 82 703 74 694 b 69 669 61 679 63 672 l 94 658 b 119 650 103 656 111 653 b 158 615 139 644 150 633 b 192 539 169 590 181 564 l 261 386 b 294 310 272 361 283 335 b 294 286 299 303 304 296 b 279 306 290 293 285 299 l 250 344 b 176 438 225 375 200 407 b 156 439 169 444 163 444 b 75 358 129 413 104 388 z m 1072 43 b 1124 94 1092 63 1108 78 b 1138 181 1169 142 1165 126 b 1018 542 1079 294 1029 411 b 1006 549 1018 550 1010 553 b 949 494 986 531 968 511 b 926 428 926 476 922 454 b 965 265 933 372 947 318 b 976 222 969 253 978 239 b 865 213 939 218 901 215 b 847 225 856 211 850 218 b 828 286 840 246 833 265 b 678 826 781 468 729 647 b 647 946 667 867 657 907 b 636 978 644 956 651 969 b 556 899 607 953 582 925 b 550 871 549 890 547 881 b 572 779 557 840 564 810 b 689 363 611 640 650 501 b 732 201 704 310 718 256 b 719 175 736 185 735 179 b 668 139 697 168 682 154 b 622 93 653 124 638 108 b 619 78 618 89 611 85 b 657 88 632 78 644 83 b 728 107 679 94 703 101 b 756 108 736 110 751 113 b 774 100 763 101 768 100 b 797 113 782 100 789 106 b 824 122 804 121 814 121 b 981 115 876 126 929 125 b 1060 61 1036 104 1029 118 b 1072 43 1061 57 1065 53 z "},"À":{"ha":511,"x_min":0,"x_max":0,"o":"m 149 1394 b 86 1326 122 1371 106 1347 b 76 1275 72 1313 69 1296 b 139 1118 96 1222 117 1169 b 156 1104 142 1113 143 1104 b 208 1164 172 1124 189 1144 b 215 1219 225 1181 226 1197 b 149 1394 190 1275 169 1331 z m 425 -18 b 481 36 446 3 461 21 b 526 121 507 60 519 89 b 522 243 535 163 533 203 b 493 326 514 272 497 297 b 469 357 492 338 476 346 b 338 558 429 426 383 492 b 158 960 256 679 181 814 b 150 1036 154 985 153 1011 b 139 1035 146 1036 142 1036 b 79 976 119 1015 100 996 b 57 929 65 964 58 949 b 58 742 51 867 53 804 b 99 519 67 667 83 593 b 124 374 110 471 119 422 b 100 344 124 351 122 347 b 14 290 60 338 40 318 l -3 275 b -10 267 -4 272 -7 269 b -19 246 -15 261 -24 256 b 14 249 -8 242 3 247 b 96 263 42 254 68 260 b 119 239 118 265 124 260 b 68 60 111 176 94 117 b 58 22 63 49 51 38 b 101 61 76 32 88 49 b 167 158 133 88 154 121 b 199 246 178 188 189 217 b 224 264 203 260 210 265 b 336 251 261 260 299 257 b 414 190 392 243 392 243 b 419 176 415 186 418 182 b 428 18 440 125 444 72 b 425 -18 425 8 418 0 z m 215 493 b 224 492 221 493 224 493 b 306 375 254 456 279 415 b 299 361 310 369 306 361 b 296 361 299 361 297 361 l 292 360 b 226 365 268 361 247 363 b 221 426 214 385 222 406 b 215 493 218 447 217 469 z "},"Á":{"ha":511,"x_min":0,"x_max":0,"o":"m 190 1394 b 99 1219 160 1331 131 1275 b 97 1164 85 1197 83 1181 b 142 1104 114 1144 128 1124 b 160 1118 154 1104 157 1113 b 244 1275 190 1169 218 1222 b 243 1326 256 1296 254 1313 b 190 1394 225 1347 213 1371 z m 425 -18 b 481 36 446 3 461 21 b 526 121 507 60 519 89 b 522 243 535 163 533 203 b 493 326 514 272 497 297 b 469 357 492 338 476 346 b 338 558 429 426 383 492 b 158 960 256 679 181 814 b 150 1036 154 985 153 1011 b 139 1035 146 1036 142 1036 b 79 976 119 1015 100 996 b 57 929 65 964 58 949 b 58 742 51 867 53 804 b 99 519 67 667 83 593 b 124 374 110 471 119 422 b 100 344 124 351 122 347 b 14 290 60 338 40 318 l -3 275 b -10 267 -4 272 -7 269 b -19 246 -15 261 -24 256 b 14 249 -8 242 3 247 b 96 263 42 254 68 260 b 119 239 118 265 124 260 b 68 60 111 176 94 117 b 58 22 63 49 51 38 b 101 61 76 32 88 49 b 167 158 133 88 154 121 b 199 246 178 188 189 217 b 224 264 203 260 210 265 b 336 251 261 260 299 257 b 414 190 392 243 392 243 b 419 176 415 186 418 182 b 428 18 440 125 444 72 b 425 -18 425 8 418 0 z m 215 493 b 224 492 221 493 224 493 b 306 375 254 456 279 415 b 299 361 310 369 306 361 b 296 361 299 361 297 361 l 292 360 b 226 365 268 361 247 363 b 221 426 214 385 222 406 b 215 493 218 447 217 469 z "},"Â":{"ha":511,"x_min":0,"x_max":0,"o":"m 71 1108 b 135 1168 96 1125 114 1149 b 165 1218 150 1182 161 1197 b 182 1233 168 1225 171 1233 b 188 1215 185 1228 186 1221 l 200 1178 b 206 1158 201 1171 204 1165 b 233 1094 221 1115 224 1094 b 289 1144 242 1094 285 1135 l 301 1157 b 307 1163 303 1158 306 1161 b 317 1201 321 1174 322 1185 b 243 1451 288 1283 263 1367 b 226 1481 240 1461 238 1471 b 160 1417 203 1461 183 1438 b 126 1353 140 1400 131 1378 b 71 1129 111 1278 93 1203 b 71 1108 69 1122 67 1117 z m 425 -18 b 481 36 446 3 461 21 b 526 121 507 60 519 89 b 522 243 535 163 533 203 b 493 326 514 272 497 297 b 469 357 492 338 476 346 b 338 558 429 426 383 492 b 158 960 256 679 181 814 b 150 1036 154 985 153 1011 b 139 1035 146 1036 142 1036 b 79 976 119 1015 100 996 b 57 929 65 964 58 949 b 58 742 51 867 53 804 b 99 519 67 667 83 593 b 124 374 110 471 119 422 b 100 344 124 351 122 347 b 14 290 60 338 40 318 l -3 275 b -10 267 -4 272 -7 269 b -19 246 -15 261 -24 256 b 14 249 -8 242 3 247 b 96 263 42 254 68 260 b 119 239 118 265 124 260 b 68 60 111 176 94 117 b 58 22 63 49 51 38 b 101 61 76 32 88 49 b 167 158 133 88 154 121 b 199 246 178 188 189 217 b 224 264 203 260 210 265 b 336 251 261 260 299 257 b 414 190 392 243 392 243 b 419 176 415 186 418 182 b 428 18 440 125 444 72 b 425 -18 425 8 418 0 z m 215 493 b 224 492 221 493 224 493 b 306 375 254 456 279 415 b 299 361 310 369 306 361 b 296 361 299 361 297 361 l 292 360 b 226 365 268 361 247 363 b 221 426 214 385 222 406 b 215 493 218 447 217 469 z "},"Ã":{"ha":511,"x_min":0,"x_max":0,"o":"m 21 1129 l 22 1128 b 35 1132 26 1129 31 1131 b 97 1150 54 1144 76 1150 b 153 1139 115 1150 135 1146 b 199 1122 168 1133 183 1126 b 251 1114 217 1117 235 1114 b 326 1138 278 1114 303 1121 b 435 1244 367 1167 400 1204 b 422 1243 428 1243 424 1244 b 339 1208 397 1218 368 1208 b 285 1218 321 1208 303 1211 l 225 1239 b 183 1246 210 1243 196 1246 b 101 1213 153 1246 126 1235 b 31 1144 76 1190 54 1167 b 21 1129 25 1140 21 1136 z m 425 -18 b 481 36 446 3 461 21 b 526 121 507 60 519 89 b 522 243 535 163 533 203 b 493 326 514 272 497 297 b 469 357 492 338 476 346 b 338 558 429 426 383 492 b 158 960 256 679 181 814 b 150 1036 154 985 153 1011 b 139 1035 146 1036 142 1036 b 79 976 119 1015 100 996 b 57 929 65 964 58 949 b 58 742 51 867 53 804 b 99 519 67 667 83 593 b 124 374 110 471 119 422 b 100 344 124 351 122 347 b 14 290 60 338 40 318 l -3 275 b -10 267 -4 272 -7 269 b -19 246 -15 261 -24 256 b 14 249 -8 242 3 247 b 96 263 42 254 68 260 b 119 239 118 265 124 260 b 68 60 111 176 94 117 b 58 22 63 49 51 38 b 101 61 76 32 88 49 b 167 158 133 88 154 121 b 199 246 178 188 189 217 b 224 264 203 260 210 265 b 336 251 261 260 299 257 b 414 190 392 243 392 243 b 419 176 415 186 418 182 b 428 18 440 125 444 72 b 425 -18 425 8 418 0 z m 215 493 b 224 492 221 493 224 493 b 306 375 254 456 279 415 b 299 361 310 369 306 361 b 296 361 299 361 297 361 l 292 360 b 226 365 268 361 247 363 b 221 426 214 385 222 406 b 215 493 218 447 217 469 z "},"Ä":{"ha":511,"x_min":0,"x_max":0,"o":"m 278 1303 b 239 1271 260 1294 250 1282 b 228 1260 235 1267 232 1264 l 206 1236 b 194 1225 201 1232 199 1229 b 190 1211 192 1221 190 1215 b 193 1113 190 1178 192 1146 b 207 1107 193 1107 203 1103 b 276 1176 231 1131 254 1153 b 286 1203 285 1183 288 1193 b 278 1303 286 1222 283 1289 z m 136 1303 b 97 1271 119 1294 110 1282 b 86 1260 94 1267 90 1264 l 65 1236 b 54 1225 61 1232 58 1229 b 49 1211 50 1221 49 1215 b 51 1113 49 1178 50 1146 b 65 1107 51 1107 61 1103 b 83 1125 71 1113 78 1119 l 118 1158 b 136 1176 124 1164 131 1171 b 144 1203 143 1183 146 1193 b 136 1303 144 1222 143 1290 z m 425 -18 b 481 36 446 3 461 21 b 526 121 507 60 519 89 b 522 243 535 163 533 203 b 493 326 514 272 497 297 b 469 357 492 338 476 346 b 338 558 429 426 383 492 b 158 960 256 679 181 814 b 150 1036 154 985 153 1011 b 139 1035 146 1036 142 1036 b 79 976 119 1015 100 996 b 57 929 65 964 58 949 b 58 742 51 867 53 804 b 99 519 67 667 83 593 b 124 374 110 471 119 422 b 100 344 124 351 122 347 b 14 290 60 338 40 318 l -3 275 b -10 267 -4 272 -7 269 b -19 246 -15 261 -24 256 b 14 249 -8 242 3 247 b 96 263 42 254 68 260 b 119 239 118 265 124 260 b 68 60 111 176 94 117 b 58 22 63 49 51 38 b 101 61 76 32 88 49 b 167 158 133 88 154 121 b 199 246 178 188 189 217 b 224 264 203 260 210 265 b 336 251 261 260 299 257 b 414 190 392 243 392 243 b 419 176 415 186 418 182 b 428 18 440 125 444 72 b 425 -18 425 8 418 0 z m 215 493 b 224 492 221 493 224 493 b 306 375 254 456 279 415 b 299 361 310 369 306 361 b 296 361 299 361 297 361 l 292 360 b 226 365 268 361 247 363 b 221 426 214 385 222 406 b 215 493 218 447 217 469 z "},"Å":{"ha":511,"x_min":0,"x_max":0,"o":"m 307 1296 b 203 1424 307 1354 268 1424 b 164 1407 189 1424 175 1418 b 78 1319 135 1378 104 1350 b 61 1154 38 1275 32 1204 b 133 1106 79 1122 106 1106 b 193 1131 154 1106 174 1114 b 276 1215 222 1157 250 1186 b 307 1296 299 1238 307 1265 z m 206 1206 b 157 1242 182 1210 168 1224 b 140 1311 144 1264 136 1286 b 154 1317 140 1318 149 1321 b 206 1206 193 1294 213 1253 z m 425 -18 b 481 36 446 3 461 21 b 526 121 507 60 519 89 b 522 243 535 163 533 203 b 493 326 514 272 497 297 b 469 357 492 338 476 346 b 338 558 429 426 383 492 b 158 960 256 679 181 814 b 150 1036 154 985 153 1011 b 139 1035 146 1036 142 1036 b 79 976 119 1015 100 996 b 57 929 65 964 58 949 b 58 742 51 867 53 804 b 99 519 67 667 83 593 b 124 374 110 471 119 422 b 100 344 124 351 122 347 b 14 290 60 338 40 318 l -3 275 b -10 267 -4 272 -7 269 b -19 246 -15 261 -24 256 b 14 249 -8 242 3 247 b 96 263 42 254 68 260 b 119 239 118 265 124 260 b 68 60 111 176 94 117 b 58 22 63 49 51 38 b 101 61 76 32 88 49 b 167 158 133 88 154 121 b 199 246 178 188 189 217 b 224 264 203 260 210 265 b 336 251 261 260 299 257 b 414 190 392 243 392 243 b 419 176 415 186 418 182 b 428 18 440 125 444 72 b 425 -18 425 8 418 0 z m 215 493 b 224 492 221 493 224 493 b 306 375 254 456 279 415 b 299 361 310 369 306 361 b 296 361 299 361 297 361 l 292 360 b 226 365 268 361 247 363 b 221 426 214 385 222 406 b 215 493 218 447 217 469 z "},"Æ":{"ha":821,"x_min":0,"x_max":0,"o":"m 738 129 b 493 328 649 153 547 260 b 479 346 492 333 485 340 b 474 353 478 349 476 351 l 465 368 b 460 375 463 371 461 372 b 453 388 457 379 454 383 l 436 411 b 429 424 435 415 432 419 b 414 450 424 432 418 440 b 396 492 407 464 401 478 b 406 504 393 500 397 504 b 450 492 421 506 435 499 b 543 449 481 479 513 464 b 569 450 553 444 563 442 b 633 524 592 474 613 499 b 629 540 639 529 635 536 b 597 567 619 550 608 558 b 422 765 533 619 461 692 b 450 750 438 767 442 756 b 526 686 475 729 500 707 b 561 686 542 674 550 675 b 619 753 581 708 599 731 b 624 793 629 764 631 776 b 615 822 621 801 618 813 b 574 1003 594 881 579 942 b 565 1015 574 1006 571 1007 b 496 935 542 988 517 963 b 490 913 492 929 493 919 b 481 892 489 906 494 896 b 411 961 458 914 435 939 b 363 1001 396 975 379 989 b 332 1000 351 1010 340 1008 b 279 940 314 981 299 958 b 260 853 253 917 250 888 b 268 824 263 843 265 833 b 375 618 293 751 329 683 b 375 569 392 596 399 596 b 372 567 374 568 374 567 l 365 558 b 363 556 365 558 364 557 l 350 542 b 158 960 263 661 181 813 b 150 1036 154 985 153 1011 b 139 1035 146 1036 142 1036 b 79 976 119 1015 100 996 b 57 929 65 964 58 949 b 58 742 51 867 53 804 b 99 519 67 667 83 593 b 124 374 110 471 119 422 b 100 344 124 351 122 347 b 19 297 67 339 42 322 l 15 293 b 14 290 15 292 15 292 l -3 275 b -4 274 -4 275 -4 274 l -8 269 b -10 267 -8 268 -10 268 b -19 246 -15 261 -24 256 b 14 249 -8 242 3 247 b 96 263 42 254 68 260 b 119 239 118 265 124 260 b 68 60 111 176 94 117 b 58 22 63 49 51 38 b 101 61 76 32 88 49 b 167 158 133 88 154 121 b 199 246 178 188 189 217 b 224 264 203 260 210 265 b 336 251 261 260 299 257 b 414 190 392 243 392 243 b 419 176 415 186 418 182 b 428 18 440 125 444 72 b 425 -18 425 8 418 0 b 481 36 446 3 461 21 b 525 117 506 58 518 86 b 529 113 526 115 528 114 l 539 106 b 543 101 540 104 542 103 b 713 21 585 65 656 21 b 764 40 733 21 750 26 b 819 103 782 61 799 85 b 831 192 846 128 844 158 b 821 215 828 200 825 208 b 719 407 788 279 754 344 b 690 415 710 426 703 428 b 660 381 681 403 669 392 b 653 289 619 332 621 347 b 738 129 679 239 706 189 z m 215 493 b 224 492 221 493 224 493 b 306 375 254 456 279 415 b 299 361 310 369 306 361 b 296 361 299 361 297 361 l 292 360 b 289 360 290 360 290 360 b 226 365 268 361 247 363 b 221 426 214 385 222 406 b 215 493 218 447 217 469 z "},"Ç":{"ha":493,"x_min":0,"x_max":0,"o":"m 411 161 b 385 172 399 158 392 167 b 307 256 354 196 329 225 b 76 828 208 394 76 650 b 86 858 76 839 72 853 b 115 846 99 864 107 853 b 254 617 178 800 229 686 b 268 579 258 604 263 592 b 285 576 271 572 279 572 b 304 596 292 583 297 589 l 343 633 b 363 651 350 639 356 646 b 369 692 375 663 376 675 b 346 840 351 739 346 790 b 347 960 344 881 346 919 b 347 989 347 969 347 979 b 342 996 347 992 344 994 b 247 906 324 996 260 922 b 197 947 231 919 214 935 b 151 963 183 957 168 963 b 99 939 133 963 115 956 b 36 876 78 918 58 896 b -19 749 -3 842 -17 799 b -4 632 -21 710 -14 671 b 292 79 38 464 154 196 b 299 74 294 78 296 75 b 293 68 297 72 294 69 b 285 36 283 58 283 47 b 304 -111 292 -14 297 -62 b 308 -131 304 -118 307 -124 b 332 -137 313 -142 322 -144 b 340 -131 335 -135 338 -132 l 356 -114 b 364 -107 358 -112 361 -110 b 403 -68 376 -93 389 -81 b 450 -50 418 -56 435 -50 b 513 -94 475 -50 499 -65 b 519 -167 524 -117 524 -142 b 499 -212 517 -183 517 -207 b 457 -179 476 -219 467 -196 b 439 -158 450 -165 444 -158 b 415 -175 433 -158 426 -164 b 360 -231 397 -194 379 -212 b 357 -258 351 -239 351 -249 b 360 -264 358 -260 358 -262 l 365 -274 b 368 -279 367 -276 367 -278 b 413 -310 381 -300 396 -310 b 467 -285 431 -310 454 -297 b 561 -190 499 -253 531 -222 b 614 -86 588 -161 604 -125 b 604 0 621 -56 618 -26 b 539 44 590 29 565 44 b 454 0 504 44 478 24 b 403 -47 439 -12 425 -26 b 392 31 399 -14 394 8 b 390 42 392 35 390 38 b 418 60 400 44 410 50 b 471 111 435 78 451 96 b 513 221 506 140 517 178 b 507 256 511 232 510 244 b 450 489 493 335 472 413 b 435 507 447 496 446 506 l 431 507 b 365 443 407 485 386 463 b 354 399 350 429 350 417 b 400 228 371 342 386 285 b 411 161 406 206 413 183 z "},"Ð":{"ha":592,"x_min":0,"x_max":0,"o":"m 249 153 b 221 186 232 161 228 175 b 172 310 200 225 186 267 b 158 351 168 324 164 338 b 142 356 156 358 147 360 b 69 282 118 332 93 307 b 65 260 63 276 63 268 b 125 99 83 206 99 150 b 271 -18 156 42 199 -18 b 578 197 388 -18 507 117 b 586 210 581 201 583 206 b 601 344 614 251 619 297 b 483 507 575 407 532 461 b 356 629 442 549 399 589 b 221 761 310 672 264 715 b 74 1040 147 840 96 932 b 69 1053 74 1044 71 1049 b 53 1046 63 1054 57 1050 b -7 988 32 1026 13 1006 b -19 947 -19 975 -22 964 b 17 835 -11 908 1 871 b 26 797 21 822 31 811 b 35 740 19 776 28 758 b 132 492 67 657 99 574 b 72 490 115 492 96 490 b -42 440 25 490 -12 478 b -75 399 -51 426 -71 418 b -25 394 -72 396 -53 394 b 168 401 24 394 99 397 b 249 153 197 319 229 238 z m 249 543 b 261 538 253 542 258 540 b 299 503 274 526 286 515 b 258 501 283 503 269 501 b 253 514 257 506 254 510 b 249 543 250 524 243 532 z m 440 99 b 394 85 425 92 410 79 b 378 126 378 90 382 113 b 293 407 351 221 325 315 b 329 408 311 408 324 408 b 376 428 351 408 363 413 b 496 281 421 385 467 336 b 517 200 508 256 518 229 b 467 113 515 163 504 129 b 440 99 457 108 449 101 z "},"Đ":{"ha":592,"x_min":0,"x_max":0,"o":"m 249 153 b 221 186 232 161 228 175 b 172 310 200 225 186 267 b 158 351 168 324 164 338 b 142 356 156 358 147 360 b 69 282 118 332 93 307 b 65 260 63 276 63 268 b 125 99 83 206 99 150 b 271 -18 156 42 199 -18 b 578 197 388 -18 507 117 b 586 210 581 201 583 206 b 601 344 614 251 619 297 b 483 507 575 407 532 461 b 356 629 442 549 399 589 b 221 761 310 672 264 715 b 74 1040 147 840 96 932 b 69 1053 74 1044 71 1049 b 53 1046 63 1054 57 1050 b -7 988 32 1026 13 1006 b -19 947 -19 975 -22 964 b 17 835 -11 908 1 871 b 26 797 21 822 31 811 b 35 740 19 776 28 758 b 132 492 67 657 99 575 b 58 490 113 492 89 490 b -56 440 11 490 -26 478 b -89 399 -65 426 -85 418 b -35 394 -85 396 -65 394 b 167 401 17 394 96 397 b 249 153 197 321 229 238 z m 249 543 b 261 538 253 542 258 540 b 297 504 274 526 285 515 b 257 501 282 503 269 503 b 253 514 256 506 254 510 b 249 543 250 524 243 532 z m 440 99 b 394 85 425 92 410 79 b 378 126 378 90 382 113 b 293 408 350 221 324 315 b 315 408 304 408 311 408 b 360 425 332 408 347 411 b 369 435 363 428 367 432 b 496 281 415 390 465 338 b 517 200 508 256 518 229 b 467 113 515 163 504 129 b 440 99 457 108 449 101 z "},"È":{"ha":546,"x_min":0,"x_max":0,"o":"m 146 1390 b 83 1322 119 1367 103 1343 b 74 1271 69 1308 67 1292 b 136 1114 93 1218 114 1165 b 153 1100 139 1108 140 1100 b 206 1160 169 1119 186 1140 b 213 1215 222 1176 224 1193 b 146 1390 188 1271 167 1326 z m 463 129 b 121 492 332 164 172 365 b 131 504 118 500 122 504 b 175 492 146 506 160 499 b 268 449 206 479 238 464 b 294 450 278 444 288 442 b 358 524 317 474 338 499 b 354 540 364 529 360 536 b 322 567 344 550 333 558 b 147 765 258 619 186 692 b 175 750 163 767 167 756 b 251 686 200 729 225 707 b 286 686 267 674 275 675 b 344 753 306 708 324 731 b 349 793 354 764 356 776 b 340 822 346 801 343 813 b 299 1003 319 881 304 942 b 290 1015 299 1006 296 1007 b 221 935 267 988 242 963 b 215 913 217 929 218 919 b 206 892 214 906 219 896 b 136 961 183 914 160 939 b 88 1001 121 975 104 989 b 57 1000 76 1010 65 1008 b 4 940 39 981 24 958 b -15 853 -22 917 -25 888 b -7 824 -12 843 -10 833 b 100 618 18 751 54 683 b 100 569 117 596 124 596 b 88 556 96 565 92 560 l 63 528 b 50 514 58 524 54 518 b 33 415 25 486 21 453 b 438 21 72 289 286 21 b 489 40 458 21 475 26 b 544 103 507 61 524 85 b 556 192 571 128 569 158 b 546 215 553 200 550 208 b 444 407 513 279 479 344 b 415 415 435 426 428 428 b 385 381 406 403 394 392 b 378 289 344 332 346 347 b 463 129 404 239 431 189 z "},"É":{"ha":546,"x_min":0,"x_max":0,"o":"m 197 1390 b 106 1215 167 1326 138 1271 b 104 1160 92 1193 90 1176 b 149 1100 121 1140 135 1119 b 167 1114 161 1100 164 1108 b 251 1271 197 1165 225 1218 b 250 1322 263 1292 261 1308 b 197 1390 232 1343 219 1367 z m 463 129 b 121 492 332 164 172 365 b 131 504 118 500 122 504 b 175 492 146 506 160 499 b 268 449 206 479 238 464 b 294 450 278 444 288 442 b 358 524 317 474 338 499 b 354 540 364 529 360 536 b 322 567 344 550 333 558 b 147 765 258 619 186 692 b 175 750 163 767 167 756 b 251 686 200 729 225 707 b 286 686 267 674 275 675 b 344 753 306 708 324 731 b 349 793 354 764 356 776 b 340 822 346 801 343 813 b 299 1003 319 881 304 942 b 290 1015 299 1006 296 1007 b 221 935 267 988 242 963 b 215 913 217 929 218 919 b 206 892 214 906 219 896 b 136 961 183 914 160 939 b 88 1001 121 975 104 989 b 57 1000 76 1010 65 1008 b 4 940 39 981 24 958 b -15 853 -22 917 -25 888 b -7 824 -12 843 -10 833 b 100 618 18 751 54 683 b 100 569 117 596 124 596 b 88 556 96 565 92 560 l 63 528 b 50 514 58 524 54 518 b 33 415 25 486 21 453 b 438 21 72 289 286 21 b 489 40 458 21 475 26 b 544 103 507 61 524 85 b 556 192 571 128 569 158 b 546 215 553 200 550 208 b 444 407 513 279 479 344 b 415 415 435 426 428 428 b 385 381 406 403 394 392 b 378 289 344 332 346 347 b 463 129 404 239 431 189 z "},"Ê":{"ha":546,"x_min":0,"x_max":0,"o":"m 64 1114 b 128 1174 89 1131 107 1154 b 158 1224 143 1188 154 1203 b 175 1239 161 1231 164 1239 b 181 1221 178 1233 179 1226 l 193 1183 b 199 1164 194 1176 197 1171 b 226 1100 214 1121 217 1100 b 282 1150 235 1100 278 1140 l 294 1163 b 300 1168 296 1164 299 1167 b 310 1207 314 1179 315 1190 b 236 1457 281 1289 256 1372 b 219 1486 233 1467 231 1476 b 153 1422 196 1467 176 1443 b 119 1358 133 1406 124 1383 b 64 1135 104 1283 86 1208 b 64 1114 63 1128 60 1122 z m 463 129 b 121 492 332 164 172 365 b 131 504 118 500 122 504 b 175 492 146 506 160 499 b 268 449 206 479 238 464 b 294 450 278 444 288 442 b 358 524 317 474 338 499 b 354 540 364 529 360 536 b 322 567 344 550 333 558 b 147 765 258 619 186 692 b 175 750 163 767 167 756 b 251 686 200 729 225 707 b 286 686 267 674 275 675 b 344 753 306 708 324 731 b 349 793 354 764 356 776 b 340 822 346 801 343 813 b 299 1003 319 881 304 942 b 290 1015 299 1006 296 1007 b 221 935 267 988 242 963 b 215 913 217 929 218 919 b 206 892 214 906 219 896 b 136 961 183 914 160 939 b 88 1001 121 975 104 989 b 57 1000 76 1010 65 1008 b 4 940 39 981 24 958 b -15 853 -22 917 -25 888 b -7 824 -12 843 -10 833 b 100 618 18 751 54 683 b 100 569 117 596 124 596 b 88 556 96 565 92 560 l 63 528 b 50 514 58 524 54 518 b 33 415 25 486 21 453 b 438 21 72 289 286 21 b 489 40 458 21 475 26 b 544 103 507 61 524 85 b 556 192 571 128 569 158 b 546 215 553 200 550 208 b 444 407 513 279 479 344 b 415 415 435 426 428 428 b 385 381 406 403 394 392 b 378 289 344 332 346 347 b 463 129 404 239 431 189 z "},"Ë":{"ha":546,"x_min":0,"x_max":0,"o":"m 272 1299 b 233 1267 254 1290 244 1278 b 222 1256 229 1263 226 1260 l 200 1232 b 189 1221 196 1228 193 1225 b 185 1207 186 1217 185 1211 b 188 1108 185 1174 186 1142 b 201 1103 188 1103 197 1099 b 271 1172 225 1126 249 1149 b 281 1199 279 1179 282 1189 b 272 1299 281 1218 278 1285 z m 131 1299 b 92 1267 114 1290 104 1278 b 81 1256 89 1263 85 1260 l 60 1232 b 49 1221 56 1228 53 1225 b 43 1207 44 1217 43 1211 b 46 1108 43 1174 44 1142 b 60 1103 46 1103 56 1099 b 78 1121 65 1108 72 1115 l 113 1154 b 131 1172 118 1160 125 1167 b 139 1199 138 1179 140 1189 b 131 1299 139 1218 138 1286 z m 463 129 b 121 492 332 164 172 365 b 131 504 118 500 122 504 b 175 492 146 506 160 499 b 268 449 206 479 238 464 b 294 450 278 444 288 442 b 358 524 317 474 338 499 b 354 540 364 529 360 536 b 322 567 344 550 333 558 b 147 765 258 619 186 692 b 175 750 163 767 167 756 b 251 686 200 729 225 707 b 286 686 267 674 275 675 b 344 753 306 708 324 731 b 349 793 354 764 356 776 b 340 822 346 801 343 813 b 299 1003 319 881 304 942 b 290 1015 299 1006 296 1007 b 221 935 267 988 242 963 b 215 913 217 929 218 919 b 206 892 214 906 219 896 b 136 961 183 914 160 939 b 88 1001 121 975 104 989 b 57 1000 76 1010 65 1008 b 4 940 39 981 24 958 b -15 853 -22 917 -25 888 b -7 824 -12 843 -10 833 b 100 618 18 751 54 683 b 100 569 117 596 124 596 b 88 556 96 565 92 560 l 63 528 b 50 514 58 524 54 518 b 33 415 25 486 21 453 b 438 21 72 289 286 21 b 489 40 458 21 475 26 b 544 103 507 61 524 85 b 556 192 571 128 569 158 b 546 215 553 200 550 208 b 444 407 513 279 479 344 b 415 415 435 426 428 428 b 385 381 406 403 394 392 b 378 289 344 332 346 347 b 463 129 404 239 431 189 z "},"Ì":{"ha":375,"x_min":0,"x_max":0,"o":"m 56 1392 b -7 1324 29 1368 13 1344 b -17 1272 -21 1310 -24 1293 b 46 1115 3 1219 24 1167 b 63 1101 49 1110 50 1101 b 115 1161 79 1121 96 1142 b 122 1217 132 1178 133 1194 b 56 1392 97 1272 76 1328 z m 65 39 b 89 35 79 36 83 35 b 192 44 122 38 157 46 b 292 51 225 42 258 53 b 335 72 310 51 324 60 b 388 125 351 90 369 107 b 393 143 392 129 397 133 b 342 144 378 149 360 144 b 285 181 304 143 301 135 b 140 635 231 329 182 481 b 131 682 136 650 133 667 b 144 693 128 693 133 697 b 167 696 153 689 160 689 b 222 751 186 714 204 732 b 243 781 231 758 242 765 b 108 943 182 821 143 879 b 75 1001 97 963 97 989 b 25 954 54 989 42 969 b -4 926 15 946 6 936 b -19 888 -15 917 -21 903 b -18 876 -19 883 -18 881 l -17 854 b -15 843 -17 850 -17 847 b 17 669 -4 785 4 726 b 164 164 54 497 106 329 b 171 136 167 156 171 144 b 149 121 169 124 154 128 b 65 39 122 96 97 71 z "},"Í":{"ha":375,"x_min":0,"x_max":0,"o":"m 122 1392 b 31 1217 92 1328 63 1272 b 29 1161 17 1194 15 1178 b 74 1101 46 1142 60 1121 b 92 1115 86 1101 89 1110 b 176 1272 122 1167 150 1219 b 175 1324 188 1293 186 1310 b 122 1392 157 1344 144 1368 z m 65 39 b 89 35 79 36 83 35 b 192 44 122 38 157 46 b 292 51 225 42 258 53 b 335 72 310 51 324 60 b 388 125 351 90 369 107 b 393 143 392 129 397 133 b 342 144 378 149 360 144 b 285 181 304 143 301 135 b 140 635 231 329 182 481 b 131 682 136 650 133 667 b 144 693 128 693 133 697 b 167 696 153 689 160 689 b 222 751 186 714 204 732 b 243 781 231 758 242 765 b 108 943 182 821 143 879 b 75 1001 97 963 97 989 b 25 954 54 989 42 969 b -4 926 15 946 6 936 b -19 888 -15 917 -21 903 b -18 876 -19 883 -18 881 l -17 854 b -15 843 -17 850 -17 847 b 17 669 -4 785 4 726 b 164 164 54 497 106 329 b 171 136 167 156 171 144 b 149 121 169 124 154 128 b 65 39 122 96 97 71 z "},"Î":{"ha":375,"x_min":0,"x_max":0,"o":"m -24 1115 b 40 1175 1 1132 19 1156 b 71 1225 56 1189 67 1204 b 88 1240 74 1232 76 1240 b 93 1222 90 1235 92 1228 l 106 1185 b 111 1165 107 1178 110 1172 b 139 1101 126 1122 129 1101 b 194 1151 147 1101 190 1142 l 207 1164 b 213 1169 208 1165 211 1168 b 222 1208 226 1181 228 1192 b 149 1458 193 1290 168 1374 b 132 1488 146 1468 143 1478 b 65 1424 108 1468 89 1444 b 32 1360 46 1407 36 1385 b -24 1136 17 1285 -1 1210 b -24 1115 -25 1129 -28 1124 z m 65 39 b 89 35 79 36 83 35 b 192 44 122 38 157 46 b 292 51 225 42 258 53 b 335 72 310 51 324 60 b 388 125 351 90 369 107 b 393 143 392 129 397 133 b 342 144 378 149 360 144 b 285 181 304 143 301 135 b 140 635 231 329 182 481 b 131 682 136 650 133 667 b 144 693 128 693 133 697 b 167 696 153 689 160 689 b 222 751 186 714 204 732 b 243 781 231 758 242 765 b 108 943 182 821 143 879 b 75 1001 97 963 97 989 b 25 954 54 989 42 969 b -4 926 15 946 6 936 b -19 888 -15 917 -21 903 b -18 876 -19 883 -18 881 l -17 854 b -15 843 -17 850 -17 847 b 17 669 -4 785 4 726 b 164 164 54 497 106 329 b 171 136 167 156 171 144 b 149 121 169 124 154 128 b 65 39 122 96 97 71 z "},"Ï":{"ha":375,"x_min":0,"x_max":0,"o":"m 249 1300 b 210 1268 231 1292 221 1279 b 199 1257 206 1264 203 1261 l 176 1233 b 165 1222 172 1229 169 1226 b 161 1208 163 1218 161 1213 b 164 1110 161 1175 163 1143 b 178 1104 164 1104 174 1100 b 247 1174 201 1128 225 1150 b 257 1200 256 1181 258 1190 b 249 1300 257 1219 254 1286 z m 107 1300 b 68 1268 90 1292 81 1279 b 57 1257 65 1264 61 1261 l 36 1233 b 25 1222 32 1229 29 1226 b 19 1208 21 1218 19 1213 b 22 1110 19 1175 21 1143 b 36 1104 22 1104 32 1100 b 54 1122 42 1110 49 1117 l 89 1156 b 107 1174 94 1161 101 1168 b 115 1200 114 1181 117 1190 b 107 1300 115 1219 114 1288 z m 65 39 b 89 35 79 36 83 35 b 192 44 122 38 157 46 b 292 51 225 42 258 53 b 335 72 310 51 324 60 b 388 125 351 90 369 107 b 393 143 392 129 397 133 b 342 144 378 149 360 144 b 285 181 304 143 301 135 b 140 635 231 329 182 481 b 131 682 136 650 133 667 b 144 693 128 693 133 697 b 167 696 153 689 160 689 b 222 751 186 714 204 732 b 243 781 231 758 242 765 b 108 943 182 821 143 879 b 75 1001 97 963 97 989 b 25 954 54 989 42 969 b -4 926 15 946 6 936 b -19 888 -15 917 -21 903 b -18 876 -19 883 -18 881 l -17 854 b -15 843 -17 850 -17 847 b 17 669 -4 785 4 726 b 164 164 54 497 106 329 b 171 136 167 156 171 144 b 149 121 169 124 154 128 b 65 39 122 96 97 71 z "},"Ł":{"ha":568,"x_min":0,"x_max":0,"o":"m 503 43 b 554 94 522 63 539 78 b 568 181 600 142 596 126 b 449 542 510 294 460 411 b 436 549 449 550 440 553 b 379 494 417 531 399 511 b 357 428 357 476 353 454 b 396 265 364 372 378 318 b 407 222 400 253 408 239 b 296 213 369 218 332 215 b 278 225 286 211 281 218 b 258 286 271 246 264 265 b 181 574 233 383 207 479 b 256 579 219 576 250 579 b 511 583 340 583 426 586 b 556 600 529 583 543 586 b 614 660 574 621 594 639 b 608 676 621 667 618 675 b 500 679 572 682 536 681 b 154 665 385 675 269 668 b 108 826 139 719 124 772 b 78 946 97 867 88 907 b 67 978 75 956 82 969 b -14 899 38 953 13 925 b -19 871 -21 890 -22 881 b 3 779 -12 840 -6 810 b 40 643 15 733 28 689 b 13 615 31 636 21 626 b -21 575 3 601 -17 594 b 61 569 -15 569 19 568 b 119 363 81 500 100 432 b 163 201 135 310 149 256 b 150 175 167 185 165 179 b 99 139 128 168 113 154 b 53 93 83 124 68 108 b 50 78 49 89 42 85 b 88 88 63 78 75 83 b 158 107 110 94 133 101 b 186 108 167 110 182 113 b 204 100 193 101 199 100 b 228 113 213 100 219 106 b 254 122 235 121 244 121 b 411 115 307 126 360 125 b 490 61 467 104 460 118 b 503 43 492 57 496 53 z "},"Ñ":{"ha":631,"x_min":0,"x_max":0,"o":"m 108 1118 l 110 1117 b 122 1121 114 1118 118 1119 b 185 1139 142 1133 164 1139 b 240 1128 203 1139 222 1135 b 286 1111 256 1122 271 1115 b 339 1103 304 1106 322 1103 b 414 1126 365 1103 390 1110 b 522 1233 454 1156 488 1193 b 510 1232 515 1232 511 1233 b 426 1197 485 1207 456 1197 b 372 1207 408 1197 390 1200 l 313 1228 b 271 1235 297 1232 283 1235 b 189 1201 240 1235 214 1224 b 118 1133 164 1179 142 1156 b 108 1118 113 1129 108 1125 z m 103 417 b 90 418 99 417 93 415 b 63 442 81 425 79 444 b 33 418 50 440 43 426 b -12 372 18 403 3 388 b -15 342 -22 363 -22 353 l 131 90 b 147 67 135 82 142 74 b 164 65 151 60 158 60 b 211 110 181 79 196 94 b 244 208 253 151 253 151 b 243 218 244 211 244 215 b 232 285 240 240 236 263 l 211 418 b 188 572 203 469 194 521 b 207 554 201 569 204 561 b 538 58 304 381 419 218 b 556 35 543 50 549 43 b 574 35 561 29 568 29 b 643 104 596 57 619 81 b 649 131 651 111 653 121 b 642 143 646 135 643 139 b 450 897 524 381 461 632 b 450 1000 449 931 450 965 b 444 1011 450 1004 451 1011 b 432 1007 440 1011 435 1010 b 418 994 428 1003 424 999 l 393 968 b 354 899 369 950 356 929 b 379 575 350 790 361 682 b 389 513 382 556 386 535 b 361 544 371 521 368 533 b 144 986 275 685 203 832 b 126 1013 138 1004 132 1013 b 103 996 121 1013 114 1007 b 61 954 89 982 75 967 b 38 889 39 938 33 915 b 43 846 40 875 42 860 l 54 758 b 60 714 56 743 58 729 b 103 417 74 614 89 515 z "},"Ò":{"ha":492,"x_min":0,"x_max":0,"o":"m 146 1393 b 83 1325 119 1369 103 1346 b 74 1274 69 1311 67 1294 b 136 1117 93 1221 114 1168 b 153 1103 139 1111 140 1103 b 206 1163 169 1122 186 1143 b 213 1218 222 1179 224 1196 b 146 1393 188 1274 167 1329 z m -21 613 b -10 510 -17 578 -14 543 b 203 106 11 361 81 199 b 321 56 233 81 281 56 b 400 96 350 56 375 68 b 463 171 421 121 442 146 b 506 264 486 199 499 229 b 499 440 518 324 511 382 b 289 876 464 603 392 747 b 164 985 261 910 207 971 b 143 989 157 988 150 989 b 111 972 131 989 119 983 l 86 940 b 60 911 78 931 69 921 b 32 817 33 885 25 853 b 19 772 36 799 32 785 b -12 696 0 750 -8 725 b -21 613 -17 668 -19 640 z m 72 654 b 94 615 88 644 89 629 b 222 354 133 526 176 440 b 240 325 226 344 233 335 b 253 325 243 322 250 321 b 322 408 276 353 300 381 b 322 426 326 414 325 421 b 161 764 261 533 206 649 b 139 833 153 786 143 810 b 163 822 151 835 157 828 b 408 363 282 692 367 535 b 425 221 419 317 426 269 b 422 186 424 210 424 199 b 383 158 419 160 410 153 b 110 468 254 185 150 353 b 71 640 89 524 78 582 b 71 643 71 642 71 643 l 72 651 b 72 654 72 651 72 653 z "},"Ó":{"ha":492,"x_min":0,"x_max":0,"o":"m 186 1393 b 94 1218 156 1329 126 1274 b 93 1163 81 1196 79 1179 b 138 1103 110 1143 124 1122 b 156 1117 150 1103 153 1111 b 240 1274 186 1168 214 1221 b 239 1325 251 1294 250 1311 b 186 1393 221 1346 208 1369 z m -21 613 b -10 510 -17 578 -14 543 b 203 106 11 361 81 199 b 321 56 233 81 281 56 b 400 96 350 56 375 68 b 463 171 421 121 442 146 b 506 264 486 199 499 229 b 499 440 518 324 511 382 b 289 876 464 603 392 747 b 164 985 261 910 207 971 b 143 989 157 988 150 989 b 111 972 131 989 119 983 l 86 940 b 60 911 78 931 69 921 b 32 817 33 885 25 853 b 19 772 36 799 32 785 b -12 696 0 750 -8 725 b -21 613 -17 668 -19 640 z m 72 654 b 94 615 88 644 89 629 b 222 354 133 526 176 440 b 240 325 226 344 233 335 b 253 325 243 322 250 321 b 322 408 276 353 300 381 b 322 426 326 414 325 421 b 161 764 261 533 206 649 b 139 833 153 786 143 810 b 163 822 151 835 157 828 b 408 363 282 692 367 535 b 425 221 419 317 426 269 b 422 186 424 210 424 199 b 383 158 419 160 410 153 b 110 468 254 185 150 353 b 71 640 89 524 78 582 b 71 643 71 642 71 643 l 72 651 b 72 654 72 651 72 653 z "},"Ô":{"ha":492,"x_min":0,"x_max":0,"o":"m 47 1117 b 111 1176 72 1133 90 1157 b 142 1226 126 1190 138 1206 b 158 1242 144 1233 147 1242 b 164 1224 161 1236 163 1229 l 176 1186 b 182 1167 178 1179 181 1174 b 210 1103 197 1124 200 1103 b 265 1153 218 1103 261 1143 l 278 1165 b 283 1171 279 1167 282 1169 b 293 1210 297 1182 299 1193 b 219 1460 264 1292 239 1375 b 203 1489 217 1469 214 1479 b 136 1425 179 1469 160 1446 b 103 1361 117 1408 107 1386 b 47 1138 88 1286 69 1211 b 47 1117 46 1131 43 1125 z m -21 613 b -10 510 -17 578 -14 543 b 203 106 11 361 81 199 b 321 56 233 81 281 56 b 400 96 350 56 375 68 b 463 171 421 121 442 146 b 506 264 486 199 499 229 b 499 440 518 324 511 382 b 289 876 464 603 392 747 b 164 985 261 910 207 971 b 143 989 157 988 150 989 b 111 972 131 989 119 983 l 86 940 b 60 911 78 931 69 921 b 32 817 33 885 25 853 b 19 772 36 799 32 785 b -12 696 0 750 -8 725 b -21 613 -17 668 -19 640 z m 72 654 b 94 615 88 644 89 629 b 222 354 133 526 176 440 b 240 325 226 344 233 335 b 253 325 243 322 250 321 b 322 408 276 353 300 381 b 322 426 326 414 325 421 b 161 764 261 533 206 649 b 139 833 153 786 143 810 b 163 822 151 835 157 828 b 408 363 282 692 367 535 b 425 221 419 317 426 269 b 422 186 424 210 424 199 b 383 158 419 160 410 153 b 110 468 254 185 150 353 b 71 640 89 524 78 582 b 71 643 71 642 71 643 l 72 651 b 72 654 72 651 72 653 z "},"Õ":{"ha":492,"x_min":0,"x_max":0,"o":"m 39 1118 l 40 1117 b 53 1121 44 1118 49 1119 b 115 1139 72 1133 94 1139 b 171 1128 133 1139 153 1135 b 217 1111 186 1122 201 1115 b 269 1103 235 1106 253 1103 b 344 1126 296 1103 321 1110 b 453 1233 385 1156 418 1193 b 440 1232 446 1232 442 1233 b 357 1197 415 1207 386 1197 b 303 1207 339 1197 321 1200 l 243 1228 b 201 1235 228 1232 214 1235 b 119 1201 171 1235 144 1224 b 49 1133 94 1179 72 1156 b 39 1118 43 1129 39 1125 z m -21 613 b -10 510 -17 578 -14 543 b 203 106 11 361 81 199 b 321 56 233 81 281 56 b 400 96 350 56 375 68 b 463 171 421 121 442 146 b 506 264 486 199 499 229 b 499 440 518 324 511 382 b 289 876 464 603 392 747 b 164 985 261 910 207 971 b 143 989 157 988 150 989 b 111 972 131 989 119 983 l 86 940 b 60 911 78 931 69 921 b 32 817 33 885 25 853 b 19 772 36 799 32 785 b -12 696 0 750 -8 725 b -21 613 -17 668 -19 640 z m 72 654 b 94 615 88 644 89 629 b 222 354 133 526 176 440 b 240 325 226 344 233 335 b 253 325 243 322 250 321 b 322 408 276 353 300 381 b 322 426 326 414 325 421 b 161 764 261 533 206 649 b 139 833 153 786 143 810 b 163 822 151 835 157 828 b 408 363 282 692 367 535 b 425 221 419 317 426 269 b 422 186 424 210 424 199 b 383 158 419 160 410 153 b 110 468 254 185 150 353 b 71 640 89 524 78 582 b 71 643 71 642 71 643 l 72 651 b 72 654 72 651 72 653 z "},"Ö":{"ha":492,"x_min":0,"x_max":0,"o":"m 263 1300 b 224 1268 244 1292 235 1279 b 213 1257 219 1264 217 1261 l 190 1233 b 179 1222 186 1229 183 1226 b 175 1208 176 1218 175 1213 b 178 1110 175 1175 176 1143 b 192 1104 178 1104 188 1100 b 261 1174 215 1128 239 1150 b 271 1200 269 1181 272 1190 b 263 1300 271 1219 268 1286 z m 121 1300 b 82 1268 104 1292 94 1279 b 71 1257 79 1264 75 1261 l 50 1233 b 39 1222 46 1229 43 1226 b 33 1208 35 1218 33 1213 b 36 1110 33 1175 35 1143 b 50 1104 36 1104 46 1100 b 68 1122 56 1110 63 1117 l 103 1156 b 121 1174 108 1161 115 1168 b 129 1200 128 1181 131 1190 b 121 1300 129 1219 128 1288 z m -21 613 b -10 510 -17 578 -14 543 b 203 106 11 361 81 199 b 321 56 233 81 281 56 b 400 96 350 56 375 68 b 463 171 421 121 442 146 b 506 264 486 199 499 229 b 499 440 518 324 511 382 b 289 876 464 603 392 747 b 164 985 261 910 207 971 b 143 989 157 988 150 989 b 111 972 131 989 119 983 l 86 940 b 60 911 78 931 69 921 b 32 817 33 885 25 853 b 19 772 36 799 32 785 b -12 696 0 750 -8 725 b -21 613 -17 668 -19 640 z m 72 654 b 94 615 88 644 89 629 b 222 354 133 526 176 440 b 240 325 226 344 233 335 b 253 325 243 322 250 321 b 322 408 276 353 300 381 b 322 426 326 414 325 421 b 161 764 261 533 206 649 b 139 833 153 786 143 810 b 163 822 151 835 157 828 b 408 363 282 692 367 535 b 425 221 419 317 426 269 b 422 186 424 210 424 199 b 383 158 419 160 410 153 b 110 468 254 185 150 353 b 71 640 89 524 78 582 b 71 643 71 642 71 643 l 72 651 b 72 654 72 651 72 653 z "},"Ø":{"ha":492,"x_min":0,"x_max":0,"o":"m -21 613 b -10 510 -17 578 -14 543 b 140 165 7 390 56 256 b 124 -115 132 72 124 -22 b 131 -131 124 -121 122 -129 b 147 -122 138 -132 143 -126 b 193 -78 163 -107 176 -92 b 219 -12 214 -60 219 -39 b 224 90 221 21 222 56 b 321 56 250 72 289 56 b 400 96 350 56 375 68 b 463 171 421 121 442 146 b 506 264 486 199 499 229 b 499 440 518 324 511 382 b 308 851 467 592 401 728 b 365 1122 324 942 343 1033 b 367 1154 368 1132 372 1142 b 276 1060 344 1138 285 1086 l 272 1044 b 246 925 263 1006 254 965 b 164 985 225 946 190 976 b 143 989 157 988 150 989 b 111 972 131 989 119 983 l 86 940 b 60 911 78 931 69 921 b 32 817 33 885 25 853 b 19 772 36 799 32 785 b -12 696 0 750 -8 725 b -21 613 -17 668 -19 640 z m 199 672 b 139 833 181 713 146 790 b 163 822 151 835 157 828 b 208 771 178 806 194 789 b 214 764 210 768 213 767 b 199 672 208 733 204 703 z m 233 256 b 240 325 235 279 238 303 b 253 325 243 322 250 321 b 322 408 276 353 300 381 b 322 426 326 414 325 421 b 263 540 301 464 282 501 b 281 669 268 583 274 626 b 408 363 339 575 382 474 b 425 221 419 317 426 269 b 422 186 424 210 424 199 b 383 158 419 160 410 153 b 233 256 325 169 274 213 z m 72 654 b 94 615 88 644 89 629 b 168 458 118 563 143 510 b 160 386 165 433 163 410 b 157 363 158 378 158 371 b 71 640 108 453 83 538 b 71 643 71 642 71 643 l 72 651 b 72 654 72 651 72 653 z "},"Œ":{"ha":913,"x_min":0,"x_max":0,"o":"m 829 129 b 488 492 699 164 539 365 b 497 504 485 500 489 504 b 542 492 513 506 526 499 b 635 449 572 479 604 464 b 661 450 644 444 654 442 b 725 524 683 474 704 499 b 721 540 731 529 726 536 b 689 567 711 550 700 558 b 514 765 625 619 553 692 b 542 750 529 767 533 756 b 618 686 567 729 592 707 b 653 686 633 674 642 675 b 711 753 672 708 690 731 b 715 793 721 764 722 776 b 707 822 713 801 710 813 b 665 1003 686 881 671 942 b 657 1015 665 1006 663 1007 b 588 935 633 988 608 963 b 582 913 583 929 585 919 b 572 892 581 906 586 896 b 503 961 550 914 526 939 b 454 1001 488 975 471 989 b 424 1000 443 1010 432 1008 b 371 940 406 981 390 958 b 351 853 344 917 342 888 b 360 824 354 843 357 833 b 467 618 385 751 421 683 b 467 569 483 596 490 596 b 465 568 467 569 467 569 l 465 567 b 210 957 419 688 317 874 b 164 985 196 968 181 979 b 143 989 157 988 150 989 b 111 972 131 989 119 983 l 86 940 b 60 911 78 931 69 921 b 32 817 33 885 25 853 b 19 772 36 799 32 785 b -12 696 0 750 -8 725 b -21 613 -17 668 -19 640 b -10 510 -17 578 -14 543 b 203 106 11 361 81 199 b 321 56 233 81 281 56 b 400 96 350 56 375 68 b 463 171 421 121 442 146 b 500 240 481 192 493 215 b 804 21 557 164 699 21 b 856 40 825 21 842 26 b 911 103 874 61 890 85 b 922 192 938 128 936 158 b 913 215 919 200 917 208 b 811 407 879 279 846 344 b 782 415 801 426 794 428 b 751 381 772 403 761 392 b 744 289 711 332 713 347 b 829 129 771 239 797 189 z m 72 654 b 94 615 88 644 89 629 b 222 354 133 526 176 440 b 240 325 226 344 233 335 b 253 325 243 322 250 321 b 322 408 276 353 300 381 b 322 426 326 414 325 421 b 161 764 261 533 206 649 b 139 833 153 786 143 810 b 163 822 151 835 157 828 b 408 363 282 692 367 535 b 425 221 419 317 426 269 b 422 186 424 210 424 199 b 383 158 419 160 410 153 b 110 468 254 185 150 353 b 71 640 89 524 78 582 b 71 643 71 642 71 642 l 72 651 b 72 654 72 653 72 653 z "},"Š":{"ha":569,"x_min":0,"x_max":0,"o":"m 22 1469 b 22 1449 18 1461 19 1456 b 78 1225 44 1375 63 1300 b 111 1161 82 1200 92 1179 b 128 1146 117 1157 122 1151 l 161 1114 b 178 1099 167 1108 172 1104 b 193 1126 189 1108 192 1117 b 267 1376 214 1211 239 1294 b 258 1415 272 1393 272 1404 b 235 1440 250 1424 242 1432 b 185 1483 207 1468 193 1483 b 133 1344 172 1483 139 1367 b 117 1361 121 1344 118 1353 b 22 1469 110 1393 49 1451 z m 100 469 b 36 389 79 443 56 417 b 25 308 19 364 17 338 b 67 226 33 278 47 250 b 360 15 146 129 242 58 b 431 0 382 6 406 0 b 503 26 458 -1 483 6 b 576 119 528 57 553 88 b 586 179 590 138 593 157 b 454 386 569 246 499 335 b 315 546 408 440 363 493 b 144 772 290 575 147 742 b 167 763 156 776 161 768 b 285 658 206 729 246 693 b 325 631 296 649 307 635 b 357 669 336 644 347 657 b 389 814 415 746 413 715 b 356 1018 371 882 357 949 b 347 1038 356 1025 361 1035 b 289 965 329 1014 310 989 b 274 921 278 953 272 938 b 275 876 274 906 275 890 b 268 856 274 869 279 860 b 236 876 254 858 246 869 b 140 946 204 900 172 924 b 97 971 126 956 113 964 b 81 975 92 974 86 975 b 58 963 72 975 65 971 b 42 943 53 956 47 949 l 10 901 b -7 882 4 896 -1 889 b -18 831 -19 867 -24 849 b 196 486 13 711 117 579 b 376 278 257 417 317 347 b 489 111 401 249 483 149 b 454 114 476 104 465 110 b 143 338 328 156 225 232 b 108 469 113 376 99 419 b 100 469 104 469 101 471 z m 108 471 l 108 469 b 110 469 108 469 110 469 b 108 471 110 469 108 471 z "},"Ù":{"ha":642,"x_min":0,"x_max":0,"o":"m 214 1389 b 151 1321 188 1365 171 1342 b 142 1269 138 1307 135 1290 b 204 1113 161 1217 182 1164 b 221 1099 207 1107 208 1099 b 274 1158 238 1118 254 1139 b 281 1214 290 1175 292 1192 b 214 1389 256 1269 235 1325 z m -21 592 b 22 625 1 600 10 614 b 68 669 38 640 51 656 b 83 667 72 675 81 675 l 96 624 b 222 256 135 500 172 376 b 315 96 240 214 279 125 b 340 85 324 89 332 85 b 364 96 347 85 356 89 b 431 163 386 118 407 140 b 464 226 449 179 460 200 b 471 289 465 247 468 268 b 478 311 472 296 467 306 b 492 286 488 306 489 296 b 560 117 514 231 536 174 b 581 90 564 107 565 96 b 650 158 603 113 626 136 b 657 201 665 172 664 185 b 418 925 558 435 471 676 b 404 942 417 932 414 938 b 346 885 386 924 367 903 b 324 819 325 867 321 847 b 378 286 350 643 369 465 b 376 251 378 275 378 263 b 369 246 376 250 372 247 b 365 249 368 246 367 247 b 349 278 360 258 353 268 b 274 460 318 336 294 397 b 146 864 225 593 188 728 b 119 938 138 889 129 913 b 92 944 113 956 104 957 b 32 886 71 925 51 906 b 4 831 15 871 7 853 b -21 592 -3 751 -11 674 z "},"Ú":{"ha":642,"x_min":0,"x_max":0,"o":"m 253 1381 b 161 1206 222 1317 193 1261 b 160 1150 147 1183 146 1167 b 204 1090 176 1131 190 1110 b 222 1104 217 1090 219 1099 b 307 1261 253 1156 281 1208 b 306 1313 318 1282 317 1299 b 253 1381 288 1333 275 1357 z m -21 592 b 22 625 1 600 10 614 b 68 669 38 640 51 656 b 83 667 72 675 81 675 l 96 624 b 222 256 135 500 172 376 b 315 96 240 214 279 125 b 340 85 324 89 332 85 b 364 96 347 85 356 89 b 431 163 386 118 407 140 b 464 226 449 179 460 200 b 471 289 465 247 468 268 b 478 311 472 296 467 306 b 492 286 488 306 489 296 b 560 117 514 231 536 174 b 581 90 564 107 565 96 b 650 158 603 113 626 136 b 657 201 665 172 664 185 b 418 925 558 435 471 676 b 404 942 417 932 414 938 b 346 885 386 924 367 903 b 324 819 325 867 321 847 b 378 286 350 643 369 465 b 376 251 378 275 378 263 b 369 246 376 250 372 247 b 365 249 368 246 367 247 b 349 278 360 258 353 268 b 274 460 318 336 294 397 b 146 864 225 593 188 728 b 119 938 138 889 129 913 b 92 944 113 956 104 957 b 32 886 71 925 51 906 b 4 831 15 871 7 853 b -21 592 -3 751 -11 674 z "},"Û":{"ha":642,"x_min":0,"x_max":0,"o":"m 139 1104 b 203 1164 164 1121 182 1144 b 233 1214 218 1178 229 1193 b 250 1229 236 1221 239 1229 b 256 1211 253 1224 254 1217 l 268 1174 b 274 1154 269 1167 272 1161 b 301 1090 289 1111 292 1090 b 357 1140 310 1090 353 1131 l 369 1153 b 375 1158 371 1154 374 1157 b 385 1197 389 1169 390 1181 b 311 1447 356 1279 331 1363 b 294 1476 308 1457 306 1467 b 228 1413 271 1457 251 1433 b 194 1349 208 1396 199 1374 b 139 1125 179 1274 161 1199 b 139 1104 138 1118 135 1113 z m -21 592 b 22 625 1 600 10 614 b 68 669 38 640 51 656 b 83 667 72 675 81 675 l 96 624 b 222 256 135 500 172 376 b 315 96 240 214 279 125 b 340 85 324 89 332 85 b 364 96 347 85 356 89 b 431 163 386 118 407 140 b 464 226 449 179 460 200 b 471 289 465 247 468 268 b 478 311 472 296 467 306 b 492 286 488 306 489 296 b 560 117 514 231 536 174 b 581 90 564 107 565 96 b 650 158 603 113 626 136 b 657 201 665 172 664 185 b 418 925 558 435 471 676 b 404 942 417 932 414 938 b 346 885 386 924 367 903 b 324 819 325 867 321 847 b 378 286 350 643 369 465 b 376 251 378 275 378 263 b 369 246 376 250 372 247 b 365 249 368 246 367 247 b 349 278 360 258 353 268 b 274 460 318 336 294 397 b 146 864 225 593 188 728 b 119 938 138 889 129 913 b 92 944 113 956 104 957 b 32 886 71 925 51 906 b 4 831 15 871 7 853 b -21 592 -3 751 -11 674 z "},"Ü":{"ha":642,"x_min":0,"x_max":0,"o":"m 347 1289 b 308 1257 329 1281 319 1268 b 297 1246 304 1253 301 1250 l 275 1222 b 264 1211 271 1218 268 1215 b 260 1197 261 1207 260 1201 b 263 1099 260 1164 261 1132 b 276 1093 263 1093 272 1089 b 346 1163 300 1117 324 1139 b 356 1189 354 1169 357 1179 b 347 1289 356 1208 353 1275 z m 206 1289 b 167 1257 189 1281 179 1268 b 156 1246 164 1253 160 1250 l 135 1222 b 124 1211 131 1218 128 1215 b 118 1197 119 1207 118 1201 b 121 1099 118 1164 119 1132 b 135 1093 121 1093 131 1089 b 153 1111 140 1099 147 1106 l 188 1144 b 206 1163 193 1150 200 1157 b 214 1189 213 1169 215 1179 b 206 1289 214 1208 213 1276 z m -21 592 b 22 625 1 600 10 614 b 68 669 38 640 51 656 b 83 667 72 675 81 675 l 96 624 b 222 256 135 500 172 376 b 315 96 240 214 279 125 b 340 85 324 89 332 85 b 364 96 347 85 356 89 b 431 163 386 118 407 140 b 464 226 449 179 460 200 b 471 289 465 247 468 268 b 478 311 472 296 467 306 b 492 286 488 306 489 296 b 560 117 514 231 536 174 b 581 90 564 107 565 96 b 650 158 603 113 626 136 b 657 201 665 172 664 185 b 418 925 558 435 471 676 b 404 942 417 932 414 938 b 346 885 386 924 367 903 b 324 819 325 867 321 847 b 378 286 350 643 369 465 b 376 251 378 275 378 263 b 369 246 376 250 372 247 b 365 249 368 246 367 247 b 349 278 360 258 353 268 b 274 460 318 336 294 397 b 146 864 225 593 188 728 b 119 938 138 889 129 913 b 92 944 113 956 104 957 b 32 886 71 925 51 906 b 4 831 15 871 7 853 b -21 592 -3 751 -11 674 z "},"Ÿ":{"ha":626,"x_min":0,"x_max":0,"o":"m 318 1289 b 279 1257 300 1281 290 1268 b 268 1246 275 1253 272 1250 l 246 1222 b 235 1211 242 1218 239 1215 b 231 1197 232 1207 231 1201 b 233 1099 231 1164 232 1132 b 247 1093 233 1093 243 1089 b 317 1163 271 1117 294 1139 b 326 1189 325 1169 328 1179 b 318 1289 326 1208 324 1275 z m 176 1289 b 138 1257 160 1281 150 1268 b 126 1246 135 1253 131 1250 l 106 1222 b 94 1211 101 1218 99 1215 b 89 1197 90 1207 89 1201 b 92 1099 89 1164 90 1132 b 106 1093 92 1093 101 1089 b 124 1111 111 1099 118 1106 l 158 1144 b 176 1163 164 1150 171 1157 b 185 1189 183 1169 186 1179 b 176 1289 185 1208 183 1276 z m 138 22 b 233 122 176 60 211 85 b 271 149 243 139 256 144 b 321 153 288 151 304 153 b 540 76 400 153 476 121 b 571 79 551 69 561 69 b 633 142 590 100 613 121 b 639 185 650 160 650 161 b 619 225 632 199 625 211 l 578 304 b 558 343 572 317 565 331 b 325 958 464 542 376 743 b 310 963 322 965 314 968 b 249 906 289 944 271 924 b 233 843 228 888 226 867 b 254 778 239 821 246 800 b 251 715 261 757 260 738 b 189 560 229 664 210 613 b 172 536 186 551 183 542 b 164 553 169 542 165 547 b 76 911 126 671 89 788 b 68 926 76 918 76 926 b 51 918 63 926 57 922 b -4 863 33 900 15 881 b -19 818 -18 850 -22 835 b 90 394 1 674 44 533 l 100 372 b 121 368 104 365 115 363 b 181 426 142 388 161 408 b 224 492 201 444 215 467 b 236 525 228 503 232 514 l 263 592 b 275 625 267 603 271 614 b 294 649 279 633 281 643 b 460 260 342 517 400 388 b 460 251 460 258 460 254 b 243 178 317 239 353 253 b 238 272 239 211 240 242 b 224 367 235 303 233 333 b 153 301 194 346 176 321 b 136 253 138 288 135 274 b 138 22 143 181 157 108 z "},"Ý":{"ha":626,"x_min":0,"x_max":0,"o":"m 201 1382 b 110 1207 171 1318 142 1263 b 108 1151 96 1185 94 1168 b 153 1092 125 1132 139 1111 b 171 1106 165 1092 168 1100 b 256 1263 201 1157 229 1210 b 254 1314 267 1283 265 1300 b 201 1382 236 1335 224 1358 z m 138 22 b 233 122 176 60 211 85 b 271 149 243 139 256 144 b 321 153 288 151 304 153 b 540 76 400 153 476 121 b 571 79 551 69 561 69 b 633 142 590 100 613 121 b 639 185 650 160 650 161 b 619 225 632 199 625 211 l 578 304 b 558 343 572 317 565 331 b 325 958 464 542 376 743 b 310 963 322 965 314 968 b 249 906 289 944 271 924 b 233 843 228 888 226 867 b 254 778 239 821 246 800 b 251 715 261 757 260 738 b 189 560 229 664 210 613 b 172 536 186 551 183 542 b 164 553 169 542 165 547 b 76 911 126 671 89 788 b 68 926 76 918 76 926 b 51 918 63 926 57 922 b -4 863 33 900 15 881 b -19 818 -18 850 -22 835 b 90 394 1 674 44 533 l 100 372 b 121 368 104 365 115 363 b 181 426 142 388 161 408 b 224 492 201 444 215 467 b 236 525 228 503 232 514 l 263 592 b 275 625 267 603 271 614 b 294 649 279 633 281 643 b 460 260 342 517 400 388 b 460 251 460 258 460 254 b 243 178 317 239 353 253 b 238 272 239 211 240 242 b 224 367 235 303 233 333 b 153 301 194 346 176 321 b 136 253 138 288 135 274 b 138 22 143 181 157 108 z "},"Ž":{"ha":700,"x_min":0,"x_max":0,"o":"m 96 1463 b 96 1442 92 1454 93 1449 b 151 1218 118 1368 136 1293 b 185 1154 156 1193 165 1172 b 201 1139 190 1150 196 1144 l 235 1107 b 251 1092 240 1101 246 1097 b 267 1119 263 1101 265 1110 b 340 1369 288 1204 313 1288 b 332 1408 346 1386 346 1397 b 308 1433 324 1417 315 1425 b 258 1476 281 1461 267 1476 b 207 1338 246 1476 213 1360 b 190 1354 194 1338 192 1346 b 96 1463 183 1386 122 1444 z m 633 126 b 710 200 661 147 685 175 b 711 233 724 214 724 219 b 613 386 668 278 638 331 b 524 596 581 456 551 525 b 449 521 496 571 474 544 b 439 482 436 510 432 499 b 456 440 446 469 450 454 b 492 354 467 413 479 383 b 475 317 503 326 503 326 b 307 208 403 289 363 264 b 276 188 299 200 292 186 b 275 215 271 197 274 207 b 506 957 304 440 351 778 l 506 961 b 507 964 507 963 507 964 b 489 964 501 968 494 965 b 467 958 482 963 475 961 l 424 950 b 401 944 417 947 408 946 b 149 917 318 928 233 915 b 92 922 131 917 110 922 b 65 917 82 922 74 921 b 1 857 40 903 22 878 b -10 846 -3 854 -6 850 b -11 813 -24 832 -24 828 b 119 624 39 753 86 694 b 192 696 146 650 169 672 b 199 743 211 715 211 718 b 160 807 186 765 174 785 b 169 826 154 818 157 824 b 185 829 175 828 179 829 b 354 858 242 835 299 847 b 396 863 368 861 382 868 b 394 853 396 858 396 856 b 175 74 246 649 201 321 b 179 67 175 72 178 68 b 189 68 182 65 186 65 b 265 143 214 93 243 115 b 451 231 307 194 385 231 b 600 157 513 231 568 203 b 633 126 608 146 615 132 z "},"à":{"ha":511,"x_min":0,"x_max":0,"o":"m 146 1382 b 83 1314 119 1358 103 1335 b 74 1263 69 1300 67 1283 b 136 1106 93 1210 114 1157 b 153 1092 139 1100 140 1092 b 206 1151 169 1111 186 1132 b 213 1207 222 1168 224 1185 b 146 1382 188 1263 167 1318 z m 425 -18 b 481 36 446 3 461 21 b 526 121 507 60 519 89 b 522 243 535 163 533 203 b 493 326 514 272 497 297 b 469 357 492 338 476 346 b 338 558 429 426 383 492 b 158 960 256 679 181 814 b 150 1036 154 985 153 1011 b 139 1035 146 1036 142 1036 b 79 976 119 1015 100 996 b 57 929 65 964 58 949 b 58 742 51 867 53 804 b 99 519 67 667 83 593 b 124 374 110 471 119 422 b 100 344 124 351 122 347 b 14 290 60 338 40 318 l -3 275 b -10 267 -4 272 -7 269 b -19 246 -15 261 -24 256 b 14 249 -8 242 3 247 b 96 263 42 254 68 260 b 119 239 118 265 124 260 b 68 60 111 176 94 117 b 58 22 63 49 51 38 b 101 61 76 32 88 49 b 167 158 133 88 154 121 b 199 246 178 188 189 217 b 224 264 203 260 210 265 b 336 251 261 260 299 257 b 414 190 392 243 392 243 b 419 176 415 186 418 182 b 428 18 440 125 444 72 b 425 -18 425 8 418 0 z m 215 493 b 224 492 221 493 224 493 b 306 375 254 456 279 415 b 299 361 310 369 306 361 b 296 361 299 361 297 361 l 292 360 b 226 365 268 361 247 363 b 221 426 214 385 222 406 b 215 493 218 447 217 469 z "},"á":{"ha":511,"x_min":0,"x_max":0,"o":"m 193 1382 b 101 1207 163 1318 133 1263 b 100 1151 88 1185 86 1168 b 144 1092 117 1132 131 1111 b 163 1106 157 1092 160 1100 b 247 1263 193 1157 221 1210 b 246 1314 258 1283 257 1300 b 193 1382 228 1335 215 1358 z m 425 -18 b 481 36 446 3 461 21 b 526 121 507 60 519 89 b 522 243 535 163 533 203 b 493 326 514 272 497 297 b 469 357 492 338 476 346 b 338 558 429 426 383 492 b 158 960 256 679 181 814 b 150 1036 154 985 153 1011 b 139 1035 146 1036 142 1036 b 79 976 119 1015 100 996 b 57 929 65 964 58 949 b 58 742 51 867 53 804 b 99 519 67 667 83 593 b 124 374 110 471 119 422 b 100 344 124 351 122 347 b 14 290 60 338 40 318 l -3 275 b -10 267 -4 272 -7 269 b -19 246 -15 261 -24 256 b 14 249 -8 242 3 247 b 96 263 42 254 68 260 b 119 239 118 265 124 260 b 68 60 111 176 94 117 b 58 22 63 49 51 38 b 101 61 76 32 88 49 b 167 158 133 88 154 121 b 199 246 178 188 189 217 b 224 264 203 260 210 265 b 336 251 261 260 299 257 b 414 190 392 243 392 243 b 419 176 415 186 418 182 b 428 18 440 125 444 72 b 425 -18 425 8 418 0 z m 215 493 b 224 492 221 493 224 493 b 306 375 254 456 279 415 b 299 361 310 369 306 361 b 296 361 299 361 297 361 l 292 360 b 226 365 268 361 247 363 b 221 426 214 385 222 406 b 215 493 218 447 217 469 z "}}}
